<svg width="80" height="76" viewBox="0 0 80 76" fill="none" xmlns="http://www.w3.org/2000/svg">
<g opacity="0.8" clip-path="url(#clip0_193_5783)">
<path d="M65.9414 64.3316C65.9414 68.2127 69.0847 71.356 72.9658 71.356C76.847 71.356 79.9903 68.2127 79.9903 64.3316C79.9903 60.4504 76.847 57.3071 72.9658 57.3071C69.0847 57.3071 65.9414 60.4504 65.9414 64.3316Z" fill="white"/>
<path d="M72.8127 71.2026C72.8127 73.3205 71.0974 75.0358 68.9795 75.0358V75.3521C75.0648 75.3521 79.9905 70.4168 79.9905 64.3411" fill="white"/>
<path d="M14.0489 11.0113C14.0489 7.13008 10.9056 3.98682 7.02444 3.98682C3.14327 3.98682 0 7.13008 0 11.0113C0 14.8924 3.14327 18.0357 7.02444 18.0357C10.9056 18.0453 14.0489 14.8924 14.0489 11.0113Z" fill="white"/>
<path d="M7.18735 4.13991C7.18735 2.02204 8.90273 0.30666 11.0206 0.30666V0C4.93531 0 0 4.93531 0 11.011" fill="white"/>
<path d="M44.7627 21.1309C44.8202 21.1979 44.8873 21.265 44.9448 21.3417C44.8873 21.265 44.8298 21.1979 44.7627 21.1309Z" fill="white"/>
<path d="M44.3794 20.709C44.389 20.7186 44.3986 20.7377 44.4177 20.7473C44.3986 20.7282 44.389 20.7186 44.3794 20.709Z" fill="white"/>
<path d="M44.4082 20.7378C44.4849 20.824 44.5711 20.9103 44.6478 20.9965C44.5711 20.9103 44.4945 20.824 44.4082 20.7378Z" fill="white"/>
<path d="M44.6475 20.9966C44.6858 21.0349 44.7241 21.0828 44.7625 21.1212C44.7241 21.0828 44.6858 21.0445 44.6475 20.9966Z" fill="white"/>
<path d="M44.9541 21.3418C45.0595 21.4568 45.1649 21.5814 45.2608 21.6964C45.1553 21.5718 45.0595 21.4568 44.9541 21.3418Z" fill="white"/>
<path d="M50.7233 34.6239C51.5762 43.2487 47.6375 52.0364 39.8177 56.9909C37.0961 55.1988 34.7003 52.8222 32.8507 49.8898C25.8455 38.8309 29.1325 24.1878 40.1914 17.1826C41.7056 18.1792 43.1143 19.3579 44.3888 20.7092C40.7281 16.8184 35.9365 14.3651 30.867 13.5601V0L12.8124 18.045H12.8412C3.07595 25.3953 0.440584 39.1375 7.09128 49.6502C14.0965 60.7091 28.7492 64.0058 39.8081 56.9909C47.6375 52.0364 51.5666 43.2583 50.7233 34.6239Z" fill="white"/>
<path d="M50.7232 34.6237C50.7136 34.4896 50.6945 34.3458 50.6753 34.2117C50.6945 34.3554 50.704 34.4896 50.7232 34.6237Z" fill="white"/>
<path d="M38.6392 18.2466C32.6977 22.7027 29.3819 29.5068 29.1807 36.5312C29.3819 29.5068 32.6977 22.7027 38.6392 18.2466Z" fill="white"/>
<path d="M35.6204 53.4739C35.6108 53.4643 35.6012 53.4451 35.582 53.4355C35.6012 53.4451 35.6108 53.4547 35.6204 53.4739Z" fill="white"/>
<path d="M35.5824 53.4355C35.5057 53.3492 35.4194 53.263 35.3428 53.1768C35.429 53.263 35.5057 53.3492 35.5824 53.4355Z" fill="white"/>
<path d="M72.9084 24.5233C65.9031 13.4644 51.2505 10.1774 40.1916 17.1826C40.1916 17.1826 40.1916 17.1826 40.182 17.1826C42.9036 18.9747 45.2994 21.3513 47.1489 24.2837C54.1542 35.3427 50.8672 49.9857 39.8083 56.991C38.2941 55.9943 36.8854 54.8156 35.6108 53.4644C39.2716 57.3551 44.0632 59.8084 49.1326 60.6134V74.0777L66.9094 56.301C76.8758 48.9986 79.6166 35.1127 72.9084 24.5233Z" fill="white"/>
<path d="M35.3425 53.1769C35.3042 53.1386 35.2659 53.0906 35.2275 53.0427C35.2659 53.0906 35.3042 53.129 35.3425 53.1769Z" fill="white"/>
<path d="M35.0454 52.8319C34.94 52.7169 34.8346 52.5923 34.7388 52.4773C34.8346 52.6019 34.94 52.7169 35.0454 52.8319Z" fill="white"/>
<path d="M35.2275 53.0426C35.17 52.9755 35.1029 52.9085 35.0454 52.8318C35.1029 52.9085 35.17 52.9755 35.2275 53.0426Z" fill="white"/>
</g>
<defs>
<clipPath id="clip0_193_5783">
<rect width="80" height="75.3426" fill="white"/>
</clipPath>
</defs>
</svg>
