<svg width="23" height="36" viewBox="0 0 23 36" fill="none" xmlns="http://www.w3.org/2000/svg">
<path fill-rule="evenodd" clip-rule="evenodd" d="M0 11.059C0 4.94707 4.95444 0 11.059 0C17.1636 0 22.1181 4.94707 22.1181 11.059C22.1181 14.7915 20.4146 17.0375 19.1695 18.6792C19.0963 18.7757 19.0247 18.8701 18.9552 18.9625C16.5885 22.1254 16.2199 23.4451 16.2199 25.8118V26.549H5.89815V25.8118C5.89815 23.4378 5.52951 22.1254 3.16288 18.9625C3.08889 18.8637 3.01262 18.7628 2.93458 18.6596C1.69073 17.0141 0 14.7775 0 11.059ZM8.11023 10.32H14.0084V11.7945H11.7966V26.5399H10.322V11.7945H8.11023V10.32Z" fill="black"/>
<path fill-rule="evenodd" clip-rule="evenodd" d="M5.15984 25.8037H16.9561V27.2782H16.218V28.7521H16.956V30.2266H16.2176V31.7025C16.2176 32.2702 16.0038 32.8379 15.5688 33.2655C15.1338 33.6932 14.5735 33.9143 14.0058 33.9143H8.10765C7.53995 33.9143 6.97226 33.7005 6.54464 33.2655C6.10965 32.8306 5.89585 32.2702 5.89585 31.7025V30.2266H5.15967V28.7521H5.89585V27.2782H5.15984V25.8037ZM7.37038 27.2782V28.7521H14.7435V27.2782H7.37038ZM14.0062 33.9152H8.10806V35.3897H14.0062V33.9152Z" fill="black"/>
</svg>
