<svg width="401" height="727" viewBox="0 0 401 727" fill="none" xmlns="http://www.w3.org/2000/svg">
<g clip-path="url(#clip0_119_816)">
<path d="M363.536 49.5431H357.677C357.449 49.4722 357.207 49.456 356.972 49.4957C356.736 49.5354 356.513 49.6299 356.32 49.7717C356.128 49.9135 355.971 50.0985 355.863 50.3119C355.756 50.5252 355.699 50.761 355.699 51C355.699 51.2391 355.756 51.4748 355.863 51.6882C355.971 51.9016 356.128 52.0866 356.32 52.2284C356.513 52.3702 356.736 52.4647 356.972 52.5044C357.207 52.5441 357.449 52.5279 357.677 52.4569H363.536C363.764 52.5279 364.006 52.5441 364.241 52.5044C364.477 52.4647 364.7 52.3702 364.893 52.2284C365.085 52.0866 365.242 51.9016 365.35 51.6882C365.457 51.4748 365.514 51.2391 365.514 51C365.514 50.761 365.457 50.5252 365.35 50.3119C365.242 50.0985 365.085 49.9135 364.893 49.7717C364.7 49.6299 364.477 49.5354 364.241 49.4957C364.006 49.456 363.764 49.4722 363.536 49.5431Z" fill="#00C2CB"/>
<path d="M352.323 49.5431H346.526C346.297 49.4722 346.055 49.456 345.82 49.4957C345.584 49.5354 345.361 49.6299 345.168 49.7717C344.976 49.9135 344.819 50.0985 344.712 50.3119C344.604 50.5252 344.547 50.761 344.547 51C344.547 51.2391 344.604 51.4748 344.712 51.6882C344.819 51.9016 344.976 52.0866 345.168 52.2284C345.361 52.3702 345.584 52.4647 345.82 52.5044C346.055 52.5441 346.297 52.5279 346.526 52.4569H352.323C352.551 52.5279 352.793 52.5441 353.028 52.5044C353.264 52.4647 353.487 52.3702 353.68 52.2284C353.872 52.0866 354.029 51.9016 354.137 51.6882C354.244 51.4748 354.301 51.2391 354.301 51C354.301 50.761 354.244 50.5252 354.137 50.3119C354.029 50.0985 353.872 49.9135 353.68 49.7717C353.487 49.6299 353.264 49.5354 353.028 49.4957C352.793 49.456 352.551 49.4722 352.323 49.5431Z" fill="#00C2CB"/>
<path d="M354.992 52.2128C354.588 52.2128 354.2 52.3735 353.914 52.6596C353.628 52.9457 353.467 53.3337 353.467 53.7383V59.5964C353.396 59.8248 353.38 60.0665 353.419 60.3023C353.459 60.538 353.554 60.7612 353.695 60.9536C353.837 61.1461 354.022 61.3026 354.236 61.4105C354.449 61.5183 354.685 61.5745 354.924 61.5745C355.163 61.5745 355.399 61.5183 355.612 61.4105C355.825 61.3026 356.01 61.1461 356.152 60.9536C356.294 60.7612 356.388 60.538 356.428 60.3023C356.468 60.0665 356.452 59.8248 356.381 59.5964V53.6773C356.367 53.306 356.219 52.9524 355.963 52.6827C355.708 52.4131 355.362 52.246 354.992 52.2128Z" fill="#00C2CB"/>
<path d="M354.992 41C354.588 41 354.2 41.1607 353.914 41.4468C353.628 41.7329 353.467 42.121 353.467 42.5256V48.3227C353.396 48.551 353.38 48.7927 353.419 49.0285C353.459 49.2642 353.554 49.4874 353.695 49.6799C353.837 49.8723 354.022 50.0288 354.236 50.1367C354.449 50.2445 354.685 50.3007 354.924 50.3007C355.163 50.3007 355.399 50.2445 355.612 50.1367C355.825 50.0288 356.01 49.8723 356.152 49.6799C356.294 49.4874 356.388 49.2642 356.428 49.0285C356.468 48.7927 356.452 48.551 356.381 48.3227V42.5256C356.382 42.1437 356.24 41.7751 355.983 41.4926C355.726 41.2101 355.373 41.0344 354.992 41Z" fill="#00C2CB"/>
</g>
<g clip-path="url(#clip1_119_816)">
<path d="M18.5355 536.543H12.6774C12.4491 536.472 12.2073 536.456 11.9715 536.496C11.7358 536.535 11.5127 536.63 11.3202 536.772C11.1277 536.913 10.9712 537.099 10.8634 537.312C10.7555 537.525 10.6993 537.761 10.6993 538C10.6993 538.239 10.7555 538.475 10.8634 538.688C10.9712 538.902 11.1277 539.087 11.3202 539.228C11.5127 539.37 11.7358 539.465 11.9715 539.504C12.2073 539.544 12.4491 539.528 12.6774 539.457H18.5355C18.7638 539.528 19.0056 539.544 19.2413 539.504C19.4771 539.465 19.7002 539.37 19.8927 539.228C20.0852 539.087 20.2417 538.902 20.3495 538.688C20.4574 538.475 20.5135 538.239 20.5135 538C20.5135 537.761 20.4574 537.525 20.3495 537.312C20.2417 537.099 20.0852 536.913 19.8927 536.772C19.7002 536.63 19.4771 536.535 19.2413 536.496C19.0056 536.456 18.7638 536.472 18.5355 536.543Z" fill="#00C2CB"/>
<path d="M7.32263 536.543H1.52553C1.29721 536.472 1.05543 536.456 0.819684 536.496C0.583935 536.535 0.360816 536.63 0.168324 536.772C-0.0241686 536.913 -0.180646 537.099 -0.288487 537.312C-0.396328 537.525 -0.452515 537.761 -0.452515 538C-0.452515 538.239 -0.396328 538.475 -0.288487 538.688C-0.180646 538.902 -0.0241686 539.087 0.168324 539.228C0.360816 539.37 0.583935 539.465 0.819684 539.504C1.05543 539.544 1.29721 539.528 1.52553 539.457H7.32263C7.55094 539.528 7.79272 539.544 8.02847 539.504C8.26422 539.465 8.48734 539.37 8.67983 539.228C8.87232 539.087 9.0288 538.902 9.13664 538.688C9.24448 538.475 9.30067 538.239 9.30067 538C9.30067 537.761 9.24448 537.525 9.13664 537.312C9.0288 537.099 8.87232 536.913 8.67983 536.772C8.48734 536.63 8.26422 536.535 8.02847 536.496C7.79272 536.456 7.55094 536.472 7.32263 536.543Z" fill="#00C2CB"/>
<path d="M9.9924 539.213C9.5878 539.213 9.19976 539.373 8.91367 539.66C8.62757 539.946 8.46684 540.334 8.46684 540.738V546.596C8.39593 546.825 8.37968 547.067 8.41938 547.302C8.45908 547.538 8.55363 547.761 8.69541 547.954C8.83719 548.146 9.02222 548.303 9.23559 548.41C9.44895 548.518 9.68468 548.574 9.92375 548.574C10.1628 548.574 10.3985 548.518 10.6119 548.41C10.8253 548.303 11.0103 548.146 11.1521 547.954C11.2939 547.761 11.3884 547.538 11.4281 547.302C11.4678 547.067 11.4516 546.825 11.3807 546.596V540.677C11.3673 540.306 11.2189 539.952 10.9633 539.683C10.7077 539.413 10.3624 539.246 9.9924 539.213Z" fill="#00C2CB"/>
<path d="M9.9924 528C9.5878 528 9.19976 528.161 8.91367 528.447C8.62757 528.733 8.46684 529.121 8.46684 529.526V535.323C8.39593 535.551 8.37968 535.793 8.41938 536.028C8.45908 536.264 8.55363 536.487 8.69541 536.68C8.83719 536.872 9.02222 537.029 9.23559 537.137C9.44895 537.245 9.68468 537.301 9.92375 537.301C10.1628 537.301 10.3985 537.245 10.6119 537.137C10.8253 537.029 11.0103 536.872 11.1521 536.68C11.2939 536.487 11.3884 536.264 11.4281 536.028C11.4678 535.793 11.4516 535.551 11.3807 535.323V529.526C11.3822 529.144 11.2405 528.775 10.9834 528.493C10.7264 528.21 10.3728 528.034 9.9924 528Z" fill="#00C2CB"/>
</g>
<path d="M33.41 109.82C41.9207 109.82 48.82 102.921 48.82 94.41C48.82 85.8993 41.9207 79 33.41 79C24.8993 79 18 85.8993 18 94.41C18 102.921 24.8993 109.82 33.41 109.82Z" fill="#00C2CB"/>
<path d="M385.41 623.82C393.921 623.82 400.82 616.921 400.82 608.41C400.82 599.899 393.921 593 385.41 593C376.899 593 370 599.899 370 608.41C370 616.921 376.899 623.82 385.41 623.82Z" fill="#00C2CB"/>
<path d="M305 155.81C305 155.81 322.5 161.81 327.5 189.25C342.62 186.62 355.64 185 355.64 185C351.759 172.505 345.365 160.934 336.85 151C323.82 153.79 305 155.81 305 155.81Z" fill="#ED5267"/>
<path d="M73.33 517C73.33 517 40.27 485.68 31 458.66L42.5 451C42.5 451 50.15 462.5 57.81 474C65.47 485.5 83.21 504.26 83.21 504.26L73.33 517Z" fill="#ED5267"/>
<path d="M189.363 685.816C189.363 685.816 149.943 708.619 121.403 709.833L117.325 696.631C117.325 696.631 130.524 692.562 143.726 688.484C156.928 684.405 179.954 672.724 179.954 672.724L189.363 685.816Z" fill="#00C2CB"/>
<path d="M316.5 428.34C316.5 428.34 321.88 414.93 343.5 412.11C342 400.22 341.26 390 341.26 390C331.36 392.531 322.084 397.06 314 403.31C315.66 413.59 316.5 428.34 316.5 428.34Z" fill="#00C2CB"/>
<path d="M329.768 519.817L327.052 545.655L306.033 530.384L329.768 519.817Z" fill="#ED5267"/>
<path d="M274.943 129.821L252.557 143.007L252.331 117.028L274.943 129.821Z" fill="#00C2CB"/>
<path d="M137 0L149.99 22.5H124.01L137 0Z" fill="#ED5267"/>
<defs>
<clipPath id="clip0_119_816">
<rect width="20" height="20" fill="white" transform="translate(345 41)"/>
</clipPath>
<clipPath id="clip1_119_816">
<rect width="20" height="20" fill="white" transform="translate(0 528)"/>
</clipPath>
</defs>
</svg>
