<svg width="32" height="26" viewBox="0 0 32 26" fill="none" xmlns="http://www.w3.org/2000/svg">
<path d="M2.66666 21L2.66666 24.3333L29.3333 24.3333L29.3333 21" stroke="white" stroke-width="2" stroke-miterlimit="10" stroke-linecap="round" stroke-linejoin="round"/>
<path d="M2.66667 21L29.3333 21L31 9.33333H30.9167C25.5833 12 19.1667 9.5 17.0833 3.91667L16 1L14.9167 3.91667C12.8333 9.5 6.33333 12 1.08333 9.33333H1L2.66667 21Z" stroke="white" stroke-width="2" stroke-miterlimit="10" stroke-linecap="round" stroke-linejoin="round"/>
<path d="M16 17.6668C16.9205 17.6668 17.6667 16.9206 17.6667 16.0002C17.6667 15.0797 16.9205 14.3335 16 14.3335C15.0795 14.3335 14.3333 15.0797 14.3333 16.0002C14.3333 16.9206 15.0795 17.6668 16 17.6668Z" stroke="white" stroke-width="2" stroke-miterlimit="10" stroke-linecap="round" stroke-linejoin="round"/>
</svg>
