<svg width="42" height="40" viewBox="0 0 42 40" fill="none" xmlns="http://www.w3.org/2000/svg">
<path d="M41.0309 8.20105C41.0309 9.33453 40.1128 10.2526 38.9794 10.2526H2.05155C0.918066 10.2526 0 9.33453 0 8.20105C0 7.06757 0.918066 6.14951 2.05155 6.14951H9.34992C10.2321 6.14951 11.0168 5.58533 11.2938 4.74933L11.94 2.80549C12.499 1.12835 14.0633 0 15.8328 0H25.1827C26.9522 0 28.5165 1.12835 29.0755 2.80549L29.7218 4.75446C29.9987 5.59046 30.7834 6.15464 31.6656 6.15464H38.964C40.0975 6.15464 41.0155 7.0727 41.0155 8.20618L41.0309 8.20105ZM35.4917 14.4172L34.2403 33.2914C33.9736 37.0663 30.8142 40 27.0599 40H13.971C10.2167 40 7.05731 37.0663 6.79061 33.312L5.53917 14.4172C5.51866 14.1505 5.62123 13.8633 5.80587 13.6582C6.01103 13.453 6.27773 13.3299 6.56494 13.3299H34.466C34.7532 13.3299 35.0199 13.453 35.225 13.6582C35.4097 13.8633 35.5122 14.1505 35.4917 14.4172ZM18.4639 20.5103C18.4639 19.382 17.5407 18.4588 16.4124 18.4588C15.284 18.4588 14.3608 19.382 14.3608 20.5103V30.768C14.3608 31.8964 15.284 32.8196 16.4124 32.8196C17.5407 32.8196 18.4639 31.8964 18.4639 30.768V20.5103ZM26.6701 20.5103C26.6701 19.382 25.7469 18.4588 24.6185 18.4588C23.4902 18.4588 22.567 19.382 22.567 20.5103V30.768C22.567 31.8964 23.4902 32.8196 24.6185 32.8196C25.7469 32.8196 26.6701 31.8964 26.6701 30.768V20.5103Z" fill="white"/>
</svg>
