<svg width="71" height="82" viewBox="0 0 71 82" fill="none" xmlns="http://www.w3.org/2000/svg">
<path d="M56.5703 27.5C64.1642 27.5 70.3203 21.3439 70.3203 13.75C70.3203 6.15608 64.1642 0 56.5703 0C48.9764 0 42.8203 6.15608 42.8203 13.75C42.8203 21.3439 48.9764 27.5 56.5703 27.5Z" fill="black"/>
<path d="M56.22 29.9805C47.26 29.9805 39.97 22.6905 39.97 13.7305C39.97 10.9305 40.68 8.28047 41.94 5.98047H18C8.07 5.98047 0 14.0505 0 23.9805V75.9705C0 78.2105 1.23 80.2405 3.21 81.2805C5.2 82.3205 7.57 82.1805 9.41 80.9005L28.85 67.4305C29.53 66.9505 30.45 66.9505 31.13 67.4305L50.58 80.9005C51.61 81.6105 52.8 81.9705 53.99 81.9705C54.94 81.9705 55.9 81.7405 56.78 81.2805C58.76 80.2405 59.99 78.2105 59.99 75.9705V29.5205C58.78 29.8105 57.51 29.9805 56.21 29.9805H56.22Z" fill="black"/>
<path d="M56.5106 9.52969L60.8006 13.8197L54.9106 19.7097C54.6306 19.9897 54.2806 20.1597 53.9006 20.2297L50.3706 20.8197C50.3706 20.8197 50.2906 20.8197 50.2406 20.8197C50.0506 20.8197 49.8506 20.7397 49.7106 20.5997C49.5406 20.4297 49.4606 20.1797 49.4906 19.9397L50.0806 16.4097C50.1506 16.0297 50.3306 15.6797 50.6006 15.3997L56.4906 9.50969L56.5106 9.52969ZM62.7606 7.56969C62.1906 6.98969 61.4306 6.67969 60.6106 6.67969C59.7906 6.67969 59.0406 6.98969 58.4606 7.56969L57.5606 8.46969L61.8506 12.7597L62.7506 11.8597C63.3306 11.2897 63.6406 10.5297 63.6406 9.70969C63.6406 8.88969 63.3306 8.13969 62.7506 7.55969L62.7606 7.56969Z" fill="#FFD600"/>
</svg>
