<svg width="27" height="27" viewBox="0 0 27 27" fill="none" xmlns="http://www.w3.org/2000/svg">
<path d="M27 13.5C27 6.075 20.925 0 13.5 0C6.075 0 0 6.075 0 13.5C0 20.25 4.9275 25.8525 11.4075 26.865V17.415H7.965V13.5H11.4075V10.53C11.4075 7.155 13.4325 5.265 16.5375 5.265C18.0225 5.265 19.575 5.535 19.575 5.535V8.8425H17.8875C16.2 8.8425 15.66 9.855 15.66 10.935V13.5H19.3725L18.765 17.415H15.5925V26.865C22.0725 25.8525 27 20.25 27 13.5Z" fill="black"/>
<path d="M18.7651 17.415L19.3726 13.5H15.6601V10.935C15.6601 9.85502 16.2001 8.84251 17.8876 8.84251H19.5751V5.53501C19.5751 5.53501 18.0226 5.26501 16.5376 5.26501C13.4326 5.26501 11.4076 7.15501 11.4076 10.53V13.5H7.96509V17.415H11.4076V26.865C12.0826 27 12.8251 27 13.5001 27C14.1751 27 14.9176 26.9325 15.5926 26.865V17.415H18.7651Z" fill="white"/>
</svg>
