<svg width="38" height="38" viewBox="0 0 38 38" fill="none" xmlns="http://www.w3.org/2000/svg">
<path d="M31.662 19.2192V3.11419C31.662 2.53413 32.1334 2.06356 32.7156 2.06356H36.8187C37.4004 2.06356 37.8724 2.53367 37.8724 3.11419V19.2192C37.8724 19.7993 37.4009 20.2699 36.8187 20.2699H32.7156C32.1339 20.2699 31.662 19.7997 31.662 19.2192ZM5.0861 2.71031C4.72765 3.77567 5.47731 4.80193 4.95647 5.65937C4.34152 6.67182 3.29614 6.76612 3.10423 8.26158C2.97275 9.28554 3.70719 10.1296 3.32059 10.9944C2.87679 11.9871 1.97997 12.23 1.88724 13.6385C1.77283 15.3796 2.71348 15.0364 1.8591 16.4822C1.33826 17.364 0.845556 18.1966 1.0407 19.2818C1.89139 24.0147 10.3771 21.5146 13.4519 21.7276C16.9709 21.9714 14.2417 24.4844 13.1622 26.369C12.0577 28.2959 11.3187 30.9906 11.5055 33.1599C11.6744 35.1177 12.6099 37.7332 14.655 37.9734C17.6403 38.3239 17.1217 35.1343 17.9761 33.1066C20.0872 28.0972 23.7155 25.3579 27.6396 21.8191C29.2234 20.3908 30.4902 19.1047 30.4902 17.2983C30.4902 14.0258 30.5294 9.2699 30.5294 6.15709C30.5294 2.72549 29.3931 1.86806 25.7768 1.5755C20.954 1.18496 16.1045 0 11.2721 0C9.03048 0 5.94695 0.15502 5.08656 2.71031H5.0861Z" fill="white"/>
</svg>
