<svg width="25" height="25" viewBox="0 0 25 25" fill="none" xmlns="http://www.w3.org/2000/svg">
<path d="M14.6074 12.3643L24.593 2.3788C25.1357 1.8361 25.1357 0.949711 24.593 0.407019C24.0503 -0.135673 23.1638 -0.135673 22.6212 0.407019L12.4909 10.5373L2.37874 0.407019C1.83605 -0.135673 0.949711 -0.135673 0.407019 0.407019C-0.135673 0.949711 -0.135673 1.8361 0.407019 2.3788L10.3925 12.3643L0.407019 22.3499C-0.135673 22.8926 -0.135673 23.779 0.407019 24.3216C0.949711 24.8643 1.83605 24.8643 2.37874 24.3216L12.4909 14.2095L22.6212 24.3216C23.1638 24.8643 24.0322 24.8643 24.593 24.3216C25.1357 23.779 25.1357 22.8926 24.593 22.3499L14.6074 12.3643Z" fill="#CCCCCC"/>
</svg>
