<svg width="31" height="25" viewBox="0 0 31 25" fill="none" xmlns="http://www.w3.org/2000/svg">
<path d="M9.67028 25C21.2721 25 27.6206 15.3789 27.6206 7.0497C27.6206 6.77904 27.6206 6.50837 27.6083 6.2377C28.8386 5.35187 29.909 4.23228 30.7579 2.96506C29.626 3.46949 28.408 3.80167 27.1284 3.96161C28.4326 3.18652 29.4291 1.9439 29.909 0.46752C28.6909 1.19341 27.3376 1.71014 25.8981 1.99311C24.7539 0.762795 23.1053 0 21.2968 0C17.815 0 14.9852 2.82972 14.9852 6.31152C14.9852 6.80364 15.0468 7.28346 15.1452 7.75098C9.90404 7.48032 5.25345 4.97047 2.14075 1.1565C1.59941 2.09154 1.29183 3.17421 1.29183 4.33071C1.29183 6.52067 2.41142 8.45226 4.09695 9.58415C3.06348 9.54724 2.09154 9.26427 1.23032 8.79675C1.23032 8.82136 1.23032 8.84596 1.23032 8.88287C1.23032 11.9341 3.40797 14.4931 6.28691 15.0714C5.75787 15.219 5.20423 15.2928 4.62598 15.2928C4.21998 15.2928 3.82628 15.2559 3.44488 15.1821C4.24459 17.6919 6.58219 19.5128 9.33809 19.562C7.17274 21.2598 4.45374 22.2687 1.50098 22.2687C0.996555 22.2687 0.492126 22.2441 0 22.1826C2.79282 23.9542 6.11467 25 9.67028 25Z" fill="black"/>
</svg>
