<svg width="27" height="27" viewBox="0 0 27 27" fill="none" xmlns="http://www.w3.org/2000/svg">
<path d="M6 0C2.66667 0 0 2.66667 0 6C0 9.33333 2.66667 12 6 12C9.33333 12 12 9.33333 12 6C12 2.66667 9.33333 0 6 0ZM6 9.81818C3.87879 9.81818 2.18182 8.12121 2.18182 6C2.18182 3.87879 3.87879 2.18182 6 2.18182C8.12121 2.18182 9.81818 3.87879 9.81818 6C9.81818 8.12121 8.12121 9.81818 6 9.81818Z" fill="black"/>
<path d="M24.407 2.41206C24.4673 2.41206 24.5879 2.47236 24.5879 2.59296L24.5879 9.40703C24.5879 9.46734 24.5276 9.58794 24.407 9.58794L17.593 9.58794C17.5327 9.58794 17.4121 9.52764 17.4121 9.40703L17.4121 2.59296C17.4121 2.53266 17.4724 2.41206 17.593 2.41206L24.407 2.41206ZM24.407 0L17.593 0C16.1457 0 15 1.14573 15 2.59296L15 9.40703C15 10.8543 16.1457 12 17.593 12L24.407 12C25.8543 12 27 10.8543 27 9.40703L27 2.59296C27 1.14573 25.8543 0 24.407 0Z" fill="black"/>
<path d="M5.9697 18.4975L8.99952 24.5276L2.93988 24.5276L5.9697 18.4975ZM5.9697 15C5.42433 15 4.87897 15.3015 4.57598 15.8442L0.152442 24.7688C-0.332329 25.794 0.394828 27 1.54616 27L10.4538 27C11.6052 27 12.3323 25.794 11.8476 24.7688L7.36342 15.9045C7.06044 15.3015 6.51507 15 5.9697 15Z" fill="black"/>
<path d="M23.4714 14C23.6571 14 23.8429 14 24.0905 14C25.3905 14.13 26.8143 15.365 27 17.705V18.485C26.8143 20.76 25.2048 23.49 20.5 27C15.7952 23.555 14.1857 20.76 14 18.485L14 17.77C14.1857 15.43 15.6714 14.195 16.9095 14.065C17.0952 14.065 17.3429 14.065 17.5286 14.065C19.0143 14.065 19.6952 14.715 20.5 15.755C21.3048 14.715 21.9857 14 23.4714 14ZM22.7905 16.6C22.1095 16.6 21.8619 16.795 21.3048 17.51L20.4381 18.55L19.5714 17.51C19.0143 16.86 18.7667 16.6 18.0857 16.6C17.9619 16.6 17.8381 16.6 17.7143 16.6C17.281 16.665 16.5381 17.185 16.4762 18.355V18.875C16.6 20.37 17.9 22.125 20.3762 24.075C22.8524 22.125 24.1524 20.435 24.2762 18.875V18.42C24.1524 17.185 23.4714 16.73 23.0381 16.665C23.0381 16.665 22.9143 16.6 22.7905 16.6Z" fill="black"/>
</svg>
