<svg width="25" height="32" viewBox="0 0 25 32" fill="none" xmlns="http://www.w3.org/2000/svg">
<path d="M23.1431 28.5987H22.3004V26.1974C22.3004 25.4908 22.2565 24.4074 21.8772 23.1607C21.492 21.8955 20.8379 20.6686 19.8776 19.4094C18.7613 17.9456 17.8549 17.3536 17.1268 16.8785C16.8447 16.6939 16.6007 16.5349 16.3853 16.349C16.3276 16.299 16.2145 16.1407 16.2145 16C16.2145 15.8593 16.3276 15.701 16.3853 15.651C16.6006 15.4651 16.8447 15.3061 17.1268 15.1215C17.8549 14.6463 18.7613 14.0544 19.8776 12.5906C20.838 11.3314 21.492 10.1046 21.8772 8.83932C22.2564 7.5925 22.3004 6.50918 22.3004 5.80257V3.40129H23.1431C23.8066 3.40129 24.3447 2.86364 24.3447 2.20064C24.3447 1.86914 24.2102 1.56882 23.9927 1.35175C23.7754 1.13436 23.4749 1 23.1431 1H2.20159C1.86983 1 1.56927 1.13436 1.35203 1.35175C1.13446 1.56882 1 1.86914 1 2.20064C1 2.86364 1.53807 3.40129 2.20159 3.40129H3.04428V5.80257C3.04428 6.50918 3.08825 7.59261 3.46751 8.83932C3.85267 10.1045 4.50686 11.3314 5.46708 12.5906C6.58342 14.0544 7.48981 14.6464 8.21788 15.1215C8.49999 15.3061 8.74404 15.4651 8.95946 15.651C9.01715 15.701 9.13017 15.8593 9.13017 16C9.13017 16.1407 9.01715 16.299 8.95946 16.349C8.74415 16.5349 8.49999 16.6939 8.21788 16.8785C7.48981 17.3538 6.58342 17.9456 5.46708 19.4094C4.50675 20.6686 3.85267 21.8954 3.46751 23.1607C3.08835 24.4075 3.04428 25.4908 3.04428 26.1974V28.5987H2.20159C1.53807 28.5987 1 29.1364 1 29.7994C1 30.1309 1.13446 30.4312 1.35203 30.6483C1.56927 30.8656 1.86983 31 2.20159 31H23.1431C23.4749 31 23.7754 30.8656 23.9927 30.6483C24.2102 30.4312 24.3447 30.1309 24.3447 29.7994C24.3447 29.1364 23.8066 28.5987 23.1431 28.5987ZM4.76067 28.5987V26.1974C4.76067 24.6981 5.00686 22.8423 6.83208 20.4491C7.76956 19.2198 8.50643 18.7386 9.15687 18.3139C9.47672 18.1049 9.77889 17.9075 10.0809 17.6468C10.4511 17.3274 10.8465 16.7272 10.8465 15.9999C10.8465 15.2726 10.4511 14.6724 10.0809 14.353C9.77889 14.0923 9.47672 13.8949 9.15687 13.6859C8.50643 13.2612 7.76956 12.78 6.83208 11.5507C5.00697 9.15754 4.76067 7.30171 4.76067 5.80236V3.40129H20.5839V5.80257C20.5839 7.30193 20.3377 9.15775 18.5125 11.5509C17.575 12.7802 16.8382 13.2614 16.1877 13.6861C15.8679 13.8951 15.5657 14.0925 15.2637 14.3532C14.8935 14.6726 14.4981 15.2728 14.4981 16.0001C14.4981 16.7274 14.8935 17.3276 15.2637 17.647C15.5657 17.9077 15.8679 18.1051 16.1877 18.3141C16.8382 18.7388 17.575 19.22 18.5125 20.4493C20.3376 22.8425 20.5839 24.6983 20.5839 26.1976V28.5989L4.76067 28.5987Z" fill="black"/>
<path d="M17.76 9.81507C17.8375 9.81507 17.8866 9.89811 17.849 9.96582C17.6755 10.2781 17.1771 11.0511 16.043 12.0498C14.8721 13.081 14.2328 13.3805 13.6813 13.6923C13.5341 13.7756 13.333 13.8675 13.1492 13.9463C12.8448 14.0766 12.4999 14.0766 12.1955 13.9463C12.0116 13.8675 11.8106 13.7756 11.6634 13.6923C11.1119 13.3804 10.4728 13.081 9.30173 12.0498C8.16759 11.0511 7.6692 10.2781 7.4957 9.96582C7.45807 9.89811 7.50718 9.81507 7.5847 9.81507H17.76Z" fill="black"/>
<path d="M6.39148 26.9794C6.3072 26.9794 6.24533 26.9002 6.26613 26.8185C6.35845 26.4567 6.69064 25.5261 7.8146 24.4543C9.25273 23.0834 10.718 22.2704 11.512 21.9479C11.6193 21.9043 12.1458 21.7791 12.6724 21.7791C13.199 21.7791 13.7255 21.9043 13.8328 21.9479C14.6268 22.2704 16.0921 23.0834 17.5302 24.4543C18.6542 25.5261 18.9864 26.4567 19.0787 26.8185C19.0995 26.9002 19.0377 26.9794 18.9533 26.9794H6.39148Z" fill="black"/>
<path d="M12.6723 16C12.471 16 12.3077 16.1631 12.3077 16.3643V21.4081C12.3077 21.6093 12.4711 21.7724 12.6724 21.7724C12.8738 21.7724 13.037 21.6093 13.037 21.4081V16.3643C13.037 16.1631 12.8736 16 12.6723 16Z" fill="black"/>
<path d="M23.1431 28.5987H22.3004V26.1974C22.3004 25.4908 22.2565 24.4074 21.8772 23.1607C21.492 21.8955 20.8379 20.6686 19.8776 19.4094C18.7613 17.9456 17.8549 17.3536 17.1268 16.8785C16.8447 16.6939 16.6007 16.5349 16.3853 16.349C16.3276 16.299 16.2145 16.1407 16.2145 16C16.2145 15.8593 16.3276 15.701 16.3853 15.651C16.6006 15.4651 16.8447 15.3061 17.1268 15.1215C17.8549 14.6463 18.7613 14.0544 19.8776 12.5906C20.838 11.3314 21.492 10.1046 21.8772 8.83932C22.2564 7.5925 22.3004 6.50918 22.3004 5.80257V3.40129H23.1431C23.8066 3.40129 24.3447 2.86364 24.3447 2.20064C24.3447 1.86914 24.2102 1.56882 23.9927 1.35175C23.7754 1.13436 23.4749 1 23.1431 1H2.20159C1.86983 1 1.56927 1.13436 1.35203 1.35175C1.13446 1.56882 1 1.86914 1 2.20064C1 2.86364 1.53807 3.40129 2.20159 3.40129H3.04428V5.80257C3.04428 6.50918 3.08825 7.59261 3.46751 8.83932C3.85267 10.1045 4.50686 11.3314 5.46708 12.5906C6.58342 14.0544 7.48981 14.6464 8.21788 15.1215C8.49999 15.3061 8.74404 15.4651 8.95946 15.651C9.01715 15.701 9.13017 15.8593 9.13017 16C9.13017 16.1407 9.01715 16.299 8.95946 16.349C8.74415 16.5349 8.49999 16.6939 8.21788 16.8785C7.48981 17.3538 6.58342 17.9456 5.46708 19.4094C4.50675 20.6686 3.85267 21.8954 3.46751 23.1607C3.08835 24.4075 3.04428 25.4908 3.04428 26.1974V28.5987H2.20159C1.53807 28.5987 1 29.1364 1 29.7994C1 30.1309 1.13446 30.4312 1.35203 30.6483C1.56927 30.8656 1.86983 31 2.20159 31H23.1431C23.4749 31 23.7754 30.8656 23.9927 30.6483C24.2102 30.4312 24.3447 30.1309 24.3447 29.7994C24.3447 29.1364 23.8066 28.5987 23.1431 28.5987ZM4.76067 28.5987V26.1974C4.76067 24.6981 5.00686 22.8423 6.83208 20.4491C7.76956 19.2198 8.50643 18.7386 9.15687 18.3139C9.47672 18.1049 9.77889 17.9075 10.0809 17.6468C10.4511 17.3274 10.8465 16.7272 10.8465 15.9999C10.8465 15.2726 10.4511 14.6724 10.0809 14.353C9.77889 14.0923 9.47672 13.8949 9.15687 13.6859C8.50643 13.2612 7.76956 12.78 6.83208 11.5507C5.00697 9.15754 4.76067 7.30171 4.76067 5.80236V3.40129H20.5839V5.80257C20.5839 7.30193 20.3377 9.15775 18.5125 11.5509C17.575 12.7802 16.8382 13.2614 16.1877 13.6861C15.8679 13.8951 15.5657 14.0925 15.2637 14.3532C14.8935 14.6726 14.4981 15.2728 14.4981 16.0001C14.4981 16.7274 14.8935 17.3276 15.2637 17.647C15.5657 17.9077 15.8679 18.1051 16.1877 18.3141C16.8382 18.7388 17.575 19.22 18.5125 20.4493C20.3376 22.8425 20.5839 24.6983 20.5839 26.1976V28.5989L4.76067 28.5987Z" stroke="black"/>
<path d="M17.76 9.81507C17.8375 9.81507 17.8866 9.89811 17.849 9.96582C17.6755 10.2781 17.1771 11.0511 16.043 12.0498C14.8721 13.081 14.2328 13.3805 13.6813 13.6923C13.5341 13.7756 13.333 13.8675 13.1492 13.9463C12.8448 14.0766 12.4999 14.0766 12.1955 13.9463C12.0116 13.8675 11.8106 13.7756 11.6634 13.6923C11.1119 13.3804 10.4728 13.081 9.30173 12.0498C8.16759 11.0511 7.6692 10.2781 7.4957 9.96582C7.45807 9.89811 7.50718 9.81507 7.5847 9.81507H17.76Z" stroke="black"/>
<path d="M6.39148 26.9794C6.3072 26.9794 6.24533 26.9002 6.26613 26.8185C6.35845 26.4567 6.69064 25.5261 7.8146 24.4543C9.25273 23.0834 10.718 22.2704 11.512 21.9479C11.6193 21.9043 12.1458 21.7791 12.6724 21.7791C13.199 21.7791 13.7255 21.9043 13.8328 21.9479C14.6268 22.2704 16.0921 23.0834 17.5302 24.4543C18.6542 25.5261 18.9864 26.4567 19.0787 26.8185C19.0995 26.9002 19.0377 26.9794 18.9533 26.9794H6.39148Z" stroke="black"/>
<path d="M12.6723 16C12.471 16 12.3077 16.1631 12.3077 16.3643V21.4081C12.3077 21.6093 12.4711 21.7724 12.6724 21.7724C12.8738 21.7724 13.037 21.6093 13.037 21.4081V16.3643C13.037 16.1631 12.8736 16 12.6723 16Z" stroke="black"/>
</svg>
