<svg width="101" height="148" viewBox="0 0 101 148" fill="none" xmlns="http://www.w3.org/2000/svg">
<path d="M74.3097 33.0417C74.7987 33.0417 75.2877 32.7972 75.7767 32.5526C76.7547 32.0634 77.2437 31.085 77.2437 30.1066L77.4882 9.56088L80.4222 11.5176C81.4002 12.2514 82.6227 12.2514 83.6007 11.7622C84.0897 11.5176 84.3342 11.273 84.5787 10.7838C85.5567 9.31629 85.0677 7.60414 83.8452 6.62577L76.2657 1.48933C75.2877 0.755555 74.3097 0.755556 73.3317 1.24474H73.0872L65.2633 6.13659C63.7963 7.11496 63.5518 8.8271 64.2853 10.2947C65.0188 11.7622 66.9748 12.0068 68.1973 11.273C68.1973 11.273 68.1973 11.273 68.4418 11.273L71.3758 9.31629L71.1313 29.862C71.3758 31.5742 72.8427 33.0417 74.3097 33.0417Z" fill="white"/>
<path d="M100.226 111.8L100.471 78.7805C100.471 71.9319 95.3365 66.3063 88.9795 66.3063C86.7791 66.3063 84.8231 66.7954 83.1116 67.7738C81.8891 62.3928 77.4881 58.4793 72.1091 58.4793C69.9086 58.4793 67.7082 59.2131 65.9967 60.436C64.5297 55.7888 60.3732 52.3645 55.2387 52.3645C53.2827 52.3645 51.3267 52.8537 49.6153 53.832L49.8597 22.035C49.8597 15.1865 44.9698 9.80542 38.3683 9.80542C35.4343 9.80542 32.5003 11.0284 30.2999 12.9851C28.0994 15.1865 26.6324 18.3662 26.6324 21.7904L26.1434 71.9319C23.6984 68.263 21.4979 65.5725 21.2534 65.3279C17.0969 60.1914 11.4734 58.9685 5.84997 62.1482C0.226503 65.3279 -1.72949 72.4211 1.6935 78.2913L2.42699 79.2696C2.42699 79.2696 11.7179 87.0966 13.6739 101.772L14.4074 107.642C15.1409 112.779 15.6299 116.448 16.6079 120.606L18.3194 125.008C20.0309 129.9 24.4319 139.195 37.1458 144.087C42.2803 146.043 48.6373 147.511 56.7057 147.511H62.5737C72.8426 147.511 81.8891 144.576 88.7351 138.95C96.07 132.835 99.982 123.296 100.226 111.8ZM84.5786 134.792C78.9551 139.439 71.1311 142.13 62.5737 142.13H56.7057C40.3243 141.885 28.5884 135.526 24.4319 124.764L22.2314 119.383C21.2534 115.714 21.0089 112.29 20.2754 107.398L19.5419 101.283C17.5859 86.3628 9.02846 77.5575 6.82797 75.6008C5.36098 72.6657 6.33897 69.486 8.78396 68.0184C10.7399 66.7954 13.4294 66.0617 16.6079 69.9751C16.6079 69.9751 22.9649 77.5575 25.8989 85.3845V90.7655C25.8989 91.9885 26.6324 93.2114 27.8549 93.456C28.0994 93.7006 28.5884 93.7006 28.8329 93.7006C30.5443 93.7006 31.7668 92.4776 31.7668 90.7655L32.2558 22.5242C32.2558 20.8121 32.9893 19.0999 33.9673 17.877C34.9453 16.8986 36.1678 16.4094 37.6348 16.4094C40.8133 16.4094 43.0138 19.0999 43.0138 22.5242L42.7693 64.8387V75.6008V85.1399C42.7693 86.852 43.9918 88.075 45.7033 88.075C47.4148 88.075 48.6373 86.852 48.6373 85.1399V79.5142V74.1332V65.0833C48.6373 61.659 51.0822 58.9685 54.2607 58.9685C57.4392 58.9685 59.6397 61.659 59.6397 65.0833V71.1981V78.5359V85.3845C59.6397 87.0966 60.8622 88.3196 62.5737 88.3196C64.2852 88.3196 65.5077 87.0966 65.5077 85.3845V71.1981C65.5077 67.7738 67.9527 65.0833 71.1311 65.0833C74.3096 65.0833 76.5101 67.7738 76.5101 71.1981V78.5359V86.6074C76.5101 88.3196 77.7326 89.5425 79.4441 89.5425C81.1556 89.5425 82.3781 88.3196 82.3781 86.6074V79.5142V78.2913C82.3781 74.867 84.8231 72.6657 88.0016 72.6657C91.18 72.6657 93.625 75.6008 93.625 79.0251L93.3805 112.045C94.114 121.584 90.9355 129.411 84.5786 134.792Z" fill="white"/>
</svg>
