<svg width="25" height="25" viewBox="0 0 25 25" fill="none" xmlns="http://www.w3.org/2000/svg">
<g clip-path="url(#clip0_1184_14679)">
<path d="M12.4896 9.12012C10.6196 9.12012 9.09961 10.6401 9.09961 12.5101C9.09961 14.3801 10.6196 15.9001 12.4896 15.9001C14.3596 15.9001 15.8796 14.3801 15.8796 12.5101C15.8796 10.6401 14.3596 9.12012 12.4896 9.12012Z" fill="white"/>
<path d="M24.08 9.51L22.04 9.25C21.9 8.84 21.74 8.45 21.55 8.06L22.81 6.43C23.13 6 23.09 5.4 22.71 5.03L19.97 2.29C19.59 1.91 18.99 1.87 18.57 2.19L16.94 3.45C16.56 3.26 16.16 3.09 15.75 2.96L15.49 0.92C15.42 0.39 14.97 0 14.43 0L10.57 0C10.03 0 9.59 0.4 9.51 0.92L9.25 2.96C8.84 3.1 8.45 3.26 8.06 3.45L6.43 2.19C6 1.87 5.4 1.91 5.03 2.29L2.29 5.03C1.91 5.41 1.87 6.01 2.19 6.43L3.45 8.06C3.26 8.44 3.09 8.84 2.96 9.25L0.92 9.51C0.39 9.58 0 10.03 0 10.57L0 14.43C0 14.97 0.4 15.41 0.92 15.49L2.96 15.75C3.1 16.16 3.26 16.55 3.45 16.94L2.19 18.57C1.87 19 1.91 19.6 2.29 19.97L5.03 22.71C5.41 23.09 6.01 23.13 6.43 22.81L8.06 21.55C8.44 21.74 8.84 21.91 9.25 22.04L9.51 24.08C9.58 24.61 10.03 25 10.57 25H14.43C14.96 25 15.41 24.6 15.49 24.08L15.75 22.04C16.16 21.9 16.55 21.74 16.94 21.55L18.57 22.81C19 23.13 19.6 23.09 19.97 22.71L22.71 19.97C23.09 19.59 23.13 18.99 22.81 18.57L21.55 16.94C21.74 16.56 21.91 16.16 22.04 15.75L24.08 15.49C24.61 15.42 25 14.97 25 14.43V10.57C25 10.03 24.6 9.59 24.08 9.51ZM12.49 18.03C9.44 18.03 6.97 15.56 6.97 12.51C6.97 9.46 9.44 6.99 12.49 6.99C15.54 6.99 18.01 9.46 18.01 12.51C18.01 15.56 15.54 18.03 12.49 18.03Z" fill="white"/>
</g>
<defs>
<clipPath id="clip0_1184_14679">
<rect width="25" height="25" fill="white"/>
</clipPath>
</defs>
</svg>
