<svg width="102" height="108" viewBox="0 0 102 108" fill="none" xmlns="http://www.w3.org/2000/svg">
<path d="M82.0942 104.676C92.8855 104.676 101.634 95.9275 101.634 85.1362C101.634 74.3448 92.8855 65.5967 82.0942 65.5967C71.3028 65.5967 62.5547 74.3448 62.5547 85.1362C62.5547 95.9275 71.3028 104.676 82.0942 104.676Z" fill="#292929"/>
<path d="M42.631 56.8421C58.3275 56.8421 71.0521 44.1176 71.0521 28.4211C71.0521 12.7245 58.3275 0 42.631 0C26.9345 0 14.21 12.7245 14.21 28.4211C14.21 44.1176 26.9345 56.8421 42.631 56.8421Z" fill="#292929"/>
<path d="M59.0305 85.1357C59.0305 76.382 63.9332 68.7509 71.1379 64.8431C69.5321 64.0473 67.841 63.3794 66.0505 62.9246C62.8816 62.1146 59.4142 62.5694 56.5579 64.1609C47.9321 68.9641 37.3737 68.9641 28.7479 64.1609C25.8916 62.5694 22.4242 62.1288 19.2553 62.9246C7.90105 65.7952 0 76.0694 0 87.9209V93.662C0 97.2857 0.966316 100.838 2.79947 103.922C4.29158 106.437 7.09105 108 10.1037 108H75.1453C75.8984 108 76.6516 107.901 77.3621 107.716C66.9032 105.528 59.0163 96.2483 59.0163 85.1357H59.0305Z" fill="#292929"/>
<path d="M81.9948 79.1379L88.0912 85.2342L79.7211 93.6042C79.3233 94.0021 78.8259 94.2437 78.2859 94.3432L73.2696 95.1816C73.2696 95.1816 73.1559 95.1816 73.0848 95.1816C72.8148 95.1816 72.5306 95.0679 72.3317 94.8689C72.0901 94.6274 71.9764 94.2721 72.019 93.931L72.8575 88.9147C72.9569 88.3747 73.2127 87.8774 73.5964 87.4795L81.9664 79.1095L81.9948 79.1379ZM90.8764 76.3526C90.0664 75.5284 88.9864 75.0879 87.8212 75.0879C86.6559 75.0879 85.5901 75.5284 84.7659 76.3526L83.4869 77.6316L89.5833 83.7279L90.8622 82.4489C91.6864 81.6389 92.1269 80.5589 92.1269 79.3937C92.1269 78.2284 91.6864 77.1626 90.8622 76.3384L90.8764 76.3526Z" fill="#FFD600"/>
</svg>
