<svg width="35" height="35" viewBox="0 0 35 35" fill="none" xmlns="http://www.w3.org/2000/svg">
<path d="M1.36377 12.7116L4.67131 12.2305L6.15039 9.23048C6.42027 8.68316 6.96709 8.34285 7.57697 8.34285C8.18685 8.34285 8.73367 8.68316 9.00356 9.23048L10.4826 12.2305L10.9421 12.2972L13.6903 11.8977L15.8505 7.51638C16.1768 6.85497 16.8372 6.44409 17.574 6.44409C18.3108 6.44409 18.9712 6.85497 19.2975 7.51638L21.4578 11.8977L24.1323 12.2866L24.5178 12.2305L25.9968 9.23048C26.2667 8.68316 26.8135 8.34285 27.4234 8.34285C28.0333 8.34285 28.5801 8.68316 28.85 9.23048L30.3291 12.2305L33.6366 12.7116C34.2402 12.7994 34.7326 13.2146 34.921 13.7953C35.1094 14.3759 34.9551 15.0016 34.5183 15.4278L32.125 17.7629L32.6899 21.0602C32.7929 21.662 32.5504 22.2587 32.0569 22.6174C31.778 22.8201 31.4517 22.9232 31.1235 22.9232C30.8708 22.9232 30.6166 22.8621 30.3816 22.7386L27.4234 21.1817L24.4653 22.7386C24.4602 22.7413 24.4551 22.7433 24.45 22.746L24.6831 24.1073C24.8076 24.8341 24.5146 25.5551 23.9185 25.9888C23.3223 26.4224 22.5467 26.4785 21.8945 26.135L17.574 23.8614L13.2535 26.135C12.9699 26.2844 12.6629 26.3581 12.3573 26.3581C11.9605 26.3581 11.5665 26.2338 11.2292 25.9888C10.633 25.5551 10.34 24.8341 10.4646 24.1073L10.6871 22.8084C10.6358 22.7876 10.5849 22.7648 10.5347 22.7386L7.57658 21.1817L4.61843 22.7386C4.07827 23.0228 3.43666 22.9762 2.94312 22.6174C2.44957 22.2587 2.2071 21.6616 2.31012 21.0602L2.87496 17.7629L0.481651 15.4278C0.0449028 15.0016 -0.109428 14.3759 0.0789795 13.7953C0.267391 13.2146 0.759762 12.7994 1.36338 12.7116H1.36377ZM24.1719 21.1213L27.0595 19.6021C27.1735 19.5421 27.2989 19.5119 27.4242 19.5119C27.5496 19.5119 27.6745 19.5421 27.7889 19.6021L31.1117 21.3507C31.1195 21.355 31.1231 21.3554 31.1231 21.3554C31.1301 21.3554 31.1454 21.3444 31.1473 21.3377C31.1473 21.3377 31.1481 21.3342 31.1466 21.3256L30.512 17.6222C30.4685 17.3677 30.5527 17.1082 30.7372 16.9282L33.4255 14.3053C33.4318 14.2991 33.4333 14.2959 33.4333 14.2959C33.4357 14.2893 33.4298 14.2712 33.4239 14.2673C33.4239 14.2673 33.4208 14.2653 33.4122 14.2642L29.6973 13.7239C29.4423 13.6867 29.2213 13.5263 29.1074 13.295L27.4457 9.9256C27.4418 9.91776 27.4391 9.91502 27.4391 9.91502C27.4336 9.9107 27.4144 9.9107 27.4089 9.91502C27.4089 9.91502 27.4062 9.91737 27.4023 9.9256L26.0967 12.5732L26.2887 12.601C27.018 12.7073 27.6126 13.2087 27.8402 13.9105C28.0678 14.6119 27.8817 15.3678 27.3537 15.8826L24.0881 19.0685L23.9541 19.8514L24.1719 21.1225V21.1213ZM12.9041 19.1504L12.0095 24.3719C11.977 24.5613 12.0839 24.671 12.1509 24.7197C12.2179 24.7683 12.355 24.8361 12.525 24.7467L17.2101 22.2814C17.3241 22.2214 17.4495 22.1913 17.5748 22.1913C17.7002 22.1913 17.8251 22.2214 17.9395 22.2814L22.6247 24.7467C22.7947 24.8361 22.9321 24.7683 22.9987 24.7197C23.0653 24.671 23.1727 24.5617 23.1401 24.3719L22.2455 19.1504C22.202 18.896 22.2862 18.6364 22.4707 18.4565L26.2612 14.7585C26.3987 14.6245 26.3764 14.4727 26.3509 14.3943C26.3255 14.3159 26.2542 14.1799 26.0642 14.1524L20.826 13.3906C20.571 13.3534 20.35 13.193 20.2361 12.9617L17.8937 8.21072C17.8087 8.03822 17.6575 8.01273 17.5752 8.01273C17.4926 8.01273 17.3418 8.03861 17.2568 8.21072L14.9144 12.9617C14.8004 13.193 14.5798 13.3534 14.3245 13.3906L9.0862 14.1524C8.89623 14.1803 8.82494 14.3159 8.79948 14.3943C8.77402 14.4727 8.75169 14.6245 8.88918 14.7589L12.6793 18.4569C12.8638 18.6368 12.948 18.8964 12.9045 19.1508L12.9041 19.1504ZM1.56784 14.2951C1.56784 14.2951 1.56941 14.2983 1.57568 14.3045L4.26394 16.9274C4.44843 17.1078 4.53304 17.3669 4.48917 17.6214L3.85461 21.3248C3.85304 21.3334 3.85383 21.337 3.85383 21.337C3.85618 21.3436 3.87145 21.3546 3.87811 21.3546C3.87811 21.3546 3.88164 21.3542 3.88947 21.3499L7.2123 19.6013C7.32628 19.5413 7.45163 19.5111 7.57697 19.5111C7.70232 19.5111 7.82727 19.5413 7.94165 19.6013L10.9644 21.1919L11.1207 20.2807L10.883 18.8936L7.79476 15.8806C7.26713 15.3659 7.08068 14.61 7.30826 13.9086C7.53584 13.2072 8.13045 12.7053 8.8598 12.5991L8.91386 12.5912L7.59851 9.92364C7.5946 9.9158 7.59186 9.91306 7.59186 9.91306C7.58637 9.90874 7.56718 9.90874 7.5617 9.91306C7.5617 9.91306 7.55895 9.91541 7.55504 9.92364L5.89343 13.293C5.77944 13.5243 5.55891 13.6847 5.30352 13.7219L1.5886 14.2622C1.57999 14.2634 1.57685 14.2653 1.57685 14.2653C1.57137 14.2696 1.56549 14.2877 1.56746 14.294L1.56784 14.2951Z" fill="black"/>
<path d="M18.1582 0.784124V2.69229C18.1582 3.12552 17.8076 3.47641 17.3748 3.47641C16.942 3.47641 16.5914 3.12552 16.5914 2.69229V0.784124C16.5914 0.350895 16.942 0 17.3748 0C17.8076 0 18.1582 0.350895 18.1582 0.784124Z" fill="black"/>
<path d="M11.2798 5.54384L9.93191 4.19475C9.62599 3.88855 9.62599 3.3922 9.93191 3.08561C10.2378 2.77941 10.7337 2.77941 11.0397 3.08561L12.3875 4.43469C12.6934 4.74089 12.6934 5.23724 12.3875 5.54384C12.2343 5.69713 12.0342 5.77358 11.8336 5.77358C11.6331 5.77358 11.4325 5.69713 11.2798 5.54384Z" fill="black"/>
<path d="M24.8172 3.08561C25.1231 3.39181 25.1231 3.88816 24.8172 4.19436L23.4693 5.54344C23.3162 5.69674 23.116 5.77319 22.9155 5.77319C22.7149 5.77319 22.5144 5.69674 22.3616 5.54344C22.0557 5.23724 22.0557 4.74089 22.3616 4.43469L23.7095 3.08561C24.0154 2.77941 24.5113 2.77941 24.8172 3.08561Z" fill="black"/>
<path d="M16.5914 33.4968V31.5891C16.5914 31.1558 16.942 30.8049 17.3748 30.8049C17.8076 30.8049 18.1582 31.1558 18.1582 31.5891V33.4968C18.1582 33.9301 17.8076 34.281 17.3748 34.281C16.942 34.281 16.5914 33.9301 16.5914 33.4968Z" fill="black"/>
<path d="M23.7095 31.1953L22.3616 29.8462C22.0557 29.54 22.0557 29.0437 22.3616 28.7375C22.6675 28.4313 23.1634 28.4313 23.4693 28.7375L24.8172 30.0865C25.1231 30.3927 25.1231 30.8891 24.8172 31.1953C24.664 31.3486 24.4639 31.425 24.2633 31.425C24.0628 31.425 23.8622 31.3486 23.7095 31.1953Z" fill="black"/>
<path d="M10.4858 31.425C10.2852 31.425 10.0847 31.3486 9.93191 31.1953C9.62599 30.8891 9.62599 30.3927 9.93191 30.0865L11.2798 28.7375C11.5857 28.4313 12.0816 28.4313 12.3875 28.7375C12.6934 29.0437 12.6934 29.54 12.3875 29.8462L11.0397 31.1953C10.8865 31.3486 10.6863 31.425 10.4858 31.425Z" fill="black"/>
<path d="M14.4354 18.4137L13.8482 21.8411C13.8271 21.9653 13.8972 22.0375 13.9411 22.0692C13.9849 22.101 14.075 22.1457 14.1867 22.0869L17.2619 20.4688C17.3367 20.4292 17.419 20.4096 17.5013 20.4096C17.5835 20.4096 17.6658 20.4292 17.7406 20.4688L20.8155 22.0869C20.9271 22.1457 21.0172 22.101 21.0611 22.0692C21.1049 22.0375 21.175 21.9653 21.1539 21.8411L20.5667 18.4137C20.5381 18.2466 20.5934 18.0765 20.7148 17.9581L23.2025 15.5308C23.2926 15.4426 23.2781 15.343 23.2617 15.2917C23.2448 15.2403 23.1982 15.1509 23.0736 15.1329L19.6356 14.633C19.468 14.6087 19.3235 14.5032 19.2486 14.3515L17.7112 11.2334C17.6556 11.1201 17.5561 11.1033 17.502 11.1033C17.448 11.1033 17.3489 11.1201 17.2929 11.2334L15.7554 14.3515C15.6806 14.5032 15.5357 14.6087 15.3684 14.633L11.9304 15.1329C11.8055 15.1509 11.7589 15.2403 11.7424 15.2917C11.7256 15.343 11.7111 15.4426 11.8016 15.5308L14.2893 17.9581C14.4103 18.0765 14.4659 18.2466 14.4374 18.4137H14.4354Z" fill="black"/>
</svg>
