<svg width="38" height="38" viewBox="0 0 38 38" fill="none" xmlns="http://www.w3.org/2000/svg">
<path d="M17.1 33.25H27.93C26.809 36.043 24.092 38 20.9 38H7.6C3.401 38 0 34.599 0 30.4V15.2C0 11.324 2.907 8.132 6.65 7.657V22.8C6.65 28.557 11.343 33.25 17.1 33.25ZM33.25 8.075H37.278C37.164 7.904 37.031 7.752 36.879 7.6L30.4 1.121C30.248 0.969 30.096 0.836 29.925 0.741V4.75C29.925 6.574 31.426 8.075 33.25 8.075ZM33.25 10.925C29.849 10.925 27.075 8.151 27.075 4.75V0H17.1C12.901 0 9.5 3.401 9.5 7.6V22.8C9.5 26.999 12.901 30.4 17.1 30.4H30.4C34.599 30.4 38 26.999 38 22.8V10.925H33.25Z" fill="white"/>
</svg>
