<svg width="34" height="40" viewBox="0 0 34 40" fill="none" xmlns="http://www.w3.org/2000/svg">
<path d="M27.3187 13.3629C31.0087 13.3629 34.0001 10.3715 34.0001 6.68146C34.0001 2.99139 31.0087 0 27.3187 0C23.6286 0 20.6372 2.99139 20.6372 6.68146C20.6372 10.3715 23.6286 13.3629 27.3187 13.3629Z" fill="white"/>
<path d="M30.0932 7.38598H28.028C28.028 7.38598 28.0232 7.38598 28.0232 7.39084V9.45601C28.0232 9.82532 27.7559 10.1606 27.3866 10.1946C26.9687 10.2335 26.614 9.90307 26.614 9.49489V7.39084C26.614 7.39084 26.614 7.38598 26.6091 7.38598H24.544C24.1747 7.38598 23.8394 7.11872 23.8054 6.74942C23.7665 6.33152 24.0969 5.9768 24.5051 5.9768H26.6091C26.6091 5.9768 26.614 5.9768 26.614 5.97194V3.90676C26.614 3.53745 26.8813 3.20217 27.2506 3.16815C27.6685 3.12928 28.0232 3.45971 28.0232 3.86788V5.97194C28.0232 5.97194 28.0232 5.9768 28.028 5.9768H30.1321C30.5403 5.9768 30.8707 6.33152 30.8318 6.74942C30.7978 7.11872 30.4625 7.38598 30.0932 7.38598Z" fill="#495057"/>
<path d="M27.3187 14.5782C22.9648 14.5782 19.4224 11.0358 19.4224 6.68193C19.4224 5.32134 19.7674 4.03364 20.3797 2.91602H8.74664C3.92141 2.91602 0 6.83743 0 11.6627V36.9259C0 38.0143 0.597687 39.0008 1.55982 39.5061C2.52681 40.0115 3.67845 39.9435 4.57255 39.3215L14.0189 32.7761C14.3493 32.5428 14.7964 32.5428 15.1268 32.7761L24.5781 39.3215C25.0786 39.6665 25.6568 39.8414 26.2351 39.8414C26.6967 39.8414 27.1632 39.7297 27.5908 39.5061C28.5529 39.0008 29.1506 38.0143 29.1506 36.9259V14.3547C28.5626 14.4956 27.9455 14.5782 27.3138 14.5782H27.3187Z" fill="white"/>
</svg>
