<svg width="29" height="29" viewBox="0 0 29 29" fill="none" xmlns="http://www.w3.org/2000/svg">
<path d="M6.63048 0C2.94688 0 0 2.94688 0 6.63048C0 10.3141 2.94688 13.261 6.63048 13.261C10.3141 13.261 13.261 10.3141 13.261 6.63048C13.261 2.94688 10.3141 0 6.63048 0ZM6.63048 10.8499C4.28637 10.8499 2.41109 8.9746 2.41109 6.63048C2.41109 4.28637 4.28637 2.41109 6.63048 2.41109C8.9746 2.41109 10.8499 4.28637 10.8499 6.63048C10.8499 8.9746 8.9746 10.8499 6.63048 10.8499Z" fill="white"/>
<path d="M26.1199 2.67898C26.1869 2.67898 26.3208 2.74596 26.3208 2.87991L26.3208 10.448C26.3208 10.515 26.2539 10.649 26.1199 10.649L18.5518 10.649C18.4848 10.649 18.3509 10.582 18.3509 10.448L18.3509 2.87991C18.3509 2.81293 18.4178 2.67898 18.5518 2.67898L26.1199 2.67898ZM26.1199 0L18.5518 0C16.9444 0 15.6719 1.27252 15.6719 2.87991L15.6719 10.448C15.6719 12.0554 16.9444 13.3279 18.5518 13.3279L26.1199 13.3279C27.7273 13.3279 28.9998 12.0554 28.9998 10.448L28.9998 2.87991C28.9998 1.27252 27.7273 0 26.1199 0Z" fill="white"/>
<path d="M6.63027 19.4895L9.979 26.187L3.28155 26.187L6.63027 19.4895ZM6.63027 15.605C6.0275 15.605 5.42473 15.9399 5.08986 16.5426L0.200714 26.4549C-0.335082 27.5934 0.468613 28.9329 1.74113 28.9329L11.5864 28.9329C12.8589 28.9329 13.6626 27.5934 13.1268 26.4549L8.17069 16.6096C7.83582 15.9399 7.23305 15.605 6.63027 15.605Z" fill="white"/>
<path d="M25.1827 15.5381C25.3836 15.5381 25.5845 15.5381 25.8524 15.5381C27.2589 15.672 28.7993 16.9446 29.0002 19.3556V20.1593C28.7993 22.5034 27.0579 25.3164 21.9679 28.933C16.8778 25.3834 15.1365 22.5034 14.9355 20.1593L14.9355 19.4226C15.1365 17.0115 16.7439 15.739 18.0834 15.6051C18.2843 15.6051 18.5522 15.6051 18.7531 15.6051C20.3605 15.6051 21.0972 16.2748 21.9679 17.3464C22.8385 16.2748 23.5753 15.5381 25.1827 15.5381ZM24.4459 18.2171C23.7092 18.2171 23.4413 18.418 22.8385 19.1547L21.9009 20.2263L20.9633 19.1547C20.3605 18.485 20.0926 18.2171 19.3559 18.2171C19.2219 18.2171 19.088 18.2171 18.954 18.2171C18.4852 18.284 17.6815 18.8198 17.6145 20.0254V20.5612C17.7485 22.1016 19.1549 23.9099 21.8339 25.9191C24.5129 23.9099 25.9194 22.1686 26.0533 20.5612V20.0924C25.9194 18.8198 25.1827 18.351 24.7138 18.284C24.7138 18.284 24.5799 18.2171 24.4459 18.2171Z" fill="white"/>
</svg>
