<svg xmlns="http://www.w3.org/2000/svg" width="30" height="30" viewBox="0 0 30 30" fill="none">
<circle cx="15" cy="15" r="15" fill="#FFD600"/>
<path d="M16.007 16.0071L23.4168 16.0071C23.8195 16.0071 24.1483 15.6783 24.1483 15.2756C24.1483 14.8729 23.8195 14.544 23.4167 14.544L15.8997 14.544L15.9064 7.03358C15.9064 6.63088 15.5775 6.30203 15.1748 6.30203C14.7721 6.30203 14.4432 6.6309 14.4432 7.0336L14.4432 14.4433L7.03351 14.4433C6.63081 14.4433 6.30194 14.7722 6.30194 15.1749C6.30194 15.5776 6.63079 15.9064 7.03349 15.9064L14.5372 15.9065L14.5439 23.4168C14.5439 23.8195 14.8661 24.1417 15.2755 24.1484C15.6782 24.1484 16.0071 23.8196 16.0071 23.4169L16.007 16.0071Z" fill="black"/>
</svg>