<svg width="7" height="30" viewBox="0 0 7 30" fill="none" xmlns="http://www.w3.org/2000/svg">
<path d="M3.33333 29.9999C5.17428 29.9999 6.66667 28.5075 6.66667 26.6666C6.66667 24.8256 5.17428 23.3333 3.33333 23.3333C1.49238 23.3333 0 24.8256 0 26.6666C0 28.5075 1.49238 29.9999 3.33333 29.9999Z" fill="#1D1D1B"/>
<path d="M3.33333 18.3334C5.17428 18.3334 6.66667 16.841 6.66667 15.0001C6.66667 13.1591 5.17428 11.6667 3.33333 11.6667C1.49238 11.6667 0 13.1591 0 15.0001C0 16.841 1.49238 18.3334 3.33333 18.3334Z" fill="#1D1D1B"/>
<path d="M3.33333 6.66667C5.17428 6.66667 6.66667 5.17428 6.66667 3.33333C6.66667 1.49238 5.17428 0 3.33333 0C1.49238 0 0 1.49238 0 3.33333C0 5.17428 1.49238 6.66667 3.33333 6.66667Z" fill="#1D1D1B"/>
</svg>
