<svg width="101" height="140" viewBox="0 0 101 140" fill="none" xmlns="http://www.w3.org/2000/svg">
<path d="M96.4455 85.4762C94.5497 83.8096 92.417 82.8572 90.2843 82.6191C90.9952 80.9524 91.4692 79.2857 91.4692 77.381C91.4692 74.0476 90.0474 71.1905 87.6777 69.0476C85.782 67.381 83.6493 66.4286 81.5166 66.1905C83.6493 61.6667 82.7014 56.1905 78.9099 52.8572C77.4881 51.4286 75.5924 50.4762 73.4597 50.2381L95.2606 25.9524C99.763 20.9524 99.526 13.5715 94.7867 9.04764C90.0474 4.76193 82.7014 5.23812 77.9621 10.4762L48.1042 43.5714C36.2559 40.9524 29.6208 45.2381 21.5639 54.2857L14.4549 62.1429C9.47864 67.8572 7.10897 72.6191 4.97627 76.6667L1.65874 85C-2.13273 95.2381 -0.236998 111.429 16.3507 126.429L20.8531 130.476C27.9621 136.429 37.6777 139.762 47.3933 139.762C56.635 139.762 65.8767 136.667 72.5118 129.524L96.4455 102.619C101.422 97.381 101.185 89.7619 96.4455 85.4762ZM92.417 98.8095L68.4834 125.714C57.109 137.857 36.2559 135.714 24.8815 126.19L20.3791 122.143C5.92414 109.048 4.0284 95.4762 7.10897 86.9048L9.24168 81.4286L10.4265 79.2857C12.0853 75.4762 14.218 71.1905 18.9573 65.9524L26.0663 58.0953C32.7014 50.7143 36.9668 48.0953 43.6019 48.8095L31.7535 62.1429C30.5687 63.3334 30.8057 65.2381 31.9905 66.1905C33.1753 67.381 35.0711 67.1429 36.0189 65.9524L82.7014 13.8095C85.0711 11.1905 88.8625 10.7143 91.2322 12.8572C93.6019 15 93.6019 18.8095 91.2322 21.4286L62.3222 53.8096L53.7914 63.3334L48.5782 69.2857C47.3933 70.4762 47.6303 72.381 48.8151 73.3334C49.2891 73.8095 50 74.0476 50.7109 74.0476C51.4218 74.0476 52.3696 73.8095 52.8436 73.0953L56.635 68.8095L58.0568 67.1429L66.5876 57.6191C67.7725 56.1905 69.4312 55.4762 71.09 55.2381C72.5118 55.2381 73.9336 55.7143 75.1185 56.6667C77.4881 58.8095 77.4881 62.6191 75.1185 65.2381L71.09 70.2381L65.6398 76.1905L61.3744 80.9524C60.1895 82.1429 60.4265 84.0476 61.6113 85C62.0853 85.4762 62.7962 85.7143 63.5071 85.7143C64.218 85.7143 65.1658 85.4762 65.6398 84.7619L75.3554 73.8095C77.7251 71.1905 81.5166 70.7143 83.8862 72.8572C85.308 74.2857 85.782 75.9524 85.782 76.9048C85.782 78.5714 85.0711 80.2381 83.8862 81.4286L79.8578 85.9524L74.1706 92.1429C72.9857 93.3334 73.2227 95.2381 74.4075 96.1905C75.5924 97.381 77.4881 97.1429 78.436 95.9524L82.2275 91.6667L83.8862 89.7619C86.2559 87.1429 89.8104 86.9048 92.417 89.2857C95.0237 91.9048 95.0237 95.9524 92.417 98.8095Z" fill="white"/>
<path d="M7.1088 41.4286C7.58274 41.6667 8.05667 41.6667 8.29364 41.6667C9.47847 41.6667 10.4263 40.9524 10.9003 40C11.1372 39.762 23.6965 14.0477 59.2415 12.8572L57.1088 15.2381C55.924 16.4286 56.1609 18.3334 57.3458 19.2858C57.8197 19.762 58.5306 20 59.2415 20C59.9524 20 60.6633 19.762 61.3742 19.0477L68.0093 11.9048C68.2462 11.6667 68.2462 11.6667 68.2462 11.4286C68.2462 11.1905 68.4832 11.1905 68.4832 10.9524C68.4832 10.7143 68.4832 10.7143 68.4832 10.4762C68.4832 10.2381 68.4832 10 68.4832 10C68.7202 9.76195 68.7202 9.52386 68.7202 9.52386C68.7202 9.28576 68.7202 9.04767 68.4832 9.04767C68.4832 8.80957 68.2462 8.80957 68.2462 8.57147C68.2462 8.33338 68.0093 8.33338 68.0093 8.09528L61.3742 0.952427C60.1894 -0.238049 58.5306 -0.238049 57.3458 0.952427C56.1609 2.1429 56.1609 3.80957 57.3458 5.00005L59.2415 7.1429C20.142 8.33338 6.3979 36.1905 5.687 37.6191C5.21307 39.0477 5.687 40.7143 7.1088 41.4286Z" fill="white"/>
</svg>
