<svg width="65" height="65" viewBox="0 0 65 65" fill="none" xmlns="http://www.w3.org/2000/svg">
<circle cx="32.5" cy="32.5" r="32.5" fill="#FFD600"/>
<path d="M47.1994 24.0073C46.0932 22.9011 44.8197 22.0145 43.4147 21.3724C42.1933 20.8144 40.8993 20.4535 39.5605 20.2964V15.8799L40.6203 16.9397L42.7923 14.7677L38.0246 10L33.257 14.7677L35.429 16.9397L36.4887 15.8799V20.2964C35.1499 20.453 33.856 20.814 32.6345 21.3724C31.2296 22.0145 29.9561 22.9011 28.8498 24.0073C26.3992 26.4579 25.0493 29.7166 25.0493 33.1822C25.0493 36.6477 26.3988 39.9064 28.8498 42.357C31.3004 44.8076 34.5586 46.1575 38.0246 46.1575C41.4906 46.1575 44.7488 44.808 47.1994 42.357C49.65 39.9064 50.9999 36.6477 50.9999 33.1822C50.9999 29.7166 49.6505 26.4579 47.1994 24.0073ZM38.0246 43.0857C35.3795 43.0857 32.8922 42.0554 31.0218 40.185C29.1514 38.3146 28.1211 35.8273 28.1211 33.1822C28.1211 30.537 29.1514 28.0497 31.0218 26.1793C32.8922 24.309 35.3795 23.2786 38.0246 23.2786C40.6698 23.2786 43.1571 24.309 45.0274 26.1793C46.8978 28.0497 47.9281 30.537 47.9281 33.1822C47.9281 35.8273 46.8978 38.3146 45.0274 40.185C43.1571 42.0554 40.6698 43.0857 38.0246 43.0857Z" fill="black"/>
<path d="M34.1501 24.0534C31.6995 21.6028 28.4413 20.2529 24.9753 20.2529C21.5093 20.2529 18.2511 21.6024 15.8005 24.0534C13.3499 26.504 12 29.7622 12 33.2282C12 36.6942 13.3495 39.9524 15.8005 42.403C16.9067 43.5093 18.1803 44.3959 19.5852 45.038C20.8066 45.596 22.1006 45.9569 23.4394 46.1139V49.8607H20.3625V52.9324H23.4394V56.9731H26.5112V52.9324H29.5881V49.8607H26.5112V46.1139C27.85 45.9574 29.144 45.5964 30.3654 45.038C31.7703 44.3959 33.0439 43.5093 34.1501 42.403C36.6007 39.9524 37.9506 36.6938 37.9506 33.2282C37.9506 29.7627 36.6012 26.504 34.1501 24.0534ZM24.9753 23.3247C27.6205 23.3247 30.1077 24.355 31.9781 26.2254C33.8485 28.0958 34.8788 30.5831 34.8788 33.2282C34.8788 35.8734 33.8485 38.3607 31.9781 40.231C30.1077 42.1014 27.6205 43.1317 24.9753 43.1317C22.3302 43.1317 19.8429 42.1014 17.9725 40.231C16.1021 38.3607 15.0718 35.8734 15.0718 33.2282C15.0718 30.5831 16.1021 28.0958 17.9725 26.2254C19.8429 24.355 22.3302 23.3247 24.9753 23.3247Z" fill="black"/>
</svg>
