<svg width="73" height="85" viewBox="0 0 73 85" fill="none" xmlns="http://www.w3.org/2000/svg">
<path d="M58.2833 28.5093C66.1559 28.5093 72.5379 22.1272 72.5379 14.2546C72.5379 6.38201 66.1559 0 58.2833 0C50.4107 0 44.0287 6.38201 44.0287 14.2546C44.0287 22.1272 50.4107 28.5093 58.2833 28.5093Z" fill="black"/>
<path d="M64.2028 15.7578H59.7969C59.7969 15.7578 59.7865 15.7578 59.7865 15.7682V20.1742C59.7865 20.9621 59.2163 21.6774 58.4284 21.75C57.5369 21.8329 56.7801 21.128 56.7801 20.2571V15.7682C56.7801 15.7682 56.7801 15.7578 56.7697 15.7578H52.3637C51.5758 15.7578 50.8605 15.1877 50.7879 14.3998C50.705 13.5082 51.41 12.7514 52.2808 12.7514H56.7697C56.7697 12.7514 56.7801 12.7514 56.7801 12.741V8.33507C56.7801 7.54718 57.3503 6.83185 58.1381 6.75928C59.0297 6.67635 59.7865 7.38131 59.7865 8.25213V12.741C59.7865 12.741 59.7865 12.7514 59.7969 12.7514H64.2858C65.1566 12.7514 65.8616 13.5082 65.7786 14.3998C65.7061 15.1877 64.9907 15.7578 64.2028 15.7578Z" fill="#FFD600"/>
<path d="M58.2833 31.101C48.9944 31.101 41.4369 23.5435 41.4369 14.2546C41.4369 11.3519 42.173 8.60461 43.4792 6.2202H18.6606C8.36617 6.2202 0 14.5864 0 24.8808V78.7788C0 81.101 1.27514 83.2056 3.32781 84.2837C5.39084 85.3619 7.84782 85.2167 9.75535 83.8898L29.9088 69.9254C30.6138 69.4278 31.5675 69.4278 32.2725 69.9254L52.4363 83.8898C53.5041 84.6258 54.7378 84.999 55.9714 84.999C56.9563 84.999 57.9515 84.7606 58.8638 84.2837C60.9165 83.2056 62.1916 81.101 62.1916 78.7788V30.6241C60.9372 30.9248 59.6206 31.101 58.2729 31.101H58.2833Z" fill="black"/>
</svg>
