<svg width="98" height="96" viewBox="0 0 98 96" fill="none" xmlns="http://www.w3.org/2000/svg">
<path d="M94.1815 35.5931L84.9203 34.2461L80.7789 25.8459C80.0232 24.3135 78.4922 23.3606 76.7845 23.3606C75.0768 23.3606 73.5457 24.3135 72.79 25.8459L68.6486 34.2461L67.3621 34.4327L59.6672 33.3141L53.6185 21.0465C52.7049 19.1945 50.8557 18.0441 48.7927 18.0441C46.7297 18.0441 44.8805 19.1945 43.9669 21.0465L37.9182 33.3141L30.4295 34.4031L29.3503 34.2461L25.2089 25.8459C24.4532 24.3135 22.9221 23.3606 21.2144 23.3606C19.5068 23.3606 17.9757 24.3135 17.22 25.8459L13.0786 34.2461L3.81745 35.5931C2.12733 35.839 0.748687 37.0015 0.221141 38.6273C-0.306406 40.2531 0.125722 42.0052 1.34862 43.1984L8.04989 49.7368L6.46834 58.9691C6.17989 60.6541 6.85879 62.3249 8.24073 63.3294C9.02163 63.897 9.93524 64.1857 10.8543 64.1857C11.5617 64.1857 12.2735 64.0144 12.9316 63.6686L21.2144 59.3094L29.4972 63.6686C29.5115 63.6763 29.5257 63.6818 29.54 63.6895L28.8874 67.5009C28.5387 69.5362 29.359 71.555 31.0283 72.7692C32.6976 73.9833 34.8692 74.1403 36.6953 73.1786L48.7927 66.8126L60.8901 73.1786C61.6842 73.5969 62.544 73.8033 63.3995 73.8033C64.5105 73.8033 65.6139 73.4553 66.5582 72.7692C68.2275 71.555 69.0479 69.5362 68.6991 67.5009L68.0761 63.864C68.2198 63.8058 68.3624 63.7422 68.5028 63.6686L76.7856 59.3094L85.0684 63.6686C86.5808 64.4645 88.3773 64.3339 89.7593 63.3294C91.1412 62.3249 91.8201 60.653 91.5317 58.9691L89.9501 49.7368L96.6514 43.1984C97.8743 42.0052 98.3064 40.2531 97.7789 38.6273C97.2513 37.0015 95.8727 35.839 94.1826 35.5931H94.1815ZM30.3187 59.1403L22.2333 54.8864C21.9142 54.7185 21.5632 54.6339 21.2122 54.6339C20.8613 54.6339 20.5114 54.7185 20.1911 54.8864L10.8872 59.7825C10.8653 59.7946 10.8554 59.7957 10.8554 59.7957C10.8357 59.7957 10.7929 59.7649 10.7874 59.7463C10.7874 59.7463 10.7852 59.7364 10.7896 59.7122L12.5664 49.3427C12.6881 48.6302 12.4523 47.9035 11.9357 47.3996L4.40861 40.0555C4.39106 40.038 4.38667 40.0292 4.38667 40.0292C4.38009 40.0105 4.39655 39.96 4.413 39.949C4.413 39.949 4.42177 39.9435 4.4459 39.9403L14.8477 38.4275C15.5617 38.3232 16.1802 37.8742 16.4994 37.2266L21.1519 27.7923C21.1629 27.7703 21.1706 27.7627 21.1706 27.7627C21.1859 27.7506 21.2396 27.7506 21.255 27.7627C21.255 27.7627 21.2627 27.7692 21.2736 27.7923L24.9292 35.2056L24.3918 35.2835C22.3496 35.581 20.6847 36.985 20.0475 38.9501C19.4102 40.914 19.9312 43.0305 21.4096 44.4719L30.5534 53.3924L30.9285 55.5846L30.3187 59.1436V59.1403ZM61.8684 53.6218L64.3734 68.2419C64.4645 68.7722 64.165 69.0795 63.9775 69.2157C63.7899 69.3518 63.4061 69.5417 62.9301 69.2914L49.8116 62.3886C49.4925 62.2207 49.1415 62.1361 48.7905 62.1361C48.4396 62.1361 48.0897 62.2207 47.7694 62.3886L34.651 69.2914C34.175 69.5417 33.79 69.3518 33.6035 69.2157C33.4171 69.0795 33.1166 68.7733 33.2076 68.2419L35.7126 53.6218C35.8344 52.9093 35.5986 52.1826 35.082 51.6787L24.4685 41.3245C24.0836 40.9491 24.1461 40.5243 24.2174 40.3047C24.2887 40.0852 24.4883 39.7042 25.0202 39.6274L39.6873 37.4944C40.4013 37.3901 41.0199 36.9411 41.3391 36.2934L47.8977 22.9906C48.1357 22.5076 48.5591 22.4363 48.7894 22.4363C49.0208 22.4363 49.4431 22.5087 49.6811 22.9906L56.2398 36.2934C56.5589 36.9411 57.1764 37.3901 57.8915 37.4944L72.5586 39.6274C73.0906 39.7053 73.2902 40.0852 73.3615 40.3047C73.4328 40.5243 73.4953 40.9491 73.1103 41.3256L62.498 51.6798C61.9814 52.1837 61.7456 52.9104 61.8673 53.6229L61.8684 53.6218ZM93.61 40.027C93.61 40.027 93.6057 40.0358 93.5881 40.0533L86.061 47.3974C85.5444 47.9024 85.3075 48.628 85.4303 49.3405L87.2071 59.71C87.2115 59.7342 87.2093 59.7441 87.2093 59.7441C87.2027 59.7627 87.1599 59.7935 87.1413 59.7935C87.1413 59.7935 87.1314 59.7924 87.1095 59.7803L77.8056 54.8842C77.4864 54.7163 77.1355 54.6318 76.7845 54.6318C76.4335 54.6318 76.0836 54.7163 75.7634 54.8842L67.2996 59.3379L66.862 56.7867L67.5277 52.9028L76.1747 44.4664C77.652 43.025 78.1741 40.9085 77.5369 38.9446C76.8996 36.9807 75.2347 35.5755 73.1926 35.278L73.0412 35.2561L76.7242 27.7868C76.7351 27.7648 76.7428 27.7572 76.7428 27.7572C76.7582 27.7451 76.8119 27.7451 76.8273 27.7572C76.8273 27.7572 76.8349 27.7638 76.8459 27.7868L81.4984 37.2211C81.8176 37.8688 82.435 38.3177 83.1501 38.422L93.5519 39.9348C93.576 39.9381 93.5848 39.9435 93.5848 39.9435C93.6002 39.9556 93.6166 40.0061 93.6111 40.0237L93.61 40.027Z" fill="white"/>
<path d="M47.1577 2.1953V7.53816C47.1577 8.7512 48.1393 9.73371 49.3513 9.73371C50.5632 9.73371 51.5448 8.7512 51.5448 7.53816V2.1953C51.5448 0.982263 50.5632 -0.000244141 49.3513 -0.000244141C48.1393 -0.000244141 47.1577 0.982263 47.1577 2.1953Z" fill="white"/>
<path d="M66.4167 15.5225L70.1907 11.7451C71.0473 10.8877 71.0473 9.49794 70.1907 8.63948C69.3341 7.78212 67.9456 7.78212 67.089 8.63948L63.315 12.4169C62.4585 13.2743 62.4585 14.6641 63.315 15.5225C63.7439 15.9517 64.3043 16.1658 64.8659 16.1658C65.4274 16.1658 65.989 15.9517 66.4167 15.5225Z" fill="white"/>
<path d="M28.5123 8.63948C27.6557 9.49684 27.6557 10.8866 28.5123 11.744L32.2863 15.5214C32.7151 15.9507 33.2756 16.1647 33.8371 16.1647C34.3987 16.1647 34.9602 15.9507 35.388 15.5214C36.2445 14.6641 36.2445 13.2743 35.388 12.4169L31.614 8.63948C30.7574 7.78212 29.3689 7.78212 28.5123 8.63948Z" fill="white"/>
<path d="M51.5448 93.7915V88.4497C51.5448 87.2367 50.5632 86.2542 49.3513 86.2542C48.1393 86.2542 47.1577 87.2367 47.1577 88.4497V93.7915C47.1577 95.0045 48.1393 95.987 49.3513 95.987C50.5632 95.987 51.5448 95.0045 51.5448 93.7915Z" fill="white"/>
<path d="M31.614 87.3464L35.388 83.5689C36.2445 82.7116 36.2445 81.3218 35.388 80.4644C34.5314 79.6071 33.1429 79.6071 32.2863 80.4644L28.5123 84.2419C27.6557 85.0992 27.6557 86.489 28.5123 87.3464C28.9411 87.7756 29.5016 87.9897 30.0631 87.9897C30.6247 87.9897 31.1862 87.7756 31.614 87.3464Z" fill="white"/>
<path d="M68.6399 87.9897C69.2014 87.9897 69.763 87.7756 70.1907 87.3464C71.0473 86.489 71.0473 85.0992 70.1907 84.2419L66.4167 80.4644C65.5601 79.6071 64.1716 79.6071 63.315 80.4644C62.4585 81.3218 62.4585 82.7116 63.315 83.5689L67.089 87.3464C67.5179 87.7756 68.0783 87.9897 68.6399 87.9897Z" fill="white"/>
<path d="M57.5809 51.5582L59.225 61.1549C59.2842 61.5029 59.0879 61.7049 58.965 61.7938C58.8422 61.8827 58.5899 62.0079 58.2774 61.8432L49.6666 57.3127C49.4571 57.2018 49.2268 57.147 48.9965 57.147C48.7662 57.147 48.5358 57.2018 48.3264 57.3127L39.7167 61.8432C39.4041 62.0079 39.1519 61.8827 39.029 61.7938C38.9062 61.7049 38.7099 61.5029 38.7691 61.1549L40.4132 51.5582C40.4932 51.0905 40.3386 50.6141 39.9986 50.2826L33.033 43.4863C32.7807 43.2393 32.8213 42.9604 32.8674 42.8166C32.9145 42.6728 33.0451 42.4225 33.3938 42.372L43.0202 40.9724C43.4896 40.9043 43.8943 40.609 44.1038 40.1842L48.4086 31.4536C48.5644 31.1363 48.8429 31.0891 48.9943 31.0891C49.1456 31.0891 49.4231 31.1363 49.58 31.4536L53.8848 40.1842C54.0943 40.609 54.5001 40.9043 54.9684 40.9724L64.5947 42.372C64.9446 42.4225 65.0751 42.6728 65.1212 42.8166C65.1684 42.9604 65.2089 43.2393 64.9556 43.4863L57.99 50.2826C57.6511 50.6141 57.4954 51.0905 57.5754 51.5582H57.5809Z" fill="white"/>
</svg>
