<svg width="45" height="45" viewBox="0 0 45 45" fill="none" xmlns="http://www.w3.org/2000/svg">
<path d="M22.5 45C34.9264 45 45 34.9264 45 22.5C45 10.0736 34.9264 0 22.5 0C10.0736 0 0 10.0736 0 22.5C0 34.9264 10.0736 45 22.5 45Z" fill="#00F356"/>
<path d="M37.1928 24.8972C37.0923 25.1407 36.9918 25.3841 36.841 25.6276C35.9867 27.3317 34.7305 28.7437 33.2229 29.9122C31.3636 31.3242 29.2531 32.2493 26.9415 32.7849C25.3837 33.1257 23.8259 33.2718 22.2179 33.2231C21.1124 33.1744 20.0068 33.0283 18.9013 32.7849C18.7506 32.7362 18.6501 32.7849 18.5496 32.8336C16.9918 33.8073 15.2832 34.489 13.4742 34.8785C13.2732 34.9272 13.0722 34.9759 12.8712 35.0246C12.8209 35.0246 12.7204 35.0246 12.6702 35.0246C13.7757 34.0021 14.63 32.8336 15.2832 31.519C15.1827 31.4703 15.1325 31.4703 15.0822 31.4703C13.4742 30.6912 12.0671 29.6201 10.8611 28.3055C9.85608 27.2343 9.10232 26.0171 8.5998 24.6051C8.5998 24.5564 8.54955 24.5077 8.54955 24.459C8.44905 24.1669 8.3988 23.8748 8.2983 23.5826C7.99679 22.4628 7.94654 21.3429 8.04704 20.2231C8.09729 19.6875 8.19779 19.1519 8.34855 18.6163C8.44905 18.1294 8.5998 17.6426 8.80081 17.2043C9.10232 16.5714 9.45407 15.9384 9.80583 15.3542C10.1073 14.916 10.4088 14.4291 10.8109 14.0396C11.2631 13.5527 11.7656 13.1145 12.2681 12.6763C14.1777 11.1182 16.3385 10.0957 18.7506 9.51147C19.9063 9.21933 21.0621 9.07326 22.2179 9.02457C24.0269 8.9272 25.836 9.12195 27.5948 9.56016C28.3988 9.75491 29.2028 10.047 30.0068 10.3879C31.4139 10.9721 32.6702 11.7512 33.8259 12.6763C35.2832 13.8935 36.439 15.3542 37.1928 17.107C37.645 18.1294 37.8963 19.2006 37.9968 20.3205C38.0973 21.7811 37.8963 23.2418 37.3938 24.6051C37.243 24.7512 37.243 24.8485 37.1928 24.8972Z" fill="white"/>
</svg>
