<svg width="36" height="36" viewBox="0 0 36 36" fill="none" xmlns="http://www.w3.org/2000/svg">
<path d="M8.23116 0C3.65849 0 0 3.65849 0 8.23116C0 12.8038 3.65849 16.4623 8.23116 16.4623C12.8038 16.4623 16.4623 12.8038 16.4623 8.23116C16.4623 3.65849 12.8038 0 8.23116 0Z" fill="black"/>
<path d="M32.4241 0H23.0293C21.0341 0 19.4543 1.57984 19.4543 3.57506V12.9698C19.4543 14.965 21.0341 16.5449 23.0293 16.5449H32.4241C34.4193 16.5449 35.9991 14.965 35.9991 12.9698V3.57506C35.9991 1.57984 34.4193 0 32.4241 0Z" fill="black"/>
<path d="M8.23027 19.3717C7.48206 19.3717 6.73386 19.7871 6.31848 20.5353L0.249402 32.8403C-0.415374 34.2533 0.582234 35.9166 2.16119 35.9166H14.3828C15.9626 35.9166 16.9602 34.2542 16.2946 32.8403L10.1429 20.6187C9.72757 19.7871 8.97936 19.3717 8.23116 19.3717H8.23027Z" fill="black"/>
<path d="M31.2605 19.2892H32.0921C33.8379 19.4551 35.7506 21.035 36 24.0278V25.0254C35.7506 27.9357 33.5885 31.4273 27.27 35.9166C20.9516 31.5099 18.7895 27.9348 18.5401 25.0254V24.1112C18.7895 21.1184 20.7847 19.5386 22.448 19.3726H23.2796C25.2748 19.3726 26.1899 20.2042 27.27 21.5347C28.3511 20.2042 29.2653 19.2901 31.2605 19.2901V19.2892Z" fill="black"/>
</svg>
