<svg width="24" height="24" viewBox="0 0 24 24" fill="none" xmlns="http://www.w3.org/2000/svg">
<rect x="1" y="1" width="22" height="22" rx="2" fill="white" stroke="black" stroke-width="2"/>
<path d="M16.9037 16.6031C16.9037 17.3031 17.4711 17.87 18.1717 17.87C18.8723 17.87 19.4397 17.3031 19.4397 16.6031C19.4397 15.9031 18.8723 15.3361 18.1717 15.3361C17.4711 15.3361 16.9037 15.9031 16.9037 16.6031Z" fill="black"/>
<path d="M18.1441 17.8423C18.1441 18.2243 17.8344 18.5337 17.4521 18.5337V18.5908C18.5506 18.5908 19.4398 17.7006 19.4398 16.6048" fill="black"/>
<path d="M7.53627 6.98599C7.53627 6.28597 6.96885 5.71904 6.26823 5.71904C5.5676 5.71904 5.00018 6.28597 5.00018 6.98599C5.00018 7.68601 5.5676 8.25294 6.26823 8.25294C6.96885 8.25467 7.53627 7.68601 7.53627 6.98599Z" fill="black"/>
<path d="M6.29745 5.74669C6.29745 5.3647 6.60711 5.05531 6.98942 5.05531V5C5.89092 5 5 5.89015 5 6.98598" fill="black"/>
<path d="M13.8711 15.1079V18.3609L17.1286 15.1079H13.8711Z" fill="black"/>
<g style="mix-blend-mode:multiply">
<path d="M14.5579 17.6747L17.1286 15.1079H13.8711V17.6747H14.5579Z" fill="url(#paint0_linear_465_2)"/>
</g>
<path d="M10.9285 13.9983C12.1931 15.9929 14.8364 16.5858 16.8345 15.3223C18.8308 14.0588 19.4242 11.4177 18.1596 9.42135C16.895 7.425 14.25 6.83387 12.2536 8.09736C10.2573 9.36086 9.66391 12.0036 10.9285 13.9983Z" fill="black"/>
<path d="M10.5687 8.25466V5L7.31293 8.25466H10.5687Z" fill="black"/>
<g style="mix-blend-mode:multiply">
<path d="M9.88188 5.6862L7.31293 8.25467H10.5687V5.6862H9.88188Z" fill="url(#paint1_linear_465_2)"/>
</g>
<path d="M13.5112 9.37988C12.2467 7.38525 9.60332 6.7924 7.60524 8.05589C5.6089 9.31766 5.01553 11.9605 6.28011 13.9551C7.54469 15.9497 10.1898 16.5443 12.1861 15.2791C14.1825 14.0173 14.7758 11.3745 13.5112 9.37988Z" fill="black"/>
<path d="M10.9285 13.9983C11.2641 14.5272 11.6948 14.9559 12.1862 15.2791C14.1825 14.0156 14.7759 11.3745 13.5113 9.3799C13.1757 8.851 12.7449 8.42234 12.2536 8.09912C10.2573 9.36262 9.66391 12.0037 10.9285 13.9983Z" fill="white"/>
<defs>
<linearGradient id="paint0_linear_465_2" x1="15.5002" y1="17.6754" x2="15.5002" y2="15.1073" gradientUnits="userSpaceOnUse">
<stop stop-color="white" stop-opacity="0"/>
<stop offset="1" stop-color="#CCCCCC"/>
</linearGradient>
<linearGradient id="paint1_linear_465_2" x1="8.96139" y1="5.70203" x2="8.94064" y2="8.2542" gradientUnits="userSpaceOnUse">
<stop stop-color="white" stop-opacity="0"/>
<stop offset="1" stop-color="#CCCCCC"/>
</linearGradient>
</defs>
</svg>
