<svg width="23" height="29" viewBox="0 0 23 29" fill="none" xmlns="http://www.w3.org/2000/svg">
<path d="M3.80658 7.61316C3.80658 3.4145 7.22108 0 11.4197 0C15.6184 0 19.0329 3.4145 19.0329 7.61316C19.0329 11.8118 15.6184 15.2263 11.4197 15.2263C7.22108 15.2263 3.80658 11.8118 3.80658 7.61316ZM17.6892 16.8593C16.8403 16.6424 15.9115 16.7642 15.1464 17.1905C12.8358 18.4771 10.0075 18.4771 7.6969 17.1905C6.93178 16.7642 6.00298 16.6462 5.15411 16.8593C2.11646 17.6245 0 20.3766 0 23.5513V25.0892C0 26.0598 0.258847 27.0115 0.749896 27.8375C1.14959 28.5113 1.89948 28.93 2.70648 28.93H20.1292C20.9362 28.93 21.6861 28.5113 22.0858 27.8375C22.5768 27.0115 22.8357 26.0598 22.8357 25.0892V23.5513C22.8357 20.3766 20.7192 17.6245 17.6854 16.8593H17.6892Z" fill="black"/>
</svg>
