<svg width="29" height="29" viewBox="0 0 29 29" fill="none" xmlns="http://www.w3.org/2000/svg">
<path d="M6.63066 0C2.94712 0 0 2.94712 0 6.63066C0 10.3142 2.94712 13.2613 6.63066 13.2613C10.3142 13.2613 13.2613 10.3142 13.2613 6.63066C13.2613 2.94712 10.3142 0 6.63066 0Z" fill="white"/>
<path d="M26.1194 0L18.5514 0C16.9441 0 15.6715 1.27265 15.6715 2.87991L15.6715 10.4479C15.6715 12.0552 16.9441 13.3278 18.5514 13.3278L26.1194 13.3278C27.7266 13.3278 28.9993 12.0552 28.9993 10.4479L28.9993 2.87991C28.9993 1.27265 27.7266 0 26.1194 0Z" fill="white"/>
<path d="M6.62994 15.605C6.02722 15.605 5.4245 15.9396 5.08989 16.5423L0.200907 26.4547C-0.334607 27.5929 0.469022 28.9328 1.74096 28.9328L11.5861 28.9328C12.8588 28.9328 13.6624 27.5937 13.1262 26.4547L8.17071 16.6095C7.8361 15.9396 7.23338 15.605 6.63066 15.605H6.62994Z" fill="white"/>
<path d="M25.182 15.5385H25.852C27.2583 15.6722 28.7991 16.9448 29 19.3557L29 20.1594C28.7991 22.5038 27.0574 25.3165 21.9675 28.9328C16.8776 25.383 15.136 22.503 14.9351 20.1594V19.4229C15.136 17.0121 16.7432 15.7394 18.0831 15.6057H18.753C20.3603 15.6057 21.0974 16.2756 21.9675 17.3474C22.8384 16.2756 23.5748 15.5392 25.182 15.5392V15.5385Z" fill="white"/>
</svg>
