<svg width="42" height="38" viewBox="0 0 42 38" fill="none" xmlns="http://www.w3.org/2000/svg">
<path d="M31.5578 16.236H29.5556L24.5498 21.2417C23.5269 22.2864 22.1558 22.8522 20.6976 22.8522C19.2394 22.8522 17.89 22.2864 16.8671 21.2417L11.8614 16.236H9.79381C4.37457 16.236 0 20.6323 0 26.0298V28.2062C0 33.6254 4.37457 38 9.79381 38H31.5578C36.9553 38 41.3517 33.6254 41.3517 28.2062V26.0298C41.3517 20.6323 36.9553 16.236 31.5578 16.236ZM31.5578 28.7503C30.0344 28.7503 28.8156 27.5315 28.8156 26.0298C28.8156 24.5281 30.0344 23.3093 31.5578 23.3093C33.0813 23.3093 34.2566 24.5281 34.2566 26.0298C34.2566 27.5315 33.0596 28.7503 31.5578 28.7503ZM12.6449 12.4055C11.7961 11.5567 11.7961 10.1856 12.6449 9.33677C13.0584 8.90149 13.6243 8.70561 14.1684 8.70561C14.7125 8.70561 15.3001 8.90149 15.7136 9.33677L18.5212 12.1443V2.1764C18.5212 0.957617 19.5006 0 20.6976 0C21.8946 0 22.874 0.957617 22.874 2.1764V12.1443L25.7033 9.33677C26.1168 8.90149 26.6827 8.70561 27.2268 8.70561C27.7709 8.70561 28.3585 8.90149 28.7721 9.33677C29.6209 10.1856 29.6209 11.5567 28.7721 12.4055L24.9416 16.236L22.2428 18.9347C21.8293 19.37 21.2635 19.5876 20.6976 19.5876C20.1317 19.5876 19.5876 19.37 19.1741 18.9347L12.6449 12.4055Z" fill="white"/>
</svg>
