<svg width="166" height="160" viewBox="0 0 166 160" fill="none" xmlns="http://www.w3.org/2000/svg">
<path d="M116.819 48.7688C114.434 49.5961 112.554 50.9818 111.295 52.7197C110.195 51.2793 108.979 50.0451 107.322 49.1058C104.422 47.462 101.236 47.2899 98.2029 48.2947C95.8181 49.122 93.9379 50.5076 92.679 52.2456C89.7953 48.1593 84.5638 46.2834 79.7943 47.938C77.8503 48.4704 76.087 49.6499 74.8281 51.3878L64.4518 20.4458C62.3223 14.0633 55.7844 10.6295 49.5118 12.5216C43.4463 14.5311 40.2379 21.1566 42.4576 27.8627L56.5246 70.1581C48.4032 79.174 48.8595 87.0597 52.7573 98.5305L56.0869 108.59C58.604 115.737 61.578 120.147 64.0475 123.998L69.6611 130.994C76.6979 139.341 91.7177 145.676 112.947 138.642L118.689 136.722C127.373 133.473 135.064 126.664 139.855 118.212C144.412 110.172 146.277 100.606 143.335 91.3116L131.732 57.2227C129.629 50.3104 122.884 46.7593 116.819 48.7688ZM126.431 58.8486L138.034 92.9375C142.989 108.821 130.841 125.905 116.947 131.104L111.205 133.024C92.6847 139.142 79.9434 134.098 74.0058 127.191L70.2936 122.636L69.0137 120.548C66.5176 117.226 63.841 113.258 61.6213 106.551L58.2917 96.4923C55.1427 87.0803 54.9677 82.078 58.8612 76.6581L64.6175 93.5408C65.0689 95.1586 66.8428 95.8918 68.2556 95.3307C69.8756 94.887 70.6033 93.1204 70.0351 91.7087L47.6946 25.3835C46.5848 22.0305 48.0402 18.4973 51.073 17.4925C54.1057 16.4878 57.4198 18.3664 58.5297 21.7194L72.4427 62.8381L76.521 74.956L79.1284 82.4267C79.5798 84.0445 81.3537 84.7776 82.7665 84.2166C83.4145 84.0391 83.9722 83.5381 84.3227 82.9196C84.6733 82.3012 84.9336 81.3592 84.546 80.5946L82.6873 75.1828L81.9386 73.124L77.8603 61.006C77.2018 59.2708 77.3984 57.4755 78.0093 55.915C78.7104 54.6781 79.8258 53.6761 81.2386 53.115C84.2714 52.1102 87.5855 53.9889 88.6953 57.3419L91.0585 63.3122L93.549 70.989L95.5882 77.0479C96.0395 78.6658 97.8134 79.3989 99.2262 78.8379C99.8742 78.6604 100.432 78.1594 100.783 77.5409C101.133 76.9225 101.393 75.9804 101.006 75.2159L96.2689 61.3627C95.159 58.0097 96.6145 54.4764 99.6473 53.4717C101.591 52.9393 103.275 53.3489 104.103 53.8185C105.553 54.6405 106.653 56.0808 107.104 57.6986L109.053 63.434L111.634 71.4344C112.085 73.0522 113.859 73.7854 115.272 73.2243C116.892 72.7806 117.619 71.014 117.051 69.6024L115.193 64.1905L114.354 61.8082C113.244 58.4551 114.789 55.2454 118.146 54.152C121.71 53.1759 125.231 55.1719 126.431 58.8486Z" fill="white"/>
<path d="M130.121 41.4286C129.647 41.6667 129.173 41.6667 128.936 41.6667C127.751 41.6667 126.803 40.9524 126.329 40C126.092 39.762 113.533 14.0477 77.988 12.8572L80.1207 15.2381C81.3055 16.4286 81.0686 18.3334 79.8837 19.2858C79.4098 19.762 78.6989 20 77.988 20C77.2771 20 76.5662 19.762 75.8553 19.0477L69.2202 11.9048C68.9832 11.6667 68.9833 11.6667 68.9833 11.4286C68.9833 11.1905 68.7463 11.1905 68.7463 10.9524C68.7463 10.7143 68.7463 10.7143 68.7463 10.4762C68.7463 10.2381 68.7463 10 68.7463 10C68.5093 9.76195 68.5093 9.52386 68.5093 9.52386C68.5093 9.28576 68.5093 9.04767 68.7463 9.04767C68.7463 8.80957 68.9833 8.80957 68.9833 8.57147C68.9833 8.33338 69.2202 8.33338 69.2202 8.09528L75.8553 0.952427C77.0401 -0.238049 78.6989 -0.238049 79.8837 0.952427C81.0686 2.1429 81.0686 3.80957 79.8837 5.00005L77.988 7.1429C117.088 8.33338 130.832 36.1905 131.542 37.6191C132.016 39.0477 131.542 40.7143 130.121 41.4286Z" fill="white"/>
</svg>
