<svg width="25" height="25" viewBox="0 0 25 25" fill="none" xmlns="http://www.w3.org/2000/svg">
<path d="M12.488 18.0301C9.44094 18.0301 6.96973 15.5589 6.96973 12.5119C6.96973 9.46487 9.44094 6.99365 12.488 6.99365C15.535 6.99365 18.0062 9.46487 18.0062 12.5119C18.0062 15.5469 15.535 18.0301 12.488 18.0301ZM12.488 9.11696C10.6166 9.11696 9.09305 10.6405 9.09305 12.5119C9.09305 14.3833 10.6166 15.9068 12.488 15.9068C14.3594 15.9068 15.8829 14.3833 15.8829 12.5119C15.8829 10.6405 14.3594 9.11696 12.488 9.11696Z" fill="white"/>
<path d="M14.4314 25L10.5686 25C10.0288 25 9.58494 24.6041 9.51296 24.0763L9.24904 22.0369C8.84117 21.905 8.4453 21.737 8.06142 21.5451L6.42994 22.8047C6.01008 23.1286 5.41027 23.0926 5.0264 22.7087L2.29127 19.9736C1.91939 19.6017 1.8714 19.0019 2.1953 18.5701L3.45489 16.9385C3.26295 16.5547 3.10701 16.1588 2.96305 15.7509L0.923701 15.4871C0.395869 15.4151 0 14.9712 0 14.4314L0 10.5686C0 10.0288 0.395869 9.58493 0.923701 9.51295L2.96305 9.24903C3.09501 8.84116 3.26295 8.4453 3.45489 8.06142L2.1953 6.42993C1.8714 6.01006 1.90739 5.41027 2.29127 5.0264L5.0264 2.29127C5.39828 1.91939 5.99808 1.87139 6.42994 2.19528L8.06142 3.45486C8.4453 3.26293 8.84117 3.10701 9.24904 2.96305L9.51296 0.923691C9.58494 0.39586 10.0288 0 10.5686 0L14.4314 0C14.9712 0 15.4151 0.39586 15.4871 0.923691L15.751 2.96305C16.1588 3.09501 16.5547 3.26293 16.9386 3.45486L18.5701 2.19528C18.9899 1.87139 19.5897 1.90739 19.9736 2.29127L22.7087 5.0264C23.0806 5.39828 23.1286 5.99806 22.8047 6.42993L21.5451 8.06142C21.737 8.4453 21.893 8.84116 22.037 9.24903L24.0763 9.51295C24.6041 9.58493 25 10.0288 25 10.5686L25 14.4314C25 14.9712 24.6041 15.4151 24.0763 15.4871L22.037 15.7509C21.905 16.1588 21.737 16.5547 21.5451 16.9385L22.8047 18.5701C23.1286 18.9899 23.0926 19.5897 22.7087 19.9736L19.9736 22.7087C19.6017 23.0806 19.0019 23.1286 18.5701 22.8047L16.9386 21.5451C16.5547 21.737 16.1588 21.893 15.751 22.0369L15.4871 24.0763C15.4151 24.6041 14.9592 25 14.4314 25ZM11.4923 22.8767L13.4957 22.8767L13.7356 21.0772C13.7956 20.6454 14.1075 20.2975 14.5154 20.1895C15.2111 20.0096 15.8709 19.7337 16.4947 19.3618C16.8666 19.1459 17.3345 19.1698 17.6823 19.4338L19.1219 20.5374L20.5374 19.1219L19.4338 17.6823C19.1699 17.3344 19.1459 16.8666 19.3618 16.4947C19.7217 15.8709 19.9976 15.2111 20.1895 14.5153C20.2975 14.0955 20.6574 13.7836 21.0773 13.7356L22.8767 13.4957L22.8767 11.4923L21.0773 11.2524C20.6454 11.1924 20.2975 10.8805 20.1895 10.4726C20.0096 9.77685 19.7337 9.11707 19.3618 8.49327C19.1459 8.12139 19.1699 7.65355 19.4338 7.30566L20.5374 5.86611L19.1219 4.45057L17.6823 5.55419C17.3345 5.81811 16.8666 5.84213 16.4947 5.6262C15.8709 5.26632 15.2111 4.9904 14.5154 4.79847C14.0955 4.6905 13.7836 4.33059 13.7356 3.91072L13.4957 2.1113L11.4923 2.1113L11.2524 3.91072C11.1924 4.34259 10.8805 4.6905 10.4727 4.79847C9.77688 4.97841 9.11709 5.25432 8.49329 5.6262C8.12141 5.84213 7.65355 5.81811 7.30566 5.55419L5.86612 4.45057L4.45058 5.86611L5.55422 7.30566C5.81814 7.65355 5.84213 8.12139 5.6262 8.49327C5.26632 9.11707 4.9904 9.77685 4.79847 10.4726C4.6905 10.8925 4.33062 11.2044 3.91075 11.2524L2.11133 11.4923L2.11133 13.4957L3.91075 13.7356C4.34261 13.7956 4.6905 14.1075 4.79847 14.5153C4.97841 15.2111 5.25432 15.8709 5.6262 16.4947C5.84213 16.8666 5.81814 17.3344 5.55422 17.6823L4.45058 19.1219L5.86612 20.5374L7.30566 19.4338C7.65355 19.1698 8.12141 19.1459 8.49329 19.3618C9.11709 19.7217 9.77688 19.9976 10.4727 20.1895C10.8925 20.2975 11.2044 20.6574 11.2524 21.0772L11.4923 22.8767Z" fill="white"/>
</svg>
