<svg width="28" height="30" viewBox="0 0 28 30" fill="none" xmlns="http://www.w3.org/2000/svg">
<path d="M10.9963 26.9231H17.1501C17.1501 28.4615 16.0463 30 14.0732 30C12.1001 30 10.9963 28.4615 10.9963 26.9231ZM26.754 20.4231L25.0501 17.5846C24.404 16.5077 24.0655 15.2769 24.0655 14.0269V9.98462C24.0693 4.47692 19.5847 0 14.0732 0C8.56165 0 4.08088 4.47692 4.08088 9.98462V14.0269C4.08088 15.2769 3.74241 16.5077 3.09626 17.5846L1.39241 20.4231C0.873183 21.2885 0.861645 22.3308 1.3578 23.2115C1.85395 24.0923 2.7578 24.6154 3.76934 24.6154H24.377C25.3886 24.6154 26.2886 24.0885 26.7886 23.2115C27.2847 22.3308 27.2732 21.2885 26.754 20.4231Z" fill="black"/>
</svg>
