<svg width="65" height="65" viewBox="0 0 65 65" fill="none" xmlns="http://www.w3.org/2000/svg">
<circle cx="32.5" cy="32.5" r="32.5" fill="#FFD600"/>
<path d="M46.7576 51.6588C50.9492 51.6588 54.3472 48.2608 54.3472 44.0691C54.3472 39.8775 50.9492 36.4795 46.7576 36.4795C42.566 36.4795 39.168 39.8775 39.168 44.0691C39.168 48.2608 42.566 51.6588 46.7576 51.6588Z" fill="black"/>
<path d="M31.4291 33.0789C37.5261 33.0789 42.4686 28.1364 42.4686 22.0395C42.4686 15.9425 37.5261 11 31.4291 11C25.3322 11 20.3896 15.9425 20.3896 22.0395C20.3896 28.1364 25.3322 33.0789 31.4291 33.0789Z" fill="black"/>
<path d="M37.7991 44.0692C37.7991 40.6691 39.7034 37.705 42.5019 36.187C41.8782 35.8779 41.2213 35.6185 40.5259 35.4419C39.295 35.1272 37.9481 35.3039 36.8387 35.9221C33.4882 37.7878 29.387 37.7878 26.0365 35.9221C24.9271 35.3039 23.5803 35.1328 22.3494 35.4419C17.9391 36.5568 14.8701 40.5476 14.8701 45.1511V47.3811C14.8701 48.7886 15.2455 50.1685 15.9575 51.3663C16.5371 52.3433 17.6245 52.9505 18.7947 52.9505H44.0585C44.351 52.9505 44.6436 52.9118 44.9196 52.8401C40.857 51.99 37.7936 48.3856 37.7936 44.0692H37.7991Z" fill="black"/>
<path d="M46.7191 41.7391L49.0871 44.1071L45.8359 47.3582C45.6814 47.5128 45.4882 47.6066 45.2784 47.6453L43.33 47.9709C43.33 47.9709 43.2858 47.9709 43.2582 47.9709C43.1533 47.9709 43.0429 47.9268 42.9657 47.8495C42.8718 47.7557 42.8277 47.6177 42.8442 47.4852L43.1699 45.5367C43.2085 45.327 43.3079 45.1338 43.4569 44.9792L46.7081 41.7281L46.7191 41.7391ZM50.1689 40.6573C49.8543 40.3371 49.4348 40.166 48.9822 40.166C48.5296 40.166 48.1156 40.3371 47.7954 40.6573L47.2987 41.154L49.6666 43.522L50.1634 43.0252C50.4836 42.7106 50.6547 42.2911 50.6547 41.8385C50.6547 41.3859 50.4836 40.9719 50.1634 40.6518L50.1689 40.6573Z" fill="#FFD600"/>
</svg>
