<svg width="100" height="152" viewBox="0 0 100 152" fill="none" xmlns="http://www.w3.org/2000/svg">
<path d="M51.6794 19.8968C52.1962 20.9303 53.2298 21.4471 54.5218 21.4471C55.0386 21.4471 55.5554 21.1887 56.0722 20.9303L59.4313 19.1216C60.9817 18.3464 61.4985 16.2792 60.4649 14.7288C59.6897 13.1784 57.6225 12.6616 56.0722 13.6952L52.9714 15.504C51.421 16.5376 50.9042 18.3464 51.6794 19.8968Z" fill="white"/>
<path d="M47.0284 14.2119C48.0619 14.2119 49.0955 13.6951 49.6123 12.9199L51.9379 9.56077C52.9715 8.01038 52.7131 6.2016 51.1627 5.16801C49.6123 4.13441 47.8035 4.39281 46.77 5.9432L44.4444 9.30237C43.4108 10.8528 43.6692 12.6615 45.2196 13.6951C45.7364 13.9535 46.5116 14.2119 47.0284 14.2119Z" fill="white"/>
<path d="M14.9869 19.1216L18.346 21.1887C18.8628 21.4471 19.3796 21.7055 19.8964 21.7055C20.93 21.7055 21.9636 21.1887 22.7388 20.1552C23.514 18.3464 22.9972 16.5376 21.7052 15.504L18.0876 13.6952C16.5372 12.6616 14.7285 13.1784 13.9533 14.7288C12.9197 16.2792 13.4365 18.088 14.9869 19.1216Z" fill="white"/>
<path d="M24.8061 12.9199C25.3229 13.6951 26.3565 14.2119 27.3901 14.2119C27.9069 14.2119 28.6821 13.9535 29.1989 13.6951C30.7492 12.6615 31.0076 10.5943 29.974 9.30233L27.6485 5.94315C26.6149 4.39277 24.5477 3.87597 23.2557 4.90956C21.7053 5.94315 21.4469 8.01034 22.4805 9.30233L24.8061 12.9199Z" fill="white"/>
<path d="M37.2092 10.8527C39.018 10.8527 40.31 9.56072 40.31 7.75194V3.10078C40.31 1.29199 39.018 0 37.2092 0C35.4004 0 34.1084 1.29199 34.1084 3.10078V7.49354C34.1084 9.30233 35.4004 10.8527 37.2092 10.8527Z" fill="white"/>
<path d="M63.8242 122.739H56.8474L62.0154 119.38C64.5994 117.829 65.8914 116.021 65.8914 113.695C65.8914 110.594 63.8242 107.235 57.6226 107.235C52.4547 107.235 49.8707 110.077 49.8707 112.92C49.8707 114.47 50.6459 115.762 52.7131 115.762C56.0722 115.762 54.2635 111.628 57.6226 111.628C59.173 111.628 60.2066 112.661 60.2066 113.953C60.2066 115.245 59.6898 116.021 58.1394 117.054L55.2971 118.863C49.8707 122.481 49.6123 123.514 49.6123 125.323C49.6123 126.615 50.6459 127.649 52.1963 127.649H64.0826C65.8914 127.649 66.6666 126.873 66.6666 125.323C66.4082 123.514 65.633 122.739 63.8242 122.739Z" fill="white"/>
<path d="M99.9999 115.504V82.6873C99.9999 75.7105 94.8319 70.2842 88.372 70.2842C86.3048 70.2842 84.2376 70.801 82.6872 71.8346C81.3952 66.4082 77.0025 62.5322 71.5761 62.5322C69.2505 62.5322 67.1833 63.3074 65.633 64.341C64.0826 59.6899 59.9482 56.5891 54.7803 56.5891C52.9715 56.5891 51.1627 57.1059 49.6123 57.8811V26.6149C49.6123 19.8966 44.4443 14.4702 37.9844 14.4702C31.0076 14.4702 25.8397 19.8966 25.8397 26.6149V75.9689C23.5141 72.6097 21.4469 70.2842 21.4469 70.0258C17.0542 64.8578 11.3694 63.8242 5.94304 66.925C0.258286 70.0258 -1.5505 77.2609 1.80867 83.2041L2.58387 83.9793C2.58387 83.9793 11.6278 91.7312 13.695 106.201L14.4702 112.145C15.2454 117.313 15.7622 120.93 16.7958 125.065L18.6045 129.457C20.9301 136.176 29.1989 151.68 57.1058 151.68H63.049C85.2712 151.68 99.9999 137.468 99.9999 115.504ZM62.7906 145.478H56.8474C40.5684 145.478 29.1989 139.276 24.8061 128.424L22.7389 122.997C21.9637 119.638 21.4469 116.021 20.6717 111.111L19.8965 105.168C17.8293 90.1808 9.30221 81.6537 6.97663 79.5865C5.68464 77.0025 5.94304 73.9017 8.78542 72.3514C10.5942 71.3178 13.4366 70.5426 16.5374 74.1601C16.5374 74.1601 22.9973 81.6537 25.8397 89.4056V94.5736C25.8397 96.3824 27.1317 97.6744 28.9405 97.6744C30.7492 97.6744 32.0412 96.3824 32.0412 94.5736V26.6149C32.0412 23.2557 34.3668 20.6718 37.2092 20.6718C40.5684 20.6718 42.3771 23.5141 42.3771 26.6149V68.7338V83.2041V88.8888C42.3771 90.6976 43.6691 91.9896 45.4779 91.9896C47.2867 91.9896 48.5787 90.6976 48.5787 88.8888V83.2041V68.7338C48.5787 65.3746 50.9043 62.7906 53.7467 62.7906C56.8474 62.7906 58.9146 65.3746 58.9146 68.7338V74.6769V83.2041V88.8888C58.9146 90.6976 60.2066 91.9896 62.0154 91.9896C63.8242 91.9896 65.1162 90.6976 65.1162 88.8888V83.2041V74.6769C65.1162 71.8346 66.9249 68.7338 70.2841 68.7338C73.6433 68.7338 75.4521 71.5762 75.4521 74.6769V82.1705V83.2041V90.1808C75.4521 91.9896 76.7441 93.2816 78.5529 93.2816C80.3616 93.2816 81.6536 91.9896 81.6536 90.1808V83.2041V82.1705C81.6536 78.8113 83.9792 76.4857 87.08 76.4857C90.1808 76.4857 92.5063 79.3281 92.5063 82.6873V115.504C93.7983 137.468 77.7777 145.478 62.7906 145.478Z" fill="white"/>
</svg>
