<svg width="57" height="57" viewBox="0 0 57 57" fill="none" xmlns="http://www.w3.org/2000/svg">
<circle cx="28.5" cy="28.5" r="28.5" fill="#F50000"/>
<path d="M37.4527 30.1615V18.2947C37.4527 17.8673 37.798 17.5205 38.2242 17.5205H41.2285C41.6544 17.5205 42 17.8669 42 18.2947V30.1615C42 30.5889 41.6548 30.9357 41.2285 30.9357H38.2242C37.7983 30.9357 37.4527 30.5893 37.4527 30.1615ZM17.994 17.9971C17.7315 18.7821 18.2804 19.5383 17.8991 20.1701C17.4488 20.9161 16.6834 20.9856 16.5429 22.0875C16.4466 22.842 16.9843 23.4639 16.7013 24.1012C16.3763 24.8326 15.7197 25.0116 15.6518 26.0494C15.568 27.3323 16.2568 27.0795 15.6312 28.1448C15.2498 28.7946 14.8891 29.408 15.0319 30.2076C15.6548 33.695 21.868 31.8529 24.1194 32.0098C26.696 32.1894 24.6977 34.0411 23.9072 35.4298C23.0986 36.8496 22.5575 38.8352 22.6943 40.4336C22.8179 41.8762 23.5029 43.8034 25.0003 43.9804C27.1861 44.2387 26.8064 41.8884 27.432 40.3943C28.9777 36.7032 31.6344 34.6848 34.5076 32.0773C35.6672 31.0248 36.5948 30.0771 36.5948 28.7461C36.5948 26.3348 36.6235 22.8305 36.6235 20.5368C36.6235 18.0083 35.7915 17.3765 33.1436 17.1609C29.6124 16.8731 26.0616 16 22.5233 16C20.882 16 18.6243 16.1142 17.9943 17.9971H17.994Z" fill="white"/>
</svg>
