<svg width="25" height="35" viewBox="0 0 25 35" fill="none" xmlns="http://www.w3.org/2000/svg">
<path d="M13.6576 3.81039L18.2873 8.38555C18.7502 8.84307 19.4447 8.84307 19.9076 8.38555C20.3706 7.92804 20.3706 7.24176 19.9076 6.78425L13.4262 0.379019C12.9632 -0.0784974 12.2688 -0.0784974 11.8058 0.150261L5.09283 6.78425C4.62986 7.24176 4.62986 7.92804 5.09283 8.38555C5.55579 8.84307 6.25023 8.84307 6.7132 8.38555L11.3428 3.81039L11.3428 21.8823C11.3428 22.5686 11.8058 23.0261 12.5002 23.0261C13.1947 23.0261 13.6576 22.5686 13.6576 21.8823L13.6576 3.81039Z" fill="black"/>
<path d="M20.6018 10.2156L17.8241 10.2156C17.1296 10.2156 16.6667 10.6731 16.6667 11.3594C16.6667 12.0456 17.1296 12.5032 17.8241 12.5032L19.4444 12.5032C21.0648 12.5032 22.6852 13.8757 22.6852 15.7058L22.6852 29.2025C22.6852 30.8038 21.2963 32.4051 19.4444 32.4051L5.55556 32.4051C3.93518 32.4051 2.31481 31.0326 2.31481 29.2025L2.31481 15.9345C2.31481 14.3332 3.7037 12.7319 5.55556 12.7319L7.17592 12.7319C7.87037 12.7319 8.33333 12.2744 8.33333 11.5881C8.33333 10.9019 7.87037 10.2156 7.17592 10.2156L4.39815 10.2156C2.08333 10.2156 0 12.2744 0 14.562L0 30.5751C0 32.8626 2.08333 34.9215 4.39815 34.9215L20.6018 34.9215C22.9167 34.9215 25 32.8626 25 30.5751L25 14.562C25 12.2744 23.1481 10.2156 20.6018 10.2156Z" fill="black"/>
</svg>
