<svg width="287" height="270" viewBox="0 0 287 270" fill="none" xmlns="http://www.w3.org/2000/svg">
<path d="M92.8269 33.8148C-9.40977 54.4519 -40.8044 184.268 68.6175 238.143C69.7756 238.714 70.9776 239.223 72.1831 239.75C192.781 292.403 236.166 267.63 262.725 216.925C293.373 158.414 233.431 5.43205 92.8269 33.8148Z" fill="#FFD600"/>
<path d="M94.6975 118.865C126.624 118.865 152.506 92.9833 152.506 61.0564C152.506 29.1295 126.624 3.24756 94.6975 3.24756C62.7706 3.24756 36.8887 29.1295 36.8887 61.0564C36.8887 92.9833 62.7706 118.865 94.6975 118.865Z" fill="white"/>
<path d="M174.859 148.879C165.719 151.057 142.846 153.572 132.518 158.475C127.841 160.693 122.874 163.691 121.497 168.412C119.906 173.865 122.466 180.608 127.895 182.681C130.043 183.501 132.768 183.572 135.529 183.386C134.04 183.717 132.386 184.349 130.542 185.544C125.174 189.029 122.523 194.117 124.991 202.028C126.231 206.002 130.154 209.105 134.604 209.129C137.295 209.142 139.936 208.079 143.9 207.316C140.814 208.967 138.031 211.614 136.931 214.126C135.026 218.478 136.178 224.026 140.27 226.454C142.198 227.598 145.017 227.737 147.83 227.217C145.433 229.205 144.008 231.974 145.207 235.817C146.24 239.126 149.812 243.731 156.839 243.414C160.546 243.245 196.448 240.868 211.804 236.654C253.794 228.54 266.368 196.994 249.655 178.096C235.004 161.534 207.104 154.305 202.198 151.978C193.004 147.616 188.395 160.443 174.869 148.869L174.859 148.879ZM142.742 182.593C143.042 182.559 143.093 182.978 142.792 183.025C141.722 183.201 140.459 183.062 138.984 183.052C140.304 182.894 141.577 182.721 142.742 182.593Z" fill="#A3A3A3"/>
<path d="M131.674 106.411L122.555 112.288L137.259 135.104L146.378 129.227L131.674 106.411Z" fill="black"/>
<path d="M194.999 213.947C186.723 219.272 175 215.716 168.953 206.049L133.243 148.98C127.193 139.31 129.016 127.043 137.292 121.718C145.567 116.393 157.291 119.949 163.338 129.616L199.048 186.685C205.098 196.355 203.275 208.622 194.999 213.947Z" fill="#292929"/>
<path d="M34.4242 61.8194C34.7618 74.2179 38.1248 86.748 45.8536 97.6271C65.6297 125.456 104.22 131.986 132.049 112.214C159.878 92.4408 166.408 53.8475 146.635 26.0185C126.859 -1.81386 88.269 -8.34399 60.44 11.4287C52.3027 17.2093 45.9853 24.6004 41.6161 32.8593C41.6161 32.8593 33.965 44.9606 34.4242 61.816V61.8194ZM125.701 103.273C102.808 119.54 71.0624 114.168 54.7945 91.2759C38.5266 68.3833 43.8986 36.6376 66.7912 20.3697C89.6838 4.10175 121.429 9.47374 137.697 32.3663C153.965 55.2589 148.593 87.0046 125.701 103.273Z" fill="#575757"/>
<path d="M152.898 202.376C152.898 202.376 163.25 197.517 167.66 194.681C172.073 191.845 180.47 186.51 177.695 180.115C174.693 173.2 163.757 175.239 163.757 175.239C163.757 175.239 171.705 171.224 166.552 164.941C164.979 163.023 160.424 162.557 156.038 162.213C146.817 161.487 136.512 160.558 136.512 160.558L139.037 176.488L149.099 196.896L152.901 202.376H152.898Z" fill="#A3A3A3"/>
<path d="M172.167 234.753C172.167 234.753 175.828 233.004 180.264 230.262C184.701 227.521 189.317 218.867 180.693 215.534C175.108 213.373 172.941 214.771 172.941 214.771C172.941 214.771 182.439 212.482 180.109 203.531C177.837 194.792 154.954 199.337 154.954 199.337L157.25 214.366L166.991 233.524L172.167 234.753Z" fill="#A3A3A3"/>
<path d="M142.191 181.587C149.191 180.82 156.052 178.791 162.342 175.624" stroke="#929292" stroke-width="2.82274" stroke-linecap="round" stroke-linejoin="round"/>
<path d="M152.321 222.638C160.85 220.123 165.041 218.681 172.408 215.892" stroke="#929292" stroke-width="2.82274" stroke-linecap="round" stroke-linejoin="round"/>
<path d="M143.403 204.409C151.932 201.893 156.123 200.452 163.49 197.663" stroke="#929292" stroke-width="2.82274" stroke-linecap="round" stroke-linejoin="round"/>
<path d="M196.101 178.261L212.551 179.359C208.496 178.248 215.644 161.396 215.644 161.396C215.644 161.396 197.613 147.586 186.636 142.214C175.514 136.768 164.338 127.675 162.501 128.499C154.941 131.872 160.016 145.621 171.158 152.769C180.491 158.752 192.38 176.836 196.101 178.265V178.261Z" fill="#A3A3A3"/>
<path d="M176.304 233.409C176.304 233.409 189.34 228.746 185.444 218.762" stroke="#929292" stroke-width="2.82274" stroke-linecap="round" stroke-linejoin="round"/>
<path d="M210.821 217.547L243.158 235.557C257.917 243.779 276.703 237.741 283.585 222.307C283.824 221.771 284.054 221.22 284.28 220.653C290.206 205.668 282.457 188.742 267.357 183.12L240.433 173.092C240.433 173.092 221.906 183.137 219.168 182.647C197.177 178.704 235.628 195.984 235.628 195.984L210.825 217.543L210.821 217.547Z" fill="#A3A3A3"/>
<path d="M225.76 107.078C228.046 107.078 229.899 105.225 229.899 102.938C229.899 100.652 228.046 98.7988 225.76 98.7988C223.473 98.7988 221.62 100.652 221.62 102.938C221.62 105.225 223.473 107.078 225.76 107.078Z" stroke="white" stroke-width="1.97862" stroke-linecap="round" stroke-linejoin="round"/>
<path d="M94.8564 254.225C97.1426 254.225 98.9959 252.372 98.9959 250.086C98.9959 247.8 97.1426 245.946 94.8564 245.946C92.5701 245.946 90.7168 247.8 90.7168 250.086C90.7168 252.372 92.5701 254.225 94.8564 254.225Z" stroke="white" stroke-width="1.97862" stroke-linecap="round" stroke-linejoin="round"/>
<path d="M23.1943 128.417C25.4805 128.417 27.3338 126.564 27.3338 124.278C27.3338 121.992 25.4805 120.138 23.1943 120.138C20.908 120.138 19.0547 121.992 19.0547 124.278C19.0547 126.564 20.908 128.417 23.1943 128.417Z" stroke="white" stroke-width="1.97862" stroke-linecap="round" stroke-linejoin="round"/>
<path d="M184.833 164.569C189.928 170.542 191.245 174.233 194.983 179.375C199.713 185.892 207.499 194.6 215.36 194.708" stroke="#929292" stroke-width="2.82274" stroke-linecap="round" stroke-linejoin="round"/>
<path d="M90.3965 112.494C121.183 112.811 151.251 92.0661 145.18 49.4312" stroke="#B5B5B5" stroke-width="2.37029" stroke-miterlimit="10" stroke-linecap="round"/>
<path d="M79.2497 31.4346C79.2497 31.4346 60.6183 43.2185 62.2086 63.4437" stroke="#B5B5B5" stroke-width="2.37029" stroke-miterlimit="10" stroke-linecap="round"/>
</svg>
