<svg width="303" height="303" viewBox="0 0 303 303" fill="none" xmlns="http://www.w3.org/2000/svg">
<circle cx="151.5" cy="151.5" r="151.5" fill="#FFD600"/>
<path d="M151.24 57.8766C143.905 57.8766 136.569 57.7689 129.24 57.9557C127.507 58.0006 125.502 58.649 124.151 59.6999C122.192 61.2249 121.84 63.6176 122.842 65.9887C123.979 68.6796 126.181 69.6927 128.985 69.6909C143.738 69.6855 158.49 69.7017 173.243 69.6855C177.412 69.682 180.126 67.3019 180.117 63.7595C180.108 60.1669 177.495 57.9 173.241 57.8856C165.907 57.8605 158.574 57.8784 151.24 57.8748V57.8766Z" fill="black"/>
<path d="M151.161 52.5905C151.161 52.6031 151.161 52.6139 151.161 52.6265C158.58 52.6265 165.998 52.6534 173.417 52.6157C177.47 52.5941 180.076 50.2859 180.125 46.8172C180.173 43.2857 177.45 40.8068 173.327 40.7996C158.574 40.7708 143.823 40.769 129.07 40.7996C125.057 40.8068 122.411 43.1887 122.372 46.6466C122.332 50.2392 124.962 52.5726 129.16 52.5869C136.492 52.6103 143.827 52.5941 151.159 52.5941L151.161 52.5905Z" fill="black"/>
<path d="M151.127 35.5886V35.5976C152.657 35.5976 154.189 35.5976 155.72 35.5976C157.25 35.5976 158.783 35.6282 160.313 35.585C163.877 35.4862 166.376 33.0379 166.363 29.7039C166.35 26.3826 163.836 23.8605 160.286 23.821C154.247 23.7546 148.206 23.7528 142.167 23.821C138.624 23.8605 136.122 26.4005 136.124 29.7309C136.124 33.0738 138.614 35.5132 142.196 35.5797C145.172 35.6353 148.15 35.5904 151.127 35.5904V35.5886Z" fill="black"/>
<path d="M151.193 74.8995C145.989 74.8995 140.783 74.8313 135.58 74.9139C126.244 75.0648 118.215 81.5405 116.285 90.6406C113.677 102.943 107.333 112.886 98.1643 121.379C76.9535 141.025 68.1678 165.36 72.6406 193.917C80.0557 241.259 128.134 271.478 173.888 257.393C203.431 248.299 222.435 228.157 229.018 197.997C235.616 167.763 226.667 141.679 203.67 120.757C194.725 112.618 188.779 102.9 186.289 91.0555C184.288 81.5351 176.318 75.0199 166.55 74.9103C161.432 74.8528 156.311 74.8995 151.193 74.8995Z" fill="#292929"/>
<path d="M153.221 0H148.375V27.4655H153.221V0Z" fill="black"/>
<path d="M147.599 78.2503L110.097 194.175C109.416 196.279 111.018 198.425 113.27 198.425H184.368C186.577 198.425 188.174 196.353 187.571 194.271L153.976 78.3456C153.569 76.9425 152.262 75.9736 150.773 75.9736C149.322 75.9736 148.038 76.8949 147.599 78.2503V78.2503Z" stroke="#FFD600" stroke-width="1.78761" stroke-miterlimit="10"/>
<path d="M157.285 169.193C156.327 170.211 155.37 171.23 154.414 172.248C153.644 172.435 152.871 172.622 152.101 172.809C152.147 172.677 152.192 172.544 152.239 172.413C151.47 171.896 150.689 171.395 149.94 170.849C149.755 170.714 149.62 170.455 149.546 170.227C149.041 168.673 148.544 167.118 148.086 165.55C147.994 165.234 147.994 164.829 148.107 164.524C148.844 162.503 153.358 161.079 155.075 162.323C156.801 163.574 157.455 165.284 157.198 167.394C157.127 167.982 157.252 168.593 157.288 169.193H157.285Z" fill="black"/>
<path d="M148.833 218.588C148.452 215.792 148.321 212.965 148.019 210.159C147.908 209.128 147.293 208.113 148.344 207.177C148.547 206.998 148.348 206.416 148.43 206.039C148.529 205.586 148.595 204.988 148.906 204.745C149.799 204.045 150.726 203.378 151.689 202.694C151.689 202.694 156.79 197.035 162.619 198.198C163.993 198.474 164.631 197.747 164.874 196.678C165.017 196.051 164.947 195.37 164.94 194.715C164.902 191.582 164.883 188.447 164.8 185.316C164.732 182.766 164.786 180.186 164.407 177.677C164.128 175.835 163.327 174.075 161.746 172.775C160.503 171.752 159.456 170.493 158.276 169.39C158.067 169.196 157.622 169.254 157.286 169.196C156.329 170.215 155.371 171.233 154.416 172.252C154.326 172.64 154.268 173.039 154.141 173.412C153.528 175.201 152.959 177.008 152.255 178.76C151.536 180.544 153.045 182.519 151.705 184.228C151.604 184.357 151.692 184.634 151.692 184.81C151.213 185.022 150.819 185.198 150.478 185.349C150.826 186.2 151.148 186.987 151.491 187.828C150.295 188.092 149.296 188.313 148.297 188.535C148.279 188.478 148.261 188.42 148.245 188.363C148.955 187.986 149.666 187.608 150.453 187.19C150.277 186.61 150.67 185.376 149.425 185.636C148.078 185.92 146.717 186.486 145.567 187.244C144.399 188.013 143.483 189.166 142.465 190.143C139.971 188.131 137.573 186.198 135.177 184.266C135.062 184.395 134.949 184.524 134.834 184.654C136.954 186.622 139.075 188.591 141.376 190.729C137.879 191.422 136.921 192.726 137.396 195.879C137.764 198.323 138.286 200.743 138.674 203.186C138.897 204.589 139.197 204.792 140.611 204.091C140.496 204.37 140.453 204.582 140.336 204.74C139.188 206.286 137.974 207.788 136.9 209.383C136.506 209.969 136.1 210.881 136.289 211.451C136.627 212.471 137.67 212.561 138.653 212.254C139.443 212.006 140.221 211.715 141.313 211.334V221.586C142.303 221.277 142.982 221.066 143.659 220.854C142.774 222.595 141.477 223.781 139.689 224.269C138.734 224.53 138.177 225.004 137.958 225.992C138.243 226.161 138.504 226.441 138.77 226.45C140.959 226.516 143.178 226.962 145.306 226.024C146.109 225.67 146.796 225.291 147.855 225.464C149.731 225.769 150.571 224.53 150.027 222.739C149.609 221.363 149.027 220.007 148.834 218.598L148.833 218.588ZM144.87 199.649C144.469 198.65 144.144 197.84 143.767 196.899C144.877 197.131 145.633 197.287 146.567 197.481C146.064 198.124 145.579 198.742 144.87 199.649Z" fill="black"/>
</svg>
