<svg width="98" height="96" viewBox="0 0 98 96" fill="none" xmlns="http://www.w3.org/2000/svg">
<path d="M94.1815 35.5932L84.9203 34.2462L80.7789 25.8461C80.0232 24.3136 78.4922 23.3607 76.7845 23.3607C75.0768 23.3607 73.5457 24.3136 72.79 25.8461L68.6486 34.2462L67.3621 34.4328L59.6672 33.3142L53.6185 21.0466C52.7049 19.1947 50.8557 18.0442 48.7927 18.0442C46.7297 18.0442 44.8805 19.1947 43.9669 21.0466L37.9182 33.3142L30.4295 34.4032L29.3503 34.2462L25.2089 25.8461C24.4532 24.3136 22.9221 23.3607 21.2144 23.3607C19.5068 23.3607 17.9757 24.3136 17.22 25.8461L13.0786 34.2462L3.81745 35.5932C2.12733 35.8391 0.748687 37.0016 0.221141 38.6274C-0.306406 40.2532 0.125722 42.0053 1.34862 43.1986L8.04989 49.7369L6.46834 58.9692C6.17989 60.6543 6.85879 62.3251 8.24073 63.3295C9.02163 63.8971 9.93524 64.1858 10.8543 64.1858C11.5617 64.1858 12.2735 64.0145 12.9316 63.6687L21.2144 59.3095L29.4972 63.6687C29.5115 63.6764 29.5257 63.6819 29.54 63.6896L28.8874 67.5011C28.5387 69.5363 29.359 71.5551 31.0283 72.7693C32.6976 73.9834 34.8692 74.1404 36.6953 73.1787L48.7927 66.8128L60.8901 73.1787C61.6842 73.597 62.544 73.8034 63.3995 73.8034C64.5105 73.8034 65.6139 73.4554 66.5582 72.7693C68.2275 71.5551 69.0479 69.5363 68.6991 67.5011L68.0761 63.8641C68.2198 63.806 68.3624 63.7423 68.5028 63.6687L76.7856 59.3095L85.0684 63.6687C86.5808 64.4646 88.3773 64.334 89.7593 63.3295C91.1412 62.3251 91.8201 60.6532 91.5317 58.9692L89.9501 49.7369L96.6514 43.1986C97.8743 42.0053 98.3064 40.2532 97.7789 38.6274C97.2513 37.0016 95.8727 35.8391 94.1826 35.5932H94.1815ZM30.3187 59.1404L22.2333 54.8866C21.9142 54.7186 21.5632 54.6341 21.2122 54.6341C20.8613 54.6341 20.5114 54.7186 20.1911 54.8866L10.8872 59.7826C10.8653 59.7947 10.8554 59.7958 10.8554 59.7958C10.8357 59.7958 10.7929 59.7651 10.7874 59.7464C10.7874 59.7464 10.7852 59.7365 10.7896 59.7124L12.5664 49.3428C12.6881 48.6303 12.4523 47.9036 11.9357 47.3997L4.40861 40.0556C4.39106 40.0381 4.38667 40.0293 4.38667 40.0293C4.38009 40.0106 4.39655 39.9601 4.413 39.9492C4.413 39.9492 4.42177 39.9437 4.4459 39.9404L14.8477 38.4276C15.5617 38.3234 16.1802 37.8744 16.4994 37.2267L21.1519 27.7924C21.1629 27.7705 21.1706 27.7628 21.1706 27.7628C21.1859 27.7507 21.2396 27.7507 21.255 27.7628C21.255 27.7628 21.2627 27.7694 21.2736 27.7924L24.9292 35.2057L24.3918 35.2836C22.3496 35.5811 20.6847 36.9852 20.0475 38.9502C19.4102 40.9141 19.9312 43.0306 21.4096 44.472L30.5534 53.3925L30.9285 55.5847L30.3187 59.1437V59.1404ZM61.8684 53.6219L64.3734 68.2421C64.4645 68.7723 64.165 69.0797 63.9775 69.2158C63.7899 69.3519 63.4061 69.5418 62.9301 69.2915L49.8116 62.3887C49.4925 62.2208 49.1415 62.1362 48.7905 62.1362C48.4396 62.1362 48.0897 62.2208 47.7694 62.3887L34.651 69.2915C34.175 69.5418 33.79 69.3519 33.6035 69.2158C33.4171 69.0797 33.1166 68.7734 33.2076 68.2421L35.7126 53.6219C35.8344 52.9095 35.5986 52.1827 35.082 51.6789L24.4685 41.3247C24.0836 40.9492 24.1461 40.5244 24.2174 40.3048C24.2887 40.0853 24.4883 39.7044 25.0202 39.6275L39.6873 37.4945C40.4013 37.3902 41.0199 36.9413 41.3391 36.2936L47.8977 22.9908C48.1357 22.5077 48.5591 22.4364 48.7894 22.4364C49.0208 22.4364 49.4431 22.5088 49.6811 22.9908L56.2398 36.2936C56.5589 36.9413 57.1764 37.3902 57.8915 37.4945L72.5586 39.6275C73.0906 39.7055 73.2902 40.0853 73.3615 40.3048C73.4328 40.5244 73.4953 40.9492 73.1103 41.3258L62.498 51.68C61.9814 52.1838 61.7456 52.9106 61.8673 53.623L61.8684 53.6219ZM93.61 40.0271C93.61 40.0271 93.6057 40.0359 93.5881 40.0534L86.061 47.3975C85.5444 47.9025 85.3075 48.6281 85.4303 49.3406L87.2071 59.7102C87.2115 59.7343 87.2093 59.7442 87.2093 59.7442C87.2027 59.7629 87.1599 59.7936 87.1413 59.7936C87.1413 59.7936 87.1314 59.7925 87.1095 59.7804L77.8056 54.8844C77.4864 54.7164 77.1355 54.6319 76.7845 54.6319C76.4335 54.6319 76.0836 54.7164 75.7634 54.8844L67.2996 59.338L66.862 56.7868L67.5277 52.9029L76.1747 44.4665C77.652 43.0251 78.1741 40.9086 77.5369 38.9447C76.8996 36.9808 75.2347 35.5756 73.1926 35.2781L73.0412 35.2562L76.7242 27.7869C76.7351 27.765 76.7428 27.7573 76.7428 27.7573C76.7582 27.7452 76.8119 27.7452 76.8273 27.7573C76.8273 27.7573 76.8349 27.7639 76.8459 27.7869L81.4984 37.2212C81.8176 37.8689 82.435 38.3179 83.1501 38.4222L93.5519 39.9349C93.576 39.9382 93.5848 39.9437 93.5848 39.9437C93.6002 39.9557 93.6166 40.0062 93.6111 40.0238L93.61 40.0271Z" fill="black"/>
<path d="M47.1582 2.19555V7.53841C47.1582 8.75145 48.1398 9.73395 49.3517 9.73395C50.5637 9.73395 51.5453 8.75145 51.5453 7.53841V2.19555C51.5453 0.982507 50.5637 0 49.3517 0C48.1398 0 47.1582 0.982507 47.1582 2.19555Z" fill="black"/>
<path d="M66.417 15.5226L70.1909 11.7452C71.0475 10.8878 71.0475 9.49806 70.1909 8.6396C69.3344 7.78224 67.9458 7.78224 67.0893 8.6396L63.3153 12.417C62.4587 13.2744 62.4587 14.6642 63.3153 15.5226C63.7441 15.9519 64.3046 16.1659 64.8661 16.1659C65.4277 16.1659 65.9892 15.9519 66.417 15.5226Z" fill="black"/>
<path d="M28.5126 8.6396C27.656 9.49696 27.656 10.8867 28.5126 11.7441L32.2865 15.5215C32.7154 15.9508 33.2758 16.1648 33.8374 16.1648C34.3989 16.1648 34.9605 15.9508 35.3882 15.5215C36.2448 14.6642 36.2448 13.2744 35.3882 12.417L31.6142 8.6396C30.7576 7.78224 29.3691 7.78224 28.5126 8.6396Z" fill="black"/>
<path d="M51.5453 93.7915V88.4497C51.5453 87.2367 50.5637 86.2542 49.3517 86.2542C48.1398 86.2542 47.1582 87.2367 47.1582 88.4497V93.7915C47.1582 95.0045 48.1398 95.987 49.3517 95.987C50.5637 95.987 51.5453 95.0045 51.5453 93.7915Z" fill="black"/>
<path d="M31.6142 87.3465L35.3882 83.5691C36.2448 82.7117 36.2448 81.3219 35.3882 80.4646C34.5316 79.6072 33.1431 79.6072 32.2865 80.4646L28.5126 84.242C27.656 85.0994 27.656 86.4891 28.5126 87.3465C28.9414 87.7757 29.5018 87.9898 30.0634 87.9898C30.6249 87.9898 31.1865 87.7757 31.6142 87.3465Z" fill="black"/>
<path d="M68.6401 87.9898C69.2016 87.9898 69.7632 87.7757 70.1909 87.3465C71.0475 86.4891 71.0475 85.0994 70.1909 84.242L66.417 80.4646C65.5604 79.6072 64.1719 79.6072 63.3153 80.4646C62.4587 81.3219 62.4587 82.7117 63.3153 83.5691L67.0893 87.3465C67.5181 87.7757 68.0786 87.9898 68.6401 87.9898Z" fill="black"/>
<path d="M57.5809 51.5582L59.225 61.1549C59.2842 61.5029 59.0879 61.7049 58.965 61.7938C58.8422 61.8827 58.5899 62.0079 58.2774 61.8432L49.6666 57.3127C49.4571 57.2018 49.2268 57.147 48.9965 57.147C48.7662 57.147 48.5358 57.2018 48.3264 57.3127L39.7167 61.8432C39.4041 62.0079 39.1519 61.8827 39.029 61.7938C38.9062 61.7049 38.7099 61.5029 38.7691 61.1549L40.4132 51.5582C40.4932 51.0905 40.3386 50.6141 39.9986 50.2826L33.033 43.4863C32.7807 43.2393 32.8213 42.9604 32.8674 42.8166C32.9145 42.6728 33.0451 42.4225 33.3938 42.372L43.0202 40.9724C43.4896 40.9043 43.8943 40.609 44.1038 40.1842L48.4086 31.4536C48.5644 31.1363 48.8429 31.0891 48.9943 31.0891C49.1456 31.0891 49.4231 31.1363 49.58 31.4536L53.8848 40.1842C54.0943 40.609 54.5001 40.9043 54.9684 40.9724L64.5947 42.372C64.9446 42.4225 65.0751 42.6728 65.1212 42.8166C65.1684 42.9604 65.2089 43.2393 64.9556 43.4863L57.99 50.2826C57.6511 50.6141 57.4954 51.0905 57.5754 51.5582H57.5809Z" fill="black"/>
</svg>
