<svg width="26" height="33" viewBox="0 0 26 33" fill="none" xmlns="http://www.w3.org/2000/svg">
<path d="M7.72461 26.6489L17.7221 26.6489V28.3152C17.7221 29.199 17.371 30.0467 16.7461 30.6716C16.1211 31.2966 15.2735 31.6477 14.3896 31.6477L11.0571 31.6477C10.1733 31.6477 9.32564 31.2966 8.70068 30.6716C8.07571 30.0467 7.72461 29.199 7.72461 28.3152L7.72461 26.6489Z" fill="black" stroke="black" stroke-width="2" stroke-linecap="round" stroke-linejoin="round"/>
<path d="M17.7211 23.8496C20.1138 22.7147 22.0491 20.7993 23.2086 18.4184C24.3682 16.0375 24.683 13.3329 24.1013 10.7493C23.5196 8.16576 22.0761 5.85705 20.008 4.20285C17.94 2.54866 15.3706 1.64746 12.7224 1.64746C10.0742 1.64746 7.50476 2.54866 5.43672 4.20285C3.36868 5.85705 1.92513 8.16576 1.34345 10.7493C0.761767 13.3329 1.07658 16.0375 2.23613 18.4184C3.39568 20.7993 5.33092 22.7147 7.72362 23.8496L7.72362 26.649M17.7211 23.8496L17.7211 20.9277M17.7211 23.8496L21.6646 23.8496" stroke="black" stroke-width="2" stroke-linecap="round" stroke-linejoin="round"/>
<path d="M3.73717 16.7646L3.91513 15.717L6.73565 13.4505C6.97741 13.2491 7.18223 13.0678 7.35012 12.9066C7.52024 12.7454 7.65455 12.5876 7.75305 12.4331C7.85378 12.2764 7.91982 12.1074 7.95116 11.9261C7.98473 11.7247 7.96795 11.5512 7.90079 11.4057C7.83587 11.2579 7.73066 11.1449 7.58516 11.0665C7.4419 10.9859 7.26953 10.9457 7.06807 10.9457C6.85765 10.9457 6.66625 10.9882 6.49389 11.0732C6.32152 11.1583 6.17826 11.2803 6.0641 11.4392C5.94993 11.5982 5.87382 11.7873 5.83577 12.0067L4.45573 12.0067C4.53184 11.5568 4.70085 11.1661 4.96275 10.8348C5.22466 10.5035 5.55372 10.2472 5.94993 10.0659C6.34615 9.8846 6.78489 9.79394 7.26617 9.79394C7.75864 9.79394 8.17277 9.88124 8.50854 10.0558C8.84656 10.2282 9.09168 10.4677 9.24389 10.7744C9.39611 11.0811 9.43864 11.4325 9.37149 11.8287C9.32672 12.0906 9.23158 12.3481 9.08608 12.601C8.94058 12.8517 8.71225 13.1316 8.4011 13.4405C8.08994 13.7471 7.66351 14.1154 7.12179 14.5452L5.95665 15.529L5.94657 15.576L8.8376 15.576L8.6395 16.7646L3.73717 16.7646ZM9.64263 15.5559L9.83066 14.4109L13.4537 9.88796L14.4409 9.88796L14.179 11.4728L13.5914 11.4728L11.3081 14.337L11.3014 14.3907L15.3777 14.3907L15.1863 15.5559L9.64263 15.5559ZM12.7418 16.7646L13.0037 15.2033L13.1146 14.703L13.9103 9.88796L15.2736 9.88796L14.132 16.7646L12.7418 16.7646ZM17.901 13.783L17.4041 16.7646L15.977 16.7646L17.1187 9.88796L18.5054 9.88796L18.0756 12.5171L18.1327 12.5171C18.2984 12.2126 18.5256 11.9742 18.8143 11.8019C19.1031 11.6273 19.4445 11.54 19.8385 11.54C20.1966 11.54 20.4955 11.6183 20.735 11.775C20.9767 11.9295 21.148 12.1522 21.2487 12.4432C21.3495 12.732 21.3662 13.0778 21.2991 13.4808L20.7484 16.7646L19.3214 16.7646L19.825 13.7359C19.8765 13.4181 19.8351 13.1707 19.7008 12.9939C19.5687 12.817 19.3583 12.7286 19.0695 12.7286C18.8748 12.7286 18.6957 12.77 18.5323 12.8529C18.3689 12.9357 18.2312 13.0566 18.1193 13.2155C18.0096 13.3722 17.9369 13.5613 17.901 13.783Z" fill="black"/>
</svg>
