<svg width="17" height="17" viewBox="0 0 17 17" fill="none" xmlns="http://www.w3.org/2000/svg">
<path d="M13.9961 16H2.74609C1.71484 16 0.871094 15.1562 0.871094 14.125V8.5C0.871094 7.46875 1.71484 6.625 2.74609 6.625H13.9961C15.0273 6.625 15.8711 7.46875 15.8711 8.5V14.125C15.8711 15.1562 15.0273 16 13.9961 16Z" fill="white" stroke="white" stroke-width="1.5" stroke-miterlimit="10" stroke-linecap="round" stroke-linejoin="round"/>
<path d="M2.74609 6V4.75C2.74609 2.6875 4.43359 1 6.49609 1H10.2461C12.3086 1 13.9961 2.6875 13.9961 4.75V6" fill="#292929"/>
<path d="M2.74609 6V4.75C2.74609 2.6875 4.43359 1 6.49609 1H10.2461C12.3086 1 13.9961 2.6875 13.9961 4.75V6" stroke="white" stroke-width="1.5" stroke-miterlimit="10" stroke-linecap="round" stroke-linejoin="round"/>
<path d="M7.43359 10.375H9.30859" stroke="#292929" stroke-width="1.5" stroke-miterlimit="10" stroke-linecap="round" stroke-linejoin="round"/>
<path d="M8.37109 10.375V12.25" stroke="#292929" stroke-width="1.5" stroke-miterlimit="10" stroke-linecap="round" stroke-linejoin="round"/>
</svg>
