<svg width="31" height="33" viewBox="0 0 31 33" fill="none" xmlns="http://www.w3.org/2000/svg">
<path d="M4.12891 5L4.12891 13L2.4375 13L2.4375 6.60547L2.39062 6.60547L0.558594 7.75391L0.558594 6.25391L2.53906 5L4.12891 5ZM9.16699 13.1758C8.49512 13.1732 7.91699 13.0078 7.43262 12.6797C6.95085 12.3516 6.57975 11.8763 6.31933 11.2539C6.06152 10.6315 5.93392 9.88281 5.93652 9.00781C5.93652 8.13542 6.06543 7.39193 6.32324 6.77734C6.58366 6.16276 6.95475 5.69531 7.43652 5.375C7.9209 5.05208 8.49772 4.89063 9.16699 4.89063C9.83626 4.89063 10.4118 5.05208 10.8936 5.375C11.3779 5.69792 11.7503 6.16667 12.0107 6.78125C12.2712 7.39323 12.4001 8.13542 12.3975 9.00781C12.3975 9.88542 12.2673 10.6354 12.0068 11.2578C11.749 11.8802 11.3792 12.3555 10.8975 12.6836C10.4157 13.0117 9.83887 13.1758 9.16699 13.1758ZM9.16699 11.7734C9.62532 11.7734 9.99121 11.543 10.2646 11.082C10.5381 10.6211 10.6735 9.92969 10.6709 9.00781C10.6709 8.40104 10.6084 7.89583 10.4834 7.49219C10.361 7.08854 10.1865 6.78516 9.95996 6.58203C9.736 6.37891 9.47168 6.27734 9.16699 6.27734C8.71126 6.27734 8.34668 6.50521 8.07324 6.96094C7.7998 7.41667 7.66178 8.09896 7.65918 9.00781C7.65918 9.6224 7.72038 10.1354 7.84277 10.5469C7.96777 10.9557 8.14355 11.263 8.37012 11.4687C8.59668 11.6719 8.8623 11.7734 9.16699 11.7734ZM14.5918 12.0703C14.334 12.0703 14.1126 11.9792 13.9277 11.7969C13.7454 11.6146 13.6543 11.3932 13.6543 11.1328C13.6543 10.8776 13.7454 10.6589 13.9277 10.4766C14.1126 10.2943 14.334 10.2031 14.5918 10.2031C14.8418 10.2031 15.0605 10.2943 15.248 10.4766C15.4355 10.6589 15.5293 10.8776 15.5293 11.1328C15.5293 11.3047 15.485 11.4622 15.3965 11.6055C15.3105 11.7461 15.1973 11.8594 15.0566 11.9453C14.916 12.0286 14.7611 12.0703 14.5918 12.0703ZM14.5918 8.14453C14.334 8.14453 14.1126 8.05339 13.9277 7.87109C13.7454 7.6888 13.6543 7.46745 13.6543 7.20703C13.6543 6.95182 13.7454 6.73437 13.9277 6.55469C14.1126 6.3724 14.334 6.28125 14.5918 6.28125C14.8418 6.28125 15.0605 6.3724 15.248 6.55469C15.4355 6.73438 15.5293 6.95182 15.5293 7.20703C15.5293 7.38151 15.485 7.54036 15.3965 7.68359C15.3105 7.82422 15.1973 7.9362 15.0566 8.01953C14.916 8.10286 14.7611 8.14453 14.5918 8.14453ZM19.8369 13.1094C19.2536 13.1094 18.734 13.0091 18.2783 12.8086C17.8252 12.6055 17.4671 12.3268 17.2041 11.9727C16.9437 11.6159 16.8096 11.2044 16.8018 10.7383L18.5049 10.7383C18.5153 10.9336 18.5791 11.1055 18.6963 11.2539C18.8161 11.3997 18.9749 11.513 19.1728 11.5937C19.3708 11.6745 19.5934 11.7148 19.8408 11.7148C20.0986 11.7148 20.3265 11.6693 20.5244 11.5781C20.7223 11.487 20.8773 11.3607 20.9893 11.1992C21.1012 11.0378 21.1572 10.8516 21.1572 10.6406C21.1572 10.4271 21.0973 10.2383 20.9775 10.0742C20.8603 9.90755 20.6911 9.77734 20.4697 9.68359C20.251 9.58984 19.9906 9.54297 19.6885 9.54297L18.9424 9.54297L18.9424 8.30078L19.6885 8.30078C19.9437 8.30078 20.1689 8.25651 20.3643 8.16797C20.5622 8.07943 20.7158 7.95703 20.8252 7.80078C20.9346 7.64193 20.9893 7.45703 20.9893 7.24609C20.9893 7.04557 20.9411 6.86979 20.8447 6.71875C20.751 6.5651 20.6182 6.44531 20.4463 6.35938C20.277 6.27344 20.0791 6.23047 19.8525 6.23047C19.6234 6.23047 19.4137 6.27214 19.2236 6.35547C19.0335 6.4362 18.8812 6.55208 18.7666 6.70313C18.652 6.85417 18.5908 7.03125 18.583 7.23437L16.9619 7.23437C16.9697 6.77344 17.1012 6.36719 17.3564 6.01563C17.6117 5.66406 17.9554 5.38932 18.3877 5.19141C18.8226 4.99089 19.3135 4.89063 19.8603 4.89063C20.4124 4.89063 20.8955 4.99089 21.3096 5.19141C21.7236 5.39193 22.0452 5.66276 22.2744 6.00391C22.5062 6.34245 22.6208 6.72266 22.6182 7.14453C22.6208 7.59245 22.4814 7.96615 22.2002 8.26562C21.9215 8.5651 21.5583 8.75521 21.1103 8.83594L21.1103 8.89844C21.6989 8.97396 22.1468 9.17839 22.4541 9.51172C22.764 9.84245 22.9176 10.2565 22.915 10.7539C22.9176 11.2096 22.7861 11.6146 22.5205 11.9687C22.2575 12.3229 21.8942 12.6016 21.4307 12.8047C20.9671 13.0078 20.4359 13.1094 19.8369 13.1094ZM27.0879 13.1094C26.5046 13.1094 25.985 13.0091 25.5293 12.8086C25.0762 12.6055 24.7181 12.3268 24.4551 11.9727C24.1947 11.6159 24.0605 11.2044 24.0527 10.7383L25.7559 10.7383C25.7663 10.9336 25.8301 11.1055 25.9473 11.2539C26.0671 11.3997 26.2259 11.513 26.4238 11.5937C26.6217 11.6745 26.8444 11.7148 27.0918 11.7148C27.3496 11.7148 27.5775 11.6693 27.7754 11.5781C27.9733 11.487 28.1283 11.3607 28.2402 11.1992C28.3522 11.0378 28.4082 10.8516 28.4082 10.6406C28.4082 10.4271 28.3483 10.2383 28.2285 10.0742C28.1113 9.90755 27.9421 9.77734 27.7207 9.68359C27.5019 9.58984 27.2415 9.54297 26.9394 9.54297L26.1934 9.54297L26.1934 8.30078L26.9394 8.30078C27.1947 8.30078 27.4199 8.25651 27.6152 8.16797C27.8131 8.07943 27.9668 7.95703 28.0762 7.80078C28.1855 7.64193 28.2402 7.45703 28.2402 7.24609C28.2402 7.04557 28.1921 6.86979 28.0957 6.71875C28.0019 6.5651 27.8691 6.44531 27.6973 6.35938C27.528 6.27344 27.3301 6.23047 27.1035 6.23047C26.8743 6.23047 26.6647 6.27214 26.4746 6.35547C26.2845 6.4362 26.1322 6.55208 26.0176 6.70313C25.903 6.85417 25.8418 7.03125 25.834 7.23437L24.2129 7.23437C24.2207 6.77344 24.3522 6.36719 24.6074 6.01563C24.8626 5.66406 25.2064 5.38932 25.6387 5.19141C26.0736 4.99089 26.5644 4.89063 27.1113 4.89063C27.6634 4.89063 28.1465 4.99089 28.5605 5.19141C28.9746 5.39193 29.2962 5.66276 29.5254 6.00391C29.7572 6.34245 29.8717 6.72266 29.8691 7.14453C29.8717 7.59245 29.7324 7.96615 29.4512 8.26562C29.1725 8.5651 28.8092 8.75521 28.3613 8.83594L28.3613 8.89844C28.9499 8.97396 29.3978 9.17839 29.7051 9.51172C30.015 9.84245 30.1686 10.2565 30.166 10.7539C30.1686 11.2096 30.0371 11.6146 29.7715 11.9687C29.5085 12.3229 29.1452 12.6016 28.6816 12.8047C28.2181 13.0078 27.6868 13.1094 27.0879 13.1094Z" fill="black"/>
<path d="M12.1107 31.2225H4.3329C3.47734 31.2225 2.77734 30.5225 2.77734 29.667V17.2225C2.77734 16.367 3.47734 15.667 4.3329 15.667H12.1107C12.9662 15.667 13.6662 16.367 13.6662 17.2225V29.667C13.6662 30.5225 12.9662 31.2225 12.1107 31.2225Z" stroke="black" stroke-width="2" stroke-miterlimit="10" stroke-linecap="round" stroke-linejoin="round"/>
<path d="M19.8886 16.0005H27.6663C28.5219 16.0005 29.2219 16.7005 29.2219 17.556V20.6672C29.2219 21.5227 28.5219 22.2227 27.6663 22.2227H19.8886C19.033 22.2227 18.333 21.5227 18.333 20.6672V17.556C18.333 16.7005 19.033 16.0005 19.8886 16.0005Z" stroke="black" stroke-width="2" stroke-miterlimit="10" stroke-linecap="round" stroke-linejoin="round"/>
<path d="M19.8886 25.0005H27.6663C28.5219 25.0005 29.2219 25.7005 29.2219 26.556V29.6672C29.2219 30.5227 28.5219 31.2227 27.6663 31.2227H19.8886C19.033 31.2227 18.333 30.5227 18.333 29.6672V26.556C18.333 25.7005 19.033 25.0005 19.8886 25.0005Z" stroke="black" stroke-width="2" stroke-miterlimit="10" stroke-linecap="round" stroke-linejoin="round"/>
</svg>
