<svg width="288" height="272" viewBox="0 0 288 272" fill="none" xmlns="http://www.w3.org/2000/svg">
<path d="M237.39 231.395C237.39 245.355 248.705 256.661 262.678 256.661C276.65 256.661 287.966 245.355 287.966 231.395C287.966 217.434 276.65 206.128 262.678 206.128C248.705 206.128 237.39 217.434 237.39 231.395Z" fill="#ED5267"/>
<path d="M262.125 256.109C262.125 263.727 255.95 269.897 248.326 269.897V271.035C270.233 271.035 287.965 253.283 287.965 231.429" fill="#ED5267"/>
<path d="M50.5759 39.6056C50.5759 25.6454 39.2602 14.3394 25.288 14.3394C11.3158 14.3394 0 25.6454 0 39.6056C0 53.5658 11.3158 64.8718 25.288 64.8718C39.2602 64.9063 50.5759 53.5658 50.5759 39.6056Z" fill="#00C2CB"/>
<path d="M25.8745 14.8909C25.8745 7.27309 32.0498 1.10303 39.6742 1.10303V0C17.7671 0 0 17.7518 0 39.6056" fill="#00C2CB"/>
<path d="M176.912 201.578V266.45L241.874 201.578H176.912Z" fill="#ED5267"/>
<g style="mix-blend-mode:multiply">
<path d="M190.608 252.765L241.874 201.578H176.912V252.765H190.608Z" fill="url(#paint0_linear_192_1106)"/>
</g>
<path d="M118.229 179.449C143.448 219.226 196.163 231.05 236.009 205.852C275.822 180.655 287.655 127.985 262.436 88.173C237.217 48.3606 184.467 36.572 144.655 61.7693C104.843 86.9666 93.0099 139.671 118.229 179.449Z" fill="#ED5267"/>
<path d="M111.053 64.9063V0L46.1255 64.9063H111.053Z" fill="#00C2CB"/>
<g style="mix-blend-mode:multiply">
<path d="M97.3569 13.6846L46.1255 64.9064H111.053V13.6846H97.3569Z" fill="url(#paint1_linear_192_1106)"/>
</g>
<path d="M169.737 87.3457C144.518 47.5678 91.8027 35.7448 51.9561 60.942C12.1439 86.1048 0.310634 138.809 25.5296 178.587C50.7486 218.365 103.498 230.222 143.31 204.991C183.122 179.828 194.956 127.124 169.737 87.3457Z" fill="#00C2CB"/>
<path d="M118.229 179.449C124.922 189.997 133.512 198.545 143.31 204.991C183.122 179.794 194.955 127.124 169.736 87.3462C163.043 76.7985 154.453 68.25 144.655 61.8042C104.843 87.0015 93.0099 139.671 118.229 179.449Z" fill="#44417C"/>
<path d="M37.6465 111.875V151.625L43.6465 153.875V155H29.3965V153.875L35.3965 151.625V104.75L30.8965 103.625V102.5H40.2715C42.8715 102.5 44.9215 103.05 46.4215 104.15C47.9715 105.2 49.2965 106.775 50.3965 108.875L66.7465 140.15L79.2715 108.875C80.1215 106.675 81.2715 105.075 82.7215 104.075C84.1715 103.025 86.3965 102.5 89.3965 102.5H97.2715V103.625L92.7715 104.75V152.75L97.2715 153.875V155H75.8965V153.875L80.3965 152.75V111.875L62.7715 155.75H60.5215L37.6465 111.875ZM123.923 156.125C117.723 156.125 112.848 154.375 109.298 150.875C105.798 147.325 104.048 142.45 104.048 136.25C104.048 130.05 105.798 125.2 109.298 121.7C112.848 118.15 117.723 116.375 123.923 116.375C130.123 116.375 134.973 118.15 138.473 121.7C142.023 125.2 143.798 130.05 143.798 136.25C143.798 142.45 142.023 147.325 138.473 150.875C134.973 154.375 130.123 156.125 123.923 156.125ZM123.923 154.625C125.923 154.625 127.598 153.225 128.948 150.425C130.348 147.625 131.048 142.9 131.048 136.25C131.048 129.6 130.348 124.875 128.948 122.075C127.598 119.275 125.923 117.875 123.923 117.875C121.923 117.875 120.223 119.275 118.823 122.075C117.473 124.875 116.798 129.6 116.798 136.25C116.798 142.9 117.473 147.625 118.823 150.425C120.223 153.225 121.923 154.625 123.923 154.625ZM169.699 156.125C163.499 156.125 158.624 154.375 155.074 150.875C151.574 147.325 149.824 142.45 149.824 136.25C149.824 130.05 151.574 125.2 155.074 121.7C158.624 118.15 163.499 116.375 169.699 116.375C175.899 116.375 180.749 118.15 184.249 121.7C187.799 125.2 189.574 130.05 189.574 136.25C189.574 142.45 187.799 147.325 184.249 150.875C180.749 154.375 175.899 156.125 169.699 156.125ZM169.699 154.625C171.699 154.625 173.374 153.225 174.724 150.425C176.124 147.625 176.824 142.9 176.824 136.25C176.824 129.6 176.124 124.875 174.724 122.075C173.374 119.275 171.699 117.875 169.699 117.875C167.699 117.875 165.999 119.275 164.599 122.075C163.249 124.875 162.574 129.6 162.574 136.25C162.574 142.9 163.249 147.625 164.599 150.425C165.999 153.225 167.699 154.625 169.699 154.625ZM215.101 156.125C211.801 156.125 208.926 155.525 206.476 154.325C204.076 153.125 202.226 151.475 200.926 149.375C199.626 147.275 198.976 144.9 198.976 142.25V119.375H193.726V117.5H198.976V113.75C198.976 109.25 201.226 107 205.726 107H210.976V117.5H221.476V119.375H210.976V142.25C210.976 146.85 211.451 150 212.401 151.7C213.351 153.4 214.751 154.25 216.601 154.25C218.401 154.25 219.976 153.375 221.326 151.625C222.676 149.875 223.351 147.5 223.351 144.5H225.226C225.226 148.2 224.301 151.075 222.451 153.125C220.601 155.125 218.151 156.125 215.101 156.125ZM229.365 153.875L233.865 152.75V119.75L229.365 118.625V117.5H239.115C243.615 117.5 245.865 119.75 245.865 124.25V152.75L250.365 153.875V155H229.365V153.875ZM239.115 113C237.615 113 236.365 112.5 235.365 111.5C234.365 110.5 233.865 109.25 233.865 107.75C233.865 106.25 234.365 105 235.365 104C236.365 103 237.615 102.5 239.115 102.5C240.615 102.5 241.865 103 242.865 104C243.865 105 244.365 106.25 244.365 107.75C244.365 109.25 243.865 110.5 242.865 111.5C241.865 112.5 240.615 113 239.115 113Z" fill="white"/>
<defs>
<linearGradient id="paint0_linear_192_1106" x1="209.401" y1="252.78" x2="209.401" y2="201.565" gradientUnits="userSpaceOnUse">
<stop stop-color="white" stop-opacity="0"/>
<stop offset="1" stop-color="#ED5267"/>
</linearGradient>
<linearGradient id="paint1_linear_192_1106" x1="78.9999" y1="14.0002" x2="78.5862" y2="64.8969" gradientUnits="userSpaceOnUse">
<stop stop-color="white" stop-opacity="0"/>
<stop offset="1" stop-color="#00878D"/>
</linearGradient>
</defs>
</svg>
