<svg width="41" height="40" viewBox="0 0 41 40" fill="none" xmlns="http://www.w3.org/2000/svg">
<path d="M19.8145 8.06236L31.9396 20.1875L15.3097 36.8385C14.5308 37.6173 13.5414 38.1226 12.4678 38.312L2.48987 39.975C2.36356 39.996 2.25831 39.996 2.13201 39.996C1.58469 39.996 1.03738 39.7645 0.637419 39.3645C0.153256 38.8804 -0.0783 38.1857 0.0269527 37.5121L1.68995 27.5341C1.8794 26.4605 2.38461 25.4712 3.16349 24.6923L19.8145 8.06236ZM37.4759 2.52607C35.855 0.884123 33.7078 0 31.4133 0C29.1188 0 26.9717 0.884123 25.3508 2.52607L22.8037 5.07318L34.9288 17.1983L37.4759 14.6512C39.1178 13.0303 40.002 10.8831 40.002 8.58862C40.002 6.29411 39.1178 4.14696 37.4759 2.52607Z" fill="white"/>
</svg>
