<svg width="35" height="37" viewBox="0 0 35 37" fill="none" xmlns="http://www.w3.org/2000/svg">
<path d="M1.63673 20.7335L2.4587 20.9554C2.52694 20.9736 2.58078 21.0276 2.59898 21.096L2.82039 21.9198C2.87347 22.1166 3.15252 22.1166 3.2056 21.9198L3.42701 21.096C3.44521 21.0276 3.49905 20.9736 3.56805 20.9554L4.39003 20.7335C4.58642 20.6803 4.58642 20.4006 4.39003 20.3474L3.56805 20.1255C3.49981 20.1072 3.44597 20.0533 3.42701 19.9849L3.2056 19.1611C3.15252 18.9642 2.87347 18.9642 2.82039 19.1611L2.59898 19.9849C2.58078 20.0533 2.52694 20.1072 2.4587 20.1255L1.63673 20.3474C1.44033 20.4006 1.44033 20.6803 1.63673 20.7335Z" fill="white"/>
<path d="M10.6783 3.00838L12.116 3.39597C12.2358 3.42865 12.3298 3.52213 12.3617 3.64221L12.7484 5.08313C12.8409 5.42816 13.3292 5.42816 13.4218 5.08313L13.8085 3.64221C13.8411 3.52213 13.9343 3.42789 14.0542 3.39597L15.4918 3.00838C15.8361 2.91566 15.8361 2.42624 15.4918 2.33352L14.0542 1.94593C13.9343 1.91325 13.8403 1.81977 13.8085 1.6997L13.4218 0.258773C13.3292 -0.0862578 12.8409 -0.0862578 12.7484 0.258773L12.3617 1.6997C12.3291 1.81977 12.2358 1.91401 12.116 1.94593L10.6783 2.33352C10.3341 2.42624 10.3341 2.91566 10.6783 3.00838Z" fill="white"/>
<path d="M34.1772 23.4192L32.7395 23.0316C32.6197 22.999 32.5257 22.9055 32.4939 22.7854L32.1071 21.3445C32.0146 20.9994 31.5263 20.9994 31.4338 21.3445L31.0471 22.7854C31.0145 22.9055 30.9212 22.9997 30.8014 23.0316L29.3637 23.4192C29.0194 23.5119 29.0194 24.0014 29.3637 24.0941L30.8014 24.4817C30.9212 24.5144 31.0152 24.6078 31.0471 24.7279L31.4338 26.1688C31.5263 26.5139 32.0146 26.5139 32.1071 26.1688L32.4939 24.7279C32.5265 24.6078 32.6197 24.5136 32.7395 24.4817L34.1772 24.0941C34.5215 24.0014 34.5215 23.5119 34.1772 23.4192Z" fill="white"/>
<path d="M34.52 3.46573C34.3804 2.93831 33.9664 2.52336 33.4402 2.38352C28.8245 1.15235 24.3545 2.33108 19.7745 5.98355C18.5946 6.9244 17.4057 8.03397 16.1993 9.31226L8.50503 8.97939C8.08949 8.96039 7.67092 9.12227 7.37216 9.42094L5.34226 11.4554C4.75384 12.0452 4.75384 13.005 5.34226 13.5948L9.56131 17.8233C9.3634 18.1182 9.16473 18.4153 8.9653 18.7193C8.57176 19.3189 8.65213 20.1215 9.1579 20.6284L9.52263 20.9939L8.39053 22.7442C8.00533 23.3392 8.08873 24.1349 8.5892 24.6373L12.3169 28.3733C12.6065 28.6644 12.9955 28.8149 13.3868 28.8149C13.6704 28.8149 13.9555 28.7358 14.2057 28.5732L15.9513 27.4386L16.3168 27.8049C16.6072 28.0959 16.9962 28.2464 17.3875 28.2464C17.6764 28.2464 17.9668 28.1651 18.2208 27.9971C18.5241 27.7965 18.8191 27.5982 19.1141 27.399L23.3339 31.6283C23.6281 31.9232 24.014 32.0706 24.4008 32.0706C24.7875 32.0706 25.1742 31.9232 25.4684 31.6283L27.4983 29.5939C27.7963 29.2952 27.9571 28.8825 27.9389 28.4592L27.6075 20.7667C33.9103 14.829 36.0653 9.28794 34.52 3.46725V3.46573ZM13.3845 27.3025L12.8499 27.8368L13.3838 27.3018L9.65609 23.5657L10.613 22.0868L14.8601 26.3427L13.3845 27.3025ZM10.428 16.5526L6.40915 12.5247L8.43906 10.4902L14.8821 10.7691C13.43 12.4419 11.9506 14.3623 10.428 16.5526ZM17.9804 21.9857C17.1744 21.9857 16.4154 21.6711 15.8459 21.0996C14.6691 19.9201 14.6691 18.0011 15.8459 16.8209C16.9863 15.6771 18.9753 15.6771 20.115 16.8209C20.6852 17.3924 20.9991 18.1524 20.9991 18.9602C20.9991 19.7681 20.6852 20.5281 20.115 21.0996C19.5448 21.6711 18.7865 21.9857 17.9804 21.9857ZM24.4015 30.5575L20.3819 26.5289C22.5566 25.0119 24.4774 23.5307 26.1531 22.0754L26.4314 28.5231L24.4015 30.5575ZM25.2038 16.3694C23.9648 16.3694 22.8 15.8861 21.9242 15.0076C21.0477 14.1298 20.5654 12.9624 20.5654 11.7206C20.5654 10.4788 21.0477 9.3115 21.9242 8.43373C22.8 7.55519 23.9648 7.07184 25.2038 7.07184C26.4428 7.07184 27.6075 7.55519 28.4833 8.43373C29.3599 9.3115 29.8422 10.4788 29.8422 11.7206C29.8422 12.9624 29.3599 14.1298 28.4833 15.0076C27.6075 15.8861 26.4428 16.3694 25.2038 16.3694Z" fill="white"/>
<path d="M17.9804 17.4471C17.577 17.4471 17.1978 17.6044 16.9127 17.8902C16.3243 18.4799 16.3243 19.4398 16.9127 20.0295C17.4829 20.601 18.477 20.601 19.0472 20.0295C19.3324 19.7438 19.4893 19.3638 19.4893 18.9602C19.4893 18.5567 19.3324 18.1767 19.0472 17.8909C18.7621 17.6052 18.383 17.4479 17.9804 17.4479V17.4471Z" fill="white"/>
<path d="M4.6584 27.1545C4.59016 27.2229 -1.58524 34.6121 0.389311 36.5911C0.660774 36.8632 1.0202 37 1.48426 37C2.38661 37 3.6825 36.4794 5.48113 35.4139C7.27825 34.3492 9.16787 32.9501 9.80482 32.3117C10.4926 31.6231 10.871 30.7074 10.871 29.7331C10.871 28.7588 10.4918 27.843 9.80482 27.1545C8.38533 25.7325 6.07714 25.7325 4.65916 27.1545H4.6584ZM8.73717 31.2424C7.46858 32.5138 2.63912 35.6396 1.48047 35.4975C1.34322 34.3302 4.4567 29.496 5.7253 28.2245C6.39031 27.5588 7.3882 27.4273 8.1859 27.8278L5.40151 31.5677L9.13375 28.777C9.28085 29.0704 9.36123 29.3956 9.36123 29.7338C9.36123 30.3038 9.13982 30.8396 8.73717 31.2431V31.2424Z" fill="white"/>
<path d="M9.12548 11.3112L7.86219 12.6845L10.2174 14.8732C10.8452 14.079 12.1298 12.4914 13.001 11.6327L9.12548 11.3104V11.3112Z" fill="white"/>
<path d="M25.5466 27.6842L24.1764 28.9503L21.9926 26.5898C22.785 25.9605 24.369 24.6731 25.2259 23.7999L25.5474 27.6842H25.5466Z" fill="white"/>
</svg>
