<svg width="203" height="215" viewBox="0 0 203 215" fill="none" xmlns="http://www.w3.org/2000/svg">
<path d="M9.49274 119.984L14.2602 121.268C14.656 121.374 14.9682 121.686 15.0738 122.082L16.358 126.849C16.6659 127.989 18.2843 127.989 18.5922 126.849L19.8764 122.082C19.9819 121.686 20.2942 121.374 20.6944 121.268L25.4618 119.984C26.6009 119.676 26.6009 118.058 25.4618 117.75L20.6944 116.466C20.2986 116.36 19.9863 116.048 19.8764 115.652L18.5922 110.885C18.2843 109.746 16.6659 109.746 16.358 110.885L15.0738 115.652C14.9682 116.048 14.656 116.36 14.2602 116.466L9.49274 117.75C8.35366 118.058 8.35366 119.676 9.49274 119.984Z" fill="#FFD600"/>
<path d="M61.9345 17.4094L70.2731 19.6524C70.968 19.8415 71.5133 20.3825 71.6981 21.0774L73.941 29.4159C74.4776 31.4126 77.3099 31.4126 77.8464 29.4159L80.0894 21.0774C80.2785 20.3825 80.8195 19.8371 81.5144 19.6524L89.853 17.4094C91.8496 16.8729 91.8496 14.0406 89.853 13.504L81.5144 11.2611C80.8195 11.0719 80.2741 10.531 80.0894 9.8361L77.8464 1.49752C77.3099 -0.499172 74.4776 -0.499172 73.941 1.49752L71.6981 9.8361C71.5089 10.531 70.968 11.0763 70.2731 11.2611L61.9345 13.504C59.9378 14.0406 59.9378 16.8729 61.9345 17.4094Z" fill="#FFD600"/>
<path d="M198.228 135.526L189.889 133.283C189.194 133.094 188.649 132.553 188.464 131.858L186.221 123.52C185.685 121.523 182.853 121.523 182.316 123.52L180.073 131.858C179.884 132.553 179.343 133.099 178.648 133.283L170.31 135.526C168.313 136.063 168.313 138.895 170.31 139.432L178.648 141.675C179.343 141.864 179.888 142.405 180.073 143.1L182.316 151.438C182.853 153.435 185.685 153.435 186.221 151.438L188.464 143.1C188.654 142.405 189.194 141.859 189.889 141.675L198.228 139.432C200.225 138.895 200.225 136.063 198.228 135.526Z" fill="#FFD600"/>
<path d="M200.215 20.0569C199.406 17.0047 197.004 14.6034 193.952 13.7942C167.182 6.66944 141.255 13.4907 114.692 34.6275C107.848 40.0722 100.952 46.4932 93.9551 53.8906L49.3287 51.9643C46.9186 51.8544 44.4909 52.7911 42.7581 54.5196L30.9847 66.293C27.5718 69.7058 27.5718 75.2605 30.9847 78.6733L55.4551 103.144C54.3072 104.85 53.1549 106.57 51.9983 108.329C49.7157 111.799 50.1819 116.443 53.1154 119.377L55.2308 121.492L48.6646 131.621C46.4304 135.064 46.9142 139.669 49.8169 142.576L71.4374 164.197C73.1174 165.881 75.3736 166.752 77.6429 166.752C79.2878 166.752 80.9414 166.294 82.3928 165.353L92.5169 158.787L94.6368 160.907C96.3212 162.591 98.5774 163.462 100.847 163.462C102.522 163.462 104.207 162.992 105.68 162.02C107.439 160.859 109.15 159.711 110.861 158.558L135.336 183.033C137.042 184.74 139.281 185.593 141.524 185.593C143.767 185.593 146.01 184.74 147.716 183.033L159.49 171.26C161.218 169.531 162.15 167.143 162.045 164.694L160.123 120.177C196.679 85.8157 209.178 53.7499 200.215 20.0657V20.0569ZM77.6297 158L74.5292 161.092L77.6253 157.995L56.0048 136.375L61.5551 127.816L86.1882 152.445L77.6297 158ZM60.482 95.7903L37.1726 72.4809L48.9461 60.7075L86.3158 62.3216C77.8936 72.0016 69.3132 83.1153 60.482 95.7903ZM104.286 127.232C99.6109 127.232 95.2085 125.411 91.9056 122.103C85.0799 115.278 85.0799 104.173 91.9056 97.3428C98.5202 90.7238 110.056 90.7238 116.666 97.3428C119.974 100.65 121.794 105.048 121.794 109.723C121.794 114.398 119.974 118.796 116.666 122.103C113.359 125.411 108.961 127.232 104.286 127.232ZM141.528 176.836L118.214 153.523C130.828 144.744 141.968 136.173 151.687 127.75L153.302 165.063L141.528 176.836ZM146.181 94.7304C138.995 94.7304 132.24 91.9333 127.16 86.8492C122.076 81.7695 119.279 75.0142 119.279 67.8279C119.279 60.6416 122.076 53.8862 127.16 48.8066C132.24 43.7225 138.995 40.9254 146.181 40.9254C153.368 40.9254 160.123 43.7225 165.203 48.8066C170.287 53.8862 173.084 60.6416 173.084 67.8279C173.084 75.0142 170.287 81.7695 165.203 86.8492C160.123 91.9333 153.368 94.7304 146.181 94.7304Z" fill="black"/>
<path d="M104.286 100.967C101.946 100.967 99.747 101.877 98.0933 103.531C94.6805 106.944 94.6805 112.498 98.0933 115.911C101.401 119.218 107.166 119.218 110.474 115.911C112.127 114.257 113.038 112.058 113.038 109.723C113.038 107.388 112.127 105.189 110.474 103.535C108.82 101.881 106.621 100.971 104.286 100.971V100.967Z" fill="#FFCA10"/>
<path d="M27.0187 157.142C26.6229 157.538 -9.19437 200.299 2.258 211.752C3.83248 213.326 5.91713 214.118 8.60869 214.118C13.8423 214.118 21.3585 211.105 31.7905 204.939C42.2137 198.778 53.1735 190.681 56.8678 186.987C60.8568 183.002 63.0514 177.703 63.0514 172.064C63.0514 166.426 60.8524 161.127 56.8678 157.142C48.6348 148.913 35.2473 148.913 27.0231 157.142H27.0187ZM50.6755 180.799C43.3176 188.157 15.3068 206.246 8.58671 205.423C7.79067 198.668 25.8488 170.692 33.2066 163.334C37.0637 159.482 42.8514 158.721 47.4781 161.039L31.3287 182.681L52.9756 166.532C53.8288 168.229 54.295 170.112 54.295 172.069C54.295 175.367 53.0108 178.468 50.6755 180.803V180.799Z" fill="#FFCA10"/>
<path d="M52.9271 65.4577L45.6001 73.4049L59.2603 86.0711C62.9018 81.4752 70.352 72.2878 75.4053 67.3181L52.9271 65.4533V65.4577Z" fill="#FFCA10"/>
<path d="M148.17 160.208L140.223 167.535L127.556 153.875C132.152 150.233 141.34 142.783 146.309 137.73L148.174 160.208H148.17Z" fill="#FFCA10"/>
</svg>
