<svg width="73" height="77" viewBox="0 0 73 77" fill="none" xmlns="http://www.w3.org/2000/svg">
<path d="M3.41374 43.148L5.12814 43.6098C5.27048 43.6478 5.38277 43.7601 5.42072 43.9024L5.88254 45.6169C5.99324 46.0265 6.57525 46.0265 6.68596 45.6169L7.14777 43.9024C7.18573 43.7601 7.29802 43.6478 7.44194 43.6098L9.15634 43.148C9.56596 43.0373 9.56596 42.4553 9.15634 42.3446L7.44194 41.8827C7.2996 41.8448 7.18731 41.7325 7.14777 41.5901L6.68596 39.8757C6.57525 39.4661 5.99324 39.4661 5.88254 39.8757L5.42072 41.5901C5.38277 41.7325 5.27048 41.8448 5.12814 41.8827L3.41374 42.3446C3.00412 42.4553 3.00412 43.0373 3.41374 43.148Z" fill="black"/>
<path d="M22.2719 6.26069L25.2705 7.0673C25.5204 7.1353 25.7165 7.32984 25.7829 7.57973L26.5895 10.5784C26.7825 11.2964 27.801 11.2964 27.9939 10.5784L28.8005 7.57973C28.8685 7.32984 29.0631 7.13372 29.313 7.0673L32.3116 6.26069C33.0296 6.06774 33.0296 5.0492 32.3116 4.85625L29.313 4.04964C29.0631 3.98163 28.867 3.7871 28.8005 3.53721L27.9939 0.538528C27.801 -0.179509 26.7825 -0.179509 26.5895 0.538528L25.7829 3.53721C25.7149 3.7871 25.5204 3.98321 25.2705 4.04964L22.2719 4.85625C21.5539 5.0492 21.5539 6.06774 22.2719 6.26069Z" fill="black"/>
<path d="M71.284 48.7373L68.2853 47.9307C68.0355 47.8627 67.8394 47.6682 67.7729 47.4183L66.9663 44.4196C66.7734 43.7015 65.7549 43.7015 65.5619 44.4196L64.7553 47.4183C64.6873 47.6682 64.4928 47.8643 64.2429 47.9307L61.2443 48.7373C60.5263 48.9303 60.5263 49.9488 61.2443 50.1418L64.2429 50.9484C64.4928 51.0164 64.6889 51.2109 64.7553 51.4608L65.5619 54.4595C65.7549 55.1775 66.7734 55.1775 66.9663 54.4595L67.7729 51.4608C67.8409 51.2109 68.0355 51.0148 68.2853 50.9484L71.284 50.1418C72.002 49.9488 72.002 48.9303 71.284 48.7373Z" fill="black"/>
<path d="M71.9988 7.21247C71.7078 6.11485 70.8442 5.25131 69.7467 4.9603C60.1198 2.39814 50.7966 4.85117 41.244 12.4522C38.7831 14.4102 36.3033 16.7194 33.787 19.3796L17.7391 18.6868C16.8724 18.6473 15.9994 18.9842 15.3762 19.6057L11.1424 23.8396C9.91515 25.0669 9.91515 27.0645 11.1424 28.2918L19.9422 37.0917C19.5294 37.7054 19.115 38.3238 18.6991 38.9564C17.8782 40.2043 18.0459 41.8744 19.1008 42.9293L19.8615 43.6901L17.5002 47.3324C16.6968 48.5708 16.8708 50.2267 17.9146 51.2722L25.6895 59.0472C26.2936 59.653 27.105 59.9661 27.9211 59.9661C28.5126 59.9661 29.1072 59.8016 29.6291 59.4632L33.2699 57.1019L34.0322 57.8642C34.6379 58.4699 35.4492 58.7831 36.2653 58.7831C36.8679 58.7831 37.4736 58.6139 38.0034 58.2643C38.636 57.8468 39.2513 57.434 39.8665 57.0196L48.6678 65.8211C49.2814 66.4348 50.0864 66.7416 50.893 66.7416C51.6996 66.7416 52.5062 66.4348 53.1199 65.8211L57.3537 61.5872C57.9752 60.9657 58.3105 60.1069 58.2725 59.2259L57.5814 43.2172C70.7272 30.8603 75.222 19.329 71.9988 7.21563V7.21247ZM27.9163 56.8188L26.8013 57.9306L27.9147 56.8172L20.1398 49.0421L22.1358 45.9644L30.994 54.8212L27.9163 56.8188ZM21.7499 34.4473L13.3677 26.0649L17.6015 21.831L31.0399 22.4115C28.0112 25.8925 24.9256 29.8892 21.7499 34.4473ZM37.5021 45.754C35.8209 45.754 34.2378 45.0993 33.05 43.9099C30.5955 41.4553 30.5955 37.4618 33.05 35.0056C35.4287 32.6253 39.5771 32.6253 41.9541 35.0056C43.1434 36.1949 43.7982 37.7765 43.7982 39.4577C43.7982 41.139 43.1434 42.7206 41.9541 43.9099C40.7648 45.0993 39.1833 45.754 37.5021 45.754ZM50.8946 63.5927L42.5108 55.2087C47.0467 52.0519 51.0528 48.9694 54.548 45.9407L55.1284 59.3588L50.8946 63.5927ZM52.5679 34.0661C49.9836 34.0661 47.5544 33.0603 45.7277 31.2319C43.8994 29.4052 42.8936 26.9759 42.8936 24.3916C42.8936 21.8073 43.8994 19.378 45.7277 17.5513C47.5544 15.723 49.9836 14.7171 52.5679 14.7171C55.1521 14.7171 57.5814 15.723 59.4081 17.5513C61.2364 19.378 62.2422 21.8073 62.2422 24.3916C62.2422 26.9759 61.2364 29.4052 59.4081 31.2319C57.5814 33.0603 55.1521 34.0661 52.5679 34.0661Z" fill="black"/>
<path d="M37.5019 36.3089C36.6605 36.3089 35.8697 36.6363 35.2751 37.2309C34.0478 38.4582 34.0478 40.4558 35.2751 41.6831C36.4644 42.8724 38.5378 42.8724 39.7271 41.6831C40.3218 41.0884 40.6492 40.2976 40.6492 39.4578C40.6492 38.618 40.3218 37.8272 39.7271 37.2325C39.1325 36.6378 38.3417 36.3105 37.5019 36.3105V36.3089Z" fill="black"/>
<path d="M9.7161 56.5106C9.57376 56.653 -3.30636 72.0307 0.811992 76.1491C1.37819 76.7153 2.12784 77 3.09575 77C4.97779 77 7.68065 75.9166 11.4321 73.6992C15.1803 71.4835 19.1216 68.5718 20.4501 67.2432C21.8845 65.8103 22.6737 63.9045 22.6737 61.8769C22.6737 59.8493 21.8829 57.9435 20.4501 56.5106C17.4894 53.5515 12.6752 53.5515 9.71768 56.5106H9.7161ZM18.2232 65.018C15.5773 67.6639 5.50444 74.169 3.08784 73.8732C2.80158 71.4439 9.29541 61.3835 11.9413 58.7375C13.3284 57.352 15.4097 57.0784 17.0735 57.9119L11.266 65.6949L19.0504 59.8873C19.3572 60.4978 19.5249 61.1747 19.5249 61.8785C19.5249 63.0647 19.063 64.1797 18.2232 65.0195V65.018Z" fill="black"/>
<path d="M19.0331 23.5395L16.3983 26.3974L21.3106 30.9524C22.6201 29.2996 25.2992 25.9957 27.1164 24.2085L19.0331 23.5379V23.5395Z" fill="black"/>
<path d="M53.283 57.613L50.4251 60.2479L45.8702 55.3355C47.523 54.026 50.8268 51.3468 52.614 49.5295L53.2845 57.613H53.283Z" fill="black"/>
</svg>
