<svg width="35" height="35" viewBox="0 0 35 35" fill="none" xmlns="http://www.w3.org/2000/svg">
<g clip-path="url(#clip0_1755_73)">
<path d="M21.1842 23.0263L10.1315 10.1316L0.921021 23.0263" stroke="white" stroke-width="2" stroke-linecap="round" stroke-linejoin="round"/>
<path d="M18.6421 20.0421L24.8684 13.8158L34.0789 23.0263" stroke="white" stroke-width="2" stroke-linecap="round" stroke-linejoin="round"/>
<path d="M34.0789 23.0262L0.921021 23.0262" stroke="white" stroke-width="2" stroke-linecap="round" stroke-linejoin="round"/>
<path d="M19.342 8.28944C21.3768 8.28944 23.0263 6.63996 23.0263 4.60523C23.0263 2.5705 21.3768 0.921021 19.342 0.921021C17.3073 0.921021 15.6578 2.5705 15.6578 4.60523C15.6578 6.63996 17.3073 8.28944 19.342 8.28944Z" stroke="white" stroke-width="2" stroke-linecap="round" stroke-linejoin="round"/>
<path d="M0.921021 28.5526L8.28944 28.5526" stroke="white" stroke-width="2" stroke-linecap="round" stroke-linejoin="round"/>
<path d="M15.6578 28.5526L19.342 28.5526" stroke="white" stroke-width="2" stroke-linecap="round" stroke-linejoin="round"/>
<path d="M26.7104 28.5526L34.0789 28.5526" stroke="white" stroke-width="2" stroke-linecap="round" stroke-linejoin="round"/>
<path d="M6.44739 34.0789L13.8158 34.0789" stroke="white" stroke-width="2" stroke-linecap="round" stroke-linejoin="round"/>
<path d="M21.1842 34.0789L28.5526 34.0789" stroke="white" stroke-width="2" stroke-linecap="round" stroke-linejoin="round"/>
</g>
<defs>
<clipPath id="clip0_1755_73">
<rect width="35" height="35" fill="white"/>
</clipPath>
</defs>
</svg>
