<svg width="35" height="35" viewBox="0 0 35 35" fill="none" xmlns="http://www.w3.org/2000/svg">
<g clip-path="url(#clip0_1184_14684)">
<path d="M21.1841 23.0266L10.1314 10.1318L0.920898 23.0266" fill="white"/>
<path d="M21.1841 23.0266L10.1314 10.1318L0.920898 23.0266" stroke="white" stroke-width="2" stroke-linecap="round" stroke-linejoin="round"/>
<path d="M16 23.026L24.8679 13.8154L34.0784 23.026" fill="white"/>
<path d="M16 23.026L24.8679 13.8154L34.0784 23.026" stroke="white" stroke-width="2" stroke-linecap="round" stroke-linejoin="round"/>
<path d="M34.0788 23.0264L0.920898 23.0264" stroke="white" stroke-width="2" stroke-linecap="round" stroke-linejoin="round"/>
<path d="M19.3424 8.36744C21.3771 8.36744 23.0266 6.71797 23.0266 4.68323C23.0266 2.6485 21.3771 0.999023 19.3424 0.999023C17.3077 0.999023 15.6582 2.6485 15.6582 4.68323C15.6582 6.71797 17.3077 8.36744 19.3424 8.36744Z" fill="white" stroke="white" stroke-width="2" stroke-linecap="round" stroke-linejoin="round"/>
<path d="M0.920898 28.5527L8.28932 28.5527" stroke="white" stroke-width="2" stroke-linecap="round" stroke-linejoin="round"/>
<path d="M15.6582 28.5527H19.3424" stroke="white" stroke-width="2" stroke-linecap="round" stroke-linejoin="round"/>
<path d="M26.71 28.5527L34.0784 28.5527" stroke="white" stroke-width="2" stroke-linecap="round" stroke-linejoin="round"/>
<path d="M6.44727 34.0791H13.8157" stroke="white" stroke-width="2" stroke-linecap="round" stroke-linejoin="round"/>
<path d="M21.1836 34.0791H28.552" stroke="white" stroke-width="2" stroke-linecap="round" stroke-linejoin="round"/>
</g>
<defs>
<clipPath id="clip0_1184_14684">
<rect width="35" height="35" fill="white"/>
</clipPath>
</defs>
</svg>
