<svg width="30" height="30" viewBox="0 0 30 30" fill="none" xmlns="http://www.w3.org/2000/svg">
<path d="M11.1107 7.99957H3.3329C2.47734 7.99957 1.77734 7.29957 1.77734 6.44401V3.3329C1.77734 2.47734 2.47734 1.77734 3.3329 1.77734H11.1107C11.9662 1.77734 12.6662 2.47734 12.6662 3.3329V6.44401C12.6662 7.29957 11.9662 7.99957 11.1107 7.99957Z" stroke="black" stroke-width="2" stroke-miterlimit="10" stroke-linecap="round" stroke-linejoin="round"/>
<path d="M11.1107 28.2216H3.3329C2.47734 28.2216 1.77734 27.5216 1.77734 26.666V14.2216C1.77734 13.366 2.47734 12.666 3.3329 12.666H11.1107C11.9662 12.666 12.6662 13.366 12.6662 14.2216V26.666C12.6662 27.5216 11.9662 28.2216 11.1107 28.2216Z" stroke="black" stroke-width="2" stroke-miterlimit="10" stroke-linecap="round" stroke-linejoin="round"/>
<path d="M18.8886 22H26.6663C27.5219 22 28.2219 22.7 28.2219 23.5556V26.6667C28.2219 27.5222 27.5219 28.2222 26.6663 28.2222H18.8886C18.033 28.2222 17.333 27.5222 17.333 26.6667V23.5556C17.333 22.7 18.033 22 18.8886 22Z" stroke="black" stroke-width="2" stroke-miterlimit="10" stroke-linecap="round" stroke-linejoin="round"/>
<path d="M18.8886 1.77734H26.6663C27.5219 1.77734 28.2219 2.47734 28.2219 3.3329V15.7773C28.2219 16.6329 27.5219 17.3329 26.6663 17.3329H18.8886C18.033 17.3329 17.333 16.6329 17.333 15.7773V3.3329C17.333 2.47734 18.033 1.77734 18.8886 1.77734Z" stroke="black" stroke-width="2" stroke-miterlimit="10" stroke-linecap="round" stroke-linejoin="round"/>
</svg>
